<mxfile host="Electron" modified="2023-09-14T00:00:17.747Z" agent="Mozilla/5.0 (Windows NT 10.0; Win64; x64) AppleWebKit/537.36 (KHTML, like Gecko) draw.io/21.6.8 Chrome/114.0.5735.289 Electron/25.5.0 Safari/537.36" etag="mpmPHHu76i6dMOksLq2L" version="21.6.8" type="device">
  <diagram name="Página-1" id="V90uFYqIuMImTDHmzadK">
    <mxGraphModel dx="3005" dy="842" grid="1" gridSize="10" guides="1" tooltips="1" connect="1" arrows="1" fold="1" page="1" pageScale="1" pageWidth="827" pageHeight="1169" math="0" shadow="0">
      <root>
        <mxCell id="0" />
        <mxCell id="1" parent="0" />
        <mxCell id="HNMRZBhhpaqpmx9BVJAd-5" style="edgeStyle=orthogonalEdgeStyle;rounded=0;orthogonalLoop=1;jettySize=auto;html=1;entryX=0;entryY=0.5;entryDx=0;entryDy=0;entryPerimeter=0;" parent="1" source="HNMRZBhhpaqpmx9BVJAd-1" target="HNMRZBhhpaqpmx9BVJAd-4" edge="1">
          <mxGeometry relative="1" as="geometry" />
        </mxCell>
        <mxCell id="HNMRZBhhpaqpmx9BVJAd-1" value="Base de&lt;br&gt;Datos" style="shape=datastore;whiteSpace=wrap;html=1;" parent="1" vertex="1">
          <mxGeometry x="30" y="60" width="60" height="60" as="geometry" />
        </mxCell>
        <mxCell id="HNMRZBhhpaqpmx9BVJAd-2" value="MySQL" style="text;strokeColor=none;align=center;fillColor=none;html=1;verticalAlign=middle;whiteSpace=wrap;rounded=0;" parent="1" vertex="1">
          <mxGeometry x="30" y="130" width="60" height="30" as="geometry" />
        </mxCell>
        <mxCell id="HNMRZBhhpaqpmx9BVJAd-17" style="edgeStyle=orthogonalEdgeStyle;rounded=0;orthogonalLoop=1;jettySize=auto;html=1;entryX=1;entryY=0.5;entryDx=0;entryDy=0;exitX=0.5;exitY=1;exitDx=0;exitDy=0;" parent="1" source="HNMRZBhhpaqpmx9BVJAd-3" target="HNMRZBhhpaqpmx9BVJAd-11" edge="1">
          <mxGeometry relative="1" as="geometry" />
        </mxCell>
        <mxCell id="HNMRZBhhpaqpmx9BVJAd-3" value="Wordpress&lt;br&gt;App" style="whiteSpace=wrap;html=1;aspect=fixed;" parent="1" vertex="1">
          <mxGeometry x="310" y="100" width="80" height="80" as="geometry" />
        </mxCell>
        <mxCell id="HNMRZBhhpaqpmx9BVJAd-6" style="edgeStyle=orthogonalEdgeStyle;rounded=0;orthogonalLoop=1;jettySize=auto;html=1;entryX=0;entryY=0.5;entryDx=0;entryDy=0;" parent="1" source="HNMRZBhhpaqpmx9BVJAd-4" target="HNMRZBhhpaqpmx9BVJAd-3" edge="1">
          <mxGeometry relative="1" as="geometry" />
        </mxCell>
        <mxCell id="HNMRZBhhpaqpmx9BVJAd-4" value="Plugin&lt;br&gt;Addon" style="shape=cylinder3;whiteSpace=wrap;html=1;boundedLbl=1;backgroundOutline=1;size=15;" parent="1" vertex="1">
          <mxGeometry x="170" width="60" height="80" as="geometry" />
        </mxCell>
        <mxCell id="HNMRZBhhpaqpmx9BVJAd-9" style="edgeStyle=orthogonalEdgeStyle;rounded=0;orthogonalLoop=1;jettySize=auto;html=1;" parent="1" edge="1">
          <mxGeometry relative="1" as="geometry">
            <mxPoint x="130" y="220" as="targetPoint" />
            <mxPoint x="184" y="220" as="sourcePoint" />
          </mxGeometry>
        </mxCell>
        <mxCell id="HNMRZBhhpaqpmx9BVJAd-10" value="Descargar&lt;br&gt;Certificado" style="text;strokeColor=none;align=center;fillColor=none;html=1;verticalAlign=middle;whiteSpace=wrap;rounded=0;" parent="1" vertex="1">
          <mxGeometry x="30" y="280" width="60" height="30" as="geometry" />
        </mxCell>
        <mxCell id="HNMRZBhhpaqpmx9BVJAd-11" value="curso a&lt;br&gt;curso b&lt;br&gt;curso c" style="text;strokeColor=#6c8ebf;align=center;fillColor=#dae8fc;html=1;verticalAlign=middle;whiteSpace=wrap;rounded=0;" parent="1" vertex="1">
          <mxGeometry x="200" y="190" width="60" height="60" as="geometry" />
        </mxCell>
        <mxCell id="HNMRZBhhpaqpmx9BVJAd-14" style="edgeStyle=orthogonalEdgeStyle;rounded=0;orthogonalLoop=1;jettySize=auto;html=1;entryX=0.5;entryY=0;entryDx=0;entryDy=0;" parent="1" source="HNMRZBhhpaqpmx9BVJAd-13" target="HNMRZBhhpaqpmx9BVJAd-10" edge="1">
          <mxGeometry relative="1" as="geometry" />
        </mxCell>
        <mxCell id="HNMRZBhhpaqpmx9BVJAd-13" value="Cetificado 1&lt;br&gt;Habilidades Digitales" style="rounded=0;whiteSpace=wrap;html=1;fillColor=#dae8fc;strokeColor=#6c8ebf;" parent="1" vertex="1">
          <mxGeometry y="190" width="120" height="60" as="geometry" />
        </mxCell>
        <mxCell id="HNMRZBhhpaqpmx9BVJAd-15" value="" style="endArrow=none;dashed=1;html=1;dashPattern=1 3;strokeWidth=2;rounded=0;entryX=0.656;entryY=1.044;entryDx=0;entryDy=0;entryPerimeter=0;exitX=0.5;exitY=0;exitDx=0;exitDy=0;" parent="1" source="HNMRZBhhpaqpmx9BVJAd-11" target="HNMRZBhhpaqpmx9BVJAd-4" edge="1">
          <mxGeometry width="50" height="50" relative="1" as="geometry">
            <mxPoint x="270" y="230" as="sourcePoint" />
            <mxPoint x="320" y="180" as="targetPoint" />
          </mxGeometry>
        </mxCell>
        <mxCell id="HNMRZBhhpaqpmx9BVJAd-16" value="" style="endArrow=none;dashed=1;html=1;dashPattern=1 3;strokeWidth=2;rounded=0;entryX=0.656;entryY=1.044;entryDx=0;entryDy=0;entryPerimeter=0;exitX=0.25;exitY=0;exitDx=0;exitDy=0;" parent="1" source="HNMRZBhhpaqpmx9BVJAd-11" edge="1">
          <mxGeometry width="50" height="50" relative="1" as="geometry">
            <mxPoint x="111" y="206" as="sourcePoint" />
            <mxPoint x="90" y="100" as="targetPoint" />
          </mxGeometry>
        </mxCell>
        <mxCell id="HNMRZBhhpaqpmx9BVJAd-18" style="edgeStyle=orthogonalEdgeStyle;rounded=0;orthogonalLoop=1;jettySize=auto;html=1;" parent="1" edge="1">
          <mxGeometry relative="1" as="geometry">
            <mxPoint x="130" y="360" as="targetPoint" />
            <mxPoint x="184" y="360" as="sourcePoint" />
          </mxGeometry>
        </mxCell>
        <mxCell id="HNMRZBhhpaqpmx9BVJAd-19" value="curso d&lt;br&gt;curso e&lt;br&gt;curso f" style="text;strokeColor=#82b366;align=center;fillColor=#d5e8d4;html=1;verticalAlign=middle;whiteSpace=wrap;rounded=0;" parent="1" vertex="1">
          <mxGeometry x="200" y="330" width="60" height="60" as="geometry" />
        </mxCell>
        <mxCell id="HNMRZBhhpaqpmx9BVJAd-20" style="edgeStyle=orthogonalEdgeStyle;rounded=0;orthogonalLoop=1;jettySize=auto;html=1;entryX=0.5;entryY=0;entryDx=0;entryDy=0;" parent="1" source="HNMRZBhhpaqpmx9BVJAd-21" edge="1">
          <mxGeometry relative="1" as="geometry">
            <mxPoint x="60" y="420" as="targetPoint" />
          </mxGeometry>
        </mxCell>
        <mxCell id="HNMRZBhhpaqpmx9BVJAd-21" value="Cetificado 2&lt;br&gt;Herramientas de Productividad" style="rounded=0;whiteSpace=wrap;html=1;fillColor=#d5e8d4;strokeColor=#82b366;" parent="1" vertex="1">
          <mxGeometry y="330" width="120" height="60" as="geometry" />
        </mxCell>
        <mxCell id="HNMRZBhhpaqpmx9BVJAd-24" value="Descargar&lt;br&gt;Certificado" style="text;strokeColor=none;align=center;fillColor=none;html=1;verticalAlign=middle;whiteSpace=wrap;rounded=0;" parent="1" vertex="1">
          <mxGeometry x="30" y="420" width="60" height="30" as="geometry" />
        </mxCell>
        <mxCell id="AOeCqYQtMsdSpNOsC5Kb-4" style="edgeStyle=orthogonalEdgeStyle;rounded=0;orthogonalLoop=1;jettySize=auto;html=1;" parent="1" source="AOeCqYQtMsdSpNOsC5Kb-1" edge="1">
          <mxGeometry relative="1" as="geometry">
            <mxPoint x="640" y="140" as="targetPoint" />
          </mxGeometry>
        </mxCell>
        <mxCell id="AOeCqYQtMsdSpNOsC5Kb-1" value="&lt;font style=&quot;font-size: 17px;&quot;&gt;wp-load.php&lt;/font&gt;" style="text;strokeColor=none;align=center;fillColor=none;html=1;verticalAlign=middle;whiteSpace=wrap;rounded=0;" parent="1" vertex="1">
          <mxGeometry x="480" y="125" width="100" height="30" as="geometry" />
        </mxCell>
        <mxCell id="AOeCqYQtMsdSpNOsC5Kb-3" value="&lt;font style=&quot;font-size: 17px;&quot;&gt;Puedes utilizar wp-load.php para desarrollar scripts personalizados que *interactúen con la base de datos de WordPress o utilicen las funciones de WordPress*. Esto es útil cuando necesitas realizar tareas que no son posibles a través de la interfaz estándar de WordPress.&lt;/font&gt;" style="text;strokeColor=none;align=center;fillColor=none;html=1;verticalAlign=middle;whiteSpace=wrap;rounded=0;" parent="1" vertex="1">
          <mxGeometry x="690" y="110" width="310" height="80" as="geometry" />
        </mxCell>
        <mxCell id="YA0cArWu-uUSdIrRoLEa-9" style="edgeStyle=orthogonalEdgeStyle;rounded=0;orthogonalLoop=1;jettySize=auto;html=1;" edge="1" parent="1" source="YA0cArWu-uUSdIrRoLEa-1">
          <mxGeometry relative="1" as="geometry">
            <mxPoint x="245" y="830" as="targetPoint" />
          </mxGeometry>
        </mxCell>
        <mxCell id="YA0cArWu-uUSdIrRoLEa-14" style="edgeStyle=orthogonalEdgeStyle;rounded=0;orthogonalLoop=1;jettySize=auto;html=1;" edge="1" parent="1" source="YA0cArWu-uUSdIrRoLEa-1">
          <mxGeometry relative="1" as="geometry">
            <mxPoint x="320" y="730" as="targetPoint" />
          </mxGeometry>
        </mxCell>
        <mxCell id="YA0cArWu-uUSdIrRoLEa-1" value="MySQL" style="shape=cylinder3;whiteSpace=wrap;html=1;boundedLbl=1;backgroundOutline=1;size=15;fillColor=#fff2cc;strokeColor=#d6b656;" vertex="1" parent="1">
          <mxGeometry x="215" y="730" width="60" height="80" as="geometry" />
        </mxCell>
        <mxCell id="YA0cArWu-uUSdIrRoLEa-3" value="global $wpdb" style="text;strokeColor=#6c8ebf;align=center;fillColor=#dae8fc;html=1;verticalAlign=middle;whiteSpace=wrap;rounded=0;" vertex="1" parent="1">
          <mxGeometry x="195" y="900" width="90" height="30" as="geometry" />
        </mxCell>
        <mxCell id="YA0cArWu-uUSdIrRoLEa-5" value="" style="line;strokeWidth=4;html=1;perimeter=backbonePerimeter;points=[];outlineConnect=0;" vertex="1" parent="1">
          <mxGeometry x="40" y="480" width="1560" height="10" as="geometry" />
        </mxCell>
        <mxCell id="YA0cArWu-uUSdIrRoLEa-6" value="Inicio" style="rounded=1;whiteSpace=wrap;html=1;fillColor=#d5e8d4;strokeColor=#82b366;" vertex="1" parent="1">
          <mxGeometry x="20" y="850" width="60" height="30" as="geometry" />
        </mxCell>
        <mxCell id="YA0cArWu-uUSdIrRoLEa-7" value="" style="endArrow=classic;html=1;rounded=0;" edge="1" parent="1">
          <mxGeometry relative="1" as="geometry">
            <mxPoint x="90" y="864.76" as="sourcePoint" />
            <mxPoint x="190" y="864.76" as="targetPoint" />
          </mxGeometry>
        </mxCell>
        <mxCell id="YA0cArWu-uUSdIrRoLEa-8" value="Crear Tablas" style="edgeLabel;resizable=0;html=1;align=center;verticalAlign=middle;" connectable="0" vertex="1" parent="YA0cArWu-uUSdIrRoLEa-7">
          <mxGeometry relative="1" as="geometry" />
        </mxCell>
        <mxCell id="YA0cArWu-uUSdIrRoLEa-24" style="edgeStyle=orthogonalEdgeStyle;rounded=0;orthogonalLoop=1;jettySize=auto;html=1;" edge="1" parent="1" source="YA0cArWu-uUSdIrRoLEa-10">
          <mxGeometry relative="1" as="geometry">
            <mxPoint x="850" y="865.0000000000002" as="targetPoint" />
          </mxGeometry>
        </mxCell>
        <mxCell id="YA0cArWu-uUSdIrRoLEa-10" value="Tablas" style="shape=parallelogram;perimeter=parallelogramPerimeter;whiteSpace=wrap;html=1;fixedSize=1;" vertex="1" parent="1">
          <mxGeometry x="195" y="840" width="100" height="50" as="geometry" />
        </mxCell>
        <mxCell id="YA0cArWu-uUSdIrRoLEa-15" style="edgeStyle=orthogonalEdgeStyle;rounded=0;orthogonalLoop=1;jettySize=auto;html=1;" edge="1" parent="1" source="YA0cArWu-uUSdIrRoLEa-11">
          <mxGeometry relative="1" as="geometry">
            <mxPoint x="550" y="760" as="targetPoint" />
          </mxGeometry>
        </mxCell>
        <mxCell id="YA0cArWu-uUSdIrRoLEa-11" value="Recorrer Toda la base de datos BUCLE y apuntar a una en especifico" style="text;strokeColor=#82b366;align=center;fillColor=#d5e8d4;html=1;verticalAlign=middle;whiteSpace=wrap;rounded=0;" vertex="1" parent="1">
          <mxGeometry x="340" y="710" width="190" height="50" as="geometry" />
        </mxCell>
        <mxCell id="YA0cArWu-uUSdIrRoLEa-12" value="Crear la tabla, con claves foraneas que apunten a TABLAS YA CREADAS de los usuarios y el estado de sus cursos" style="text;strokeColor=#666666;align=center;fillColor=#f5f5f5;html=1;verticalAlign=middle;whiteSpace=wrap;rounded=0;fontColor=#333333;" vertex="1" parent="1">
          <mxGeometry x="310" y="765" width="250" height="60" as="geometry" />
        </mxCell>
        <mxCell id="YA0cArWu-uUSdIrRoLEa-16" value="Crear variable con el schema de una tabla en particular que ya exista" style="text;align=center;html=1;verticalAlign=middle;whiteSpace=wrap;rounded=0;fillColor=#ffe6cc;strokeColor=#d79b00;" vertex="1" parent="1">
          <mxGeometry x="614.91" y="510" width="155.09" height="60" as="geometry" />
        </mxCell>
        <mxCell id="YA0cArWu-uUSdIrRoLEa-17" value="BUCLE for()" style="text;strokeColor=#d6b656;align=center;fillColor=#fff2cc;html=1;verticalAlign=middle;whiteSpace=wrap;rounded=0;" vertex="1" parent="1">
          <mxGeometry x="614.91" y="590" width="155.09" height="30" as="geometry" />
        </mxCell>
        <mxCell id="YA0cArWu-uUSdIrRoLEa-22" style="edgeStyle=orthogonalEdgeStyle;rounded=0;orthogonalLoop=1;jettySize=auto;html=1;" edge="1" parent="1" source="YA0cArWu-uUSdIrRoLEa-18">
          <mxGeometry relative="1" as="geometry">
            <mxPoint x="694.91" y="730" as="targetPoint" />
          </mxGeometry>
        </mxCell>
        <mxCell id="YA0cArWu-uUSdIrRoLEa-27" style="edgeStyle=orthogonalEdgeStyle;rounded=0;orthogonalLoop=1;jettySize=auto;html=1;entryX=1;entryY=0.5;entryDx=0;entryDy=0;exitX=1;exitY=0.5;exitDx=0;exitDy=0;" edge="1" parent="1" source="YA0cArWu-uUSdIrRoLEa-18" target="YA0cArWu-uUSdIrRoLEa-16">
          <mxGeometry relative="1" as="geometry" />
        </mxCell>
        <mxCell id="YA0cArWu-uUSdIrRoLEa-18" value="If(existe esa variable) {&lt;br&gt;// ejecutar instrucciones&lt;br&gt;&lt;div style=&quot;text-align: left;&quot;&gt;&lt;span style=&quot;background-color: initial;&quot;&gt;};&lt;/span&gt;&lt;/div&gt;" style="text;strokeColor=#666666;align=center;fillColor=#f5f5f5;html=1;verticalAlign=middle;whiteSpace=wrap;rounded=0;fontColor=#333333;" vertex="1" parent="1">
          <mxGeometry x="614.91" y="640" width="160" height="60" as="geometry" />
        </mxCell>
        <mxCell id="YA0cArWu-uUSdIrRoLEa-30" style="edgeStyle=orthogonalEdgeStyle;rounded=0;orthogonalLoop=1;jettySize=auto;html=1;fillColor=#dae8fc;strokeColor=#6c8ebf;" edge="1" parent="1" source="YA0cArWu-uUSdIrRoLEa-23">
          <mxGeometry relative="1" as="geometry">
            <mxPoint x="699.9099999999999" y="860" as="targetPoint" />
          </mxGeometry>
        </mxCell>
        <mxCell id="YA0cArWu-uUSdIrRoLEa-23" value="TABLAS CREADAS" style="text;strokeColor=#6c8ebf;align=center;fillColor=#dae8fc;html=1;verticalAlign=middle;whiteSpace=wrap;rounded=0;" vertex="1" parent="1">
          <mxGeometry x="629.91" y="740" width="140" height="30" as="geometry" />
        </mxCell>
        <mxCell id="YA0cArWu-uUSdIrRoLEa-25" value="" style="endArrow=classic;html=1;rounded=0;entryX=0.002;entryY=0.392;entryDx=0;entryDy=0;entryPerimeter=0;" edge="1" parent="1" target="YA0cArWu-uUSdIrRoLEa-16">
          <mxGeometry width="50" height="50" relative="1" as="geometry">
            <mxPoint x="580" y="865" as="sourcePoint" />
            <mxPoint x="580" y="785" as="targetPoint" />
            <Array as="points">
              <mxPoint x="580" y="534" />
            </Array>
          </mxGeometry>
        </mxCell>
        <mxCell id="YA0cArWu-uUSdIrRoLEa-29" value="" style="endArrow=classic;html=1;rounded=0;" edge="1" parent="1">
          <mxGeometry width="50" height="50" relative="1" as="geometry">
            <mxPoint x="690" y="570" as="sourcePoint" />
            <mxPoint x="690" y="590" as="targetPoint" />
          </mxGeometry>
        </mxCell>
        <mxCell id="YA0cArWu-uUSdIrRoLEa-44" value="" style="line;strokeWidth=2;direction=south;html=1;" vertex="1" parent="1">
          <mxGeometry x="-10" y="490" width="10" height="560" as="geometry" />
        </mxCell>
        <mxCell id="YA0cArWu-uUSdIrRoLEa-45" value="&lt;table style=&quot;border-left-style: none; border-top-style: none; border-right-style: none; border-bottom-style: none; border-collapse: collapse;&quot;&gt;&lt;tbody&gt;&lt;tr&gt;&lt;td style=&quot;border-left-style: none; border-top-style: none; border-right-style: none; border-bottom-style: none; padding-left: 15px;&quot;&gt;&lt;b&gt;&lt;u&gt;ID&lt;/u&gt;&lt;/b&gt;&lt;/td&gt;&lt;td style=&quot;border-left-style: none; border-top-style: none; border-right-style: none; border-bottom-style: none; padding-left: 15px;&quot;&gt;&lt;font color=&quot;#717171&quot;&gt;bigint(20) UN AI PK&lt;/font&gt;&lt;/td&gt;&lt;/tr&gt;&lt;tr&gt;&lt;td style=&quot;border-left-style: none; border-top-style: none; border-right-style: none; border-bottom-style: none; padding-left: 15px;&quot;&gt;&lt;b&gt;user_login&lt;/b&gt;&lt;/td&gt;&lt;td style=&quot;border-left-style: none; border-top-style: none; border-right-style: none; border-bottom-style: none; padding-left: 15px;&quot;&gt;&lt;font color=&quot;#717171&quot;&gt;varchar(60)&lt;/font&gt;&lt;/td&gt;&lt;/tr&gt;&lt;tr&gt;&lt;td style=&quot;border-left-style: none; border-top-style: none; border-right-style: none; border-bottom-style: none; padding-left: 15px;&quot;&gt;user_pass&lt;/td&gt;&lt;td style=&quot;border-left-style: none; border-top-style: none; border-right-style: none; border-bottom-style: none; padding-left: 15px;&quot;&gt;&lt;font color=&quot;#717171&quot;&gt;varchar(255)&lt;/font&gt;&lt;/td&gt;&lt;/tr&gt;&lt;tr&gt;&lt;td style=&quot;border-left-style: none; border-top-style: none; border-right-style: none; border-bottom-style: none; padding-left: 15px;&quot;&gt;&lt;b&gt;user_nicename&lt;/b&gt;&lt;/td&gt;&lt;td style=&quot;border-left-style: none; border-top-style: none; border-right-style: none; border-bottom-style: none; padding-left: 15px;&quot;&gt;&lt;font color=&quot;#717171&quot;&gt;varchar(50)&lt;/font&gt;&lt;/td&gt;&lt;/tr&gt;&lt;tr&gt;&lt;td style=&quot;border-left-style: none; border-top-style: none; border-right-style: none; border-bottom-style: none; padding-left: 15px;&quot;&gt;&lt;b&gt;user_email&lt;/b&gt;&lt;/td&gt;&lt;td style=&quot;border-left-style: none; border-top-style: none; border-right-style: none; border-bottom-style: none; padding-left: 15px;&quot;&gt;&lt;font color=&quot;#717171&quot;&gt;varchar(100)&lt;/font&gt;&lt;/td&gt;&lt;/tr&gt;&lt;tr&gt;&lt;td style=&quot;border-left-style: none; border-top-style: none; border-right-style: none; border-bottom-style: none; padding-left: 15px;&quot;&gt;user_url&lt;/td&gt;&lt;td style=&quot;border-left-style: none; border-top-style: none; border-right-style: none; border-bottom-style: none; padding-left: 15px;&quot;&gt;&lt;font color=&quot;#717171&quot;&gt;varchar(100)&lt;/font&gt;&lt;/td&gt;&lt;/tr&gt;&lt;tr&gt;&lt;td style=&quot;border-left-style: none; border-top-style: none; border-right-style: none; border-bottom-style: none; padding-left: 15px;&quot;&gt;user_registered&lt;/td&gt;&lt;td style=&quot;border-left-style: none; border-top-style: none; border-right-style: none; border-bottom-style: none; padding-left: 15px;&quot;&gt;&lt;font color=&quot;#717171&quot;&gt;datetime&lt;/font&gt;&lt;/td&gt;&lt;/tr&gt;&lt;tr&gt;&lt;td style=&quot;border-left-style: none; border-top-style: none; border-right-style: none; border-bottom-style: none; padding-left: 15px;&quot;&gt;user_activation_key&lt;/td&gt;&lt;td style=&quot;border-left-style: none; border-top-style: none; border-right-style: none; border-bottom-style: none; padding-left: 15px;&quot;&gt;&lt;font color=&quot;#717171&quot;&gt;varchar(255)&lt;/font&gt;&lt;/td&gt;&lt;/tr&gt;&lt;tr&gt;&lt;td style=&quot;border-left-style: none; border-top-style: none; border-right-style: none; border-bottom-style: none; padding-left: 15px;&quot;&gt;user_status&lt;/td&gt;&lt;td style=&quot;border-left-style: none; border-top-style: none; border-right-style: none; border-bottom-style: none; padding-left: 15px;&quot;&gt;&lt;font color=&quot;#717171&quot;&gt;int(11)&lt;/font&gt;&lt;/td&gt;&lt;/tr&gt;&lt;tr&gt;&lt;td style=&quot;border-left-style: none; border-top-style: none; border-right-style: none; border-bottom-style: none; padding-left: 15px;&quot;&gt;display_name&lt;/td&gt;&lt;td style=&quot;border-left-style: none; border-top-style: none; border-right-style: none; border-bottom-style: none; padding-left: 15px;&quot;&gt;&lt;font color=&quot;#717171&quot;&gt;varchar(250)&lt;/font&gt;&lt;/td&gt;&lt;/tr&gt;&lt;/tbody&gt;&lt;/table&gt;" style="text;whiteSpace=wrap;html=1;labelBorderColor=default;" vertex="1" parent="1">
          <mxGeometry x="-413" y="580" width="253" height="180" as="geometry" />
        </mxCell>
        <mxCell id="YA0cArWu-uUSdIrRoLEa-59" value="wp_users" style="text;strokeColor=#82b366;align=center;fillColor=#d5e8d4;html=1;verticalAlign=middle;whiteSpace=wrap;rounded=0;" vertex="1" parent="1">
          <mxGeometry x="-320" y="550" width="60" height="30" as="geometry" />
        </mxCell>
        <mxCell id="YA0cArWu-uUSdIrRoLEa-60" value="&lt;table style=&quot;border-left-style: none; border-top-style: none; border-right-style: none; border-bottom-style: none; border-collapse: collapse;&quot;&gt;&lt;tbody&gt;&lt;tr&gt;&lt;td style=&quot;border-left-style: none; border-top-style: none; border-right-style: none; border-bottom-style: none; padding-left: 15px;&quot;&gt;&lt;b&gt;session_id&lt;/b&gt;&lt;/td&gt;&lt;td style=&quot;border-left-style: none; border-top-style: none; border-right-style: none; border-bottom-style: none; padding-left: 15px;&quot;&gt;&lt;font color=&quot;#717171&quot;&gt;bigint(20) AI&lt;/font&gt;&lt;/td&gt;&lt;/tr&gt;&lt;tr&gt;&lt;td style=&quot;border-left-style: none; border-top-style: none; border-right-style: none; border-bottom-style: none; padding-left: 15px;&quot;&gt;&lt;b&gt;&lt;u&gt;session_key&lt;/u&gt;&lt;/b&gt;&lt;/td&gt;&lt;td style=&quot;border-left-style: none; border-top-style: none; border-right-style: none; border-bottom-style: none; padding-left: 15px;&quot;&gt;&lt;font color=&quot;#717171&quot;&gt;char(32) PK&lt;/font&gt;&lt;/td&gt;&lt;/tr&gt;&lt;tr&gt;&lt;td style=&quot;border-left-style: none; border-top-style: none; border-right-style: none; border-bottom-style: none; padding-left: 15px;&quot;&gt;session_value&lt;/td&gt;&lt;td style=&quot;border-left-style: none; border-top-style: none; border-right-style: none; border-bottom-style: none; padding-left: 15px;&quot;&gt;&lt;font color=&quot;#717171&quot;&gt;longtext&lt;/font&gt;&lt;/td&gt;&lt;/tr&gt;&lt;tr&gt;&lt;td style=&quot;border-left-style: none; border-top-style: none; border-right-style: none; border-bottom-style: none; padding-left: 15px;&quot;&gt;session_expiry&lt;/td&gt;&lt;td style=&quot;border-left-style: none; border-top-style: none; border-right-style: none; border-bottom-style: none; padding-left: 15px;&quot;&gt;&lt;font color=&quot;#717171&quot;&gt;bigint(20)&lt;/font&gt;&lt;/td&gt;&lt;/tr&gt;&lt;/tbody&gt;&lt;/table&gt;" style="text;whiteSpace=wrap;html=1;strokeColor=default;" vertex="1" parent="1">
          <mxGeometry x="-510" y="890" width="210" height="90" as="geometry" />
        </mxCell>
        <mxCell id="YA0cArWu-uUSdIrRoLEa-61" value="wp_learnpress_sessions" style="text;strokeColor=#6c8ebf;align=center;fillColor=#dae8fc;html=1;verticalAlign=middle;whiteSpace=wrap;rounded=0;" vertex="1" parent="1">
          <mxGeometry x="-480" y="840" width="150" height="30" as="geometry" />
        </mxCell>
        <mxCell id="YA0cArWu-uUSdIrRoLEa-63" value="&lt;div&gt;&#39;598722&#39;, &#39;13209&#39;, &#39;4332&#39;, &#39;2023-08-12 03:06:25&#39;, &#39;2023-08-12 03:09:55&#39;, &#39;lp_lesson&#39;, &#39;completed&#39;, &#39;passed&#39;, &#39;50&#39;, &#39;4330&#39;, &#39;lp_course&#39;, &#39;598721&#39;&lt;/div&gt;&lt;div&gt;&lt;br&gt;&lt;/div&gt;" style="text;strokeColor=#666666;align=center;fillColor=#f5f5f5;html=1;verticalAlign=middle;whiteSpace=wrap;rounded=0;fontColor=#333333;" vertex="1" parent="1">
          <mxGeometry x="-1320" y="840" width="780" height="40" as="geometry" />
        </mxCell>
        <mxCell id="YA0cArWu-uUSdIrRoLEa-64" value="SQL&lt;br&gt;SELECT * FROM `wp_learnpress_user_items` ORDER BY `user_id` DESC" style="text;strokeColor=#d6b656;align=left;fillColor=#fff2cc;html=1;verticalAlign=middle;whiteSpace=wrap;rounded=0;" vertex="1" parent="1">
          <mxGeometry x="-950" y="910" width="410" height="30" as="geometry" />
        </mxCell>
        <mxCell id="YA0cArWu-uUSdIrRoLEa-65" value="Recapitulando un poco, los cursos eran free, la mayoria, ahora quiere monetizar el sitio&lt;br&gt;&lt;br&gt;para ello, creo 4 planes de certificaciones.&lt;br&gt;&lt;br&gt;Estos los compran los docentes, para enseñar en las instituciones" style="text;strokeColor=none;align=center;fillColor=none;html=1;verticalAlign=middle;whiteSpace=wrap;rounded=0;" vertex="1" parent="1">
          <mxGeometry x="-560" y="30" width="330" height="110" as="geometry" />
        </mxCell>
        <mxCell id="YA0cArWu-uUSdIrRoLEa-66" value="Habilidades Digitales&lt;br&gt;28cursos&lt;br&gt;certificado&lt;br&gt;USD 120/docente" style="text;strokeColor=#6c8ebf;align=center;fillColor=#dae8fc;html=1;verticalAlign=middle;whiteSpace=wrap;rounded=0;" vertex="1" parent="1">
          <mxGeometry x="-170" y="10" width="140" height="90" as="geometry" />
        </mxCell>
        <mxCell id="YA0cArWu-uUSdIrRoLEa-67" value="Herramientas de Productividad&lt;br&gt;23 cursos&lt;br&gt;certificado&lt;br&gt;USD 90/docente" style="text;strokeColor=#82b366;align=center;fillColor=#d5e8d4;html=1;verticalAlign=middle;whiteSpace=wrap;rounded=0;" vertex="1" parent="1">
          <mxGeometry x="-170" y="120" width="140" height="90" as="geometry" />
        </mxCell>
        <mxCell id="YA0cArWu-uUSdIrRoLEa-68" value="Metodolgías de Aprendizaje&lt;br&gt;5 cursos&lt;br&gt;certificado&lt;br&gt;USD 35/docente" style="text;strokeColor=#d6b656;align=center;fillColor=#fff2cc;html=1;verticalAlign=middle;whiteSpace=wrap;rounded=0;" vertex="1" parent="1">
          <mxGeometry x="-170" y="230" width="140" height="90" as="geometry" />
        </mxCell>
        <mxCell id="YA0cArWu-uUSdIrRoLEa-69" value="Fluidez lectora con IA&lt;br&gt;1 cursos&lt;br&gt;certificado&lt;br&gt;USD 15/docente" style="text;strokeColor=#b85450;align=center;fillColor=#f8cecc;html=1;verticalAlign=middle;whiteSpace=wrap;rounded=0;" vertex="1" parent="1">
          <mxGeometry x="-170" y="340" width="140" height="90" as="geometry" />
        </mxCell>
        <mxCell id="YA0cArWu-uUSdIrRoLEa-70" value="https://ubicuaeducacion.com/lp-profile/ramiro.navarrete/certificates/" style="text;strokeColor=#d6b656;align=center;fillColor=#fff2cc;html=1;verticalAlign=middle;whiteSpace=wrap;rounded=0;" vertex="1" parent="1">
          <mxGeometry x="-1600" y="40" width="410" height="30" as="geometry" />
        </mxCell>
        <mxCell id="YA0cArWu-uUSdIrRoLEa-71" value="" style="shape=image;verticalLabelPosition=bottom;labelBackgroundColor=default;verticalAlign=top;aspect=fixed;imageAspect=0;image=data:image/png,iVBORw0KGgoAAAANSUhEUgAABJcAAAJFCAYAAABgLxb2AAAAAXNSR0IArs4c6QAAAARnQU1BAACxjwv8YQUAAAAJcEhZcwAADsMAAA7DAcdvqGQAAOVwSURBVHhe7P1reBzXfaeLnk/z7Xw458zO+O44e2f2zNY4TkJP5jBxrMlJHu2Mj87eFnUzczFt54ziOaHlCS3HI3ksybTJJDKkxJBjiqLHtC0rsi62GYYmwftFhAiSDZIAbyBAEgQogrij0bgSIPU/9a/u1VhdWN1oAIXCQuN9n+d1d1etqq5atdhQ/bzWqv+LLAIff/YKIiIiIiIiIiIuoEmxKOHSjRs3ELGCdP2IISIiIiIi4uKaFIsSLgFA5UC4hIiIiIiI6KdJQbgEAPOCcAkREREREdFPk4JwCQDmBeESIiIiIiKinyYF4RIAzAvCJURERERERD9NCsIlAJgXhEuIiIiIiIh+mhSESwAwLwiXEBERERER/TQpCJcAYF4QLiEiIiIiIvppUhAuAcC8IFxCRERERET006QgXAKAeUG4hIiIiIiI6KdJQbgEAPOCcAkREREREdFPk4JwCQDmBeESIiIiIiKinyYF4RIAzAvCJURERERERD9NCsIlAJgXhEuIiIiIiIh+mhSESwAwLwiXEBERERER/TQpCJcAYF4QLiEiIiIiIvppUhAuAcC8IFxCRERERET006QgXAKAeUG4hIiIiIiI6KdJQbgEAPOCcAkREREREdFPk4JwCQDmBeESIiIiIiKinyYF4RIAzAvCJURERERERD9NikUJl44ePeqNtbW189a1X0RfjRvCJURERERERD9NCsIlR1g0W137RfTVuCFcQkRERERE9NOkIFxyhEWz1bVfRF+NG8IlREREREREP00KwiVHWDRbXftF9NW4IVyqZDtkW9ft3JUOGBuXbT91lUNERERERB9NikUJl1wBDSImY9z4Gi7t7MsdYLlM3pHxsQlpbh+SH++67tzncvPRixO5yrHoGpSHHGWXsq62Mt6XkUcdZYubkWu5bae4JTudZRERERERkzEpCJcQl5lxUzHhUoTx4THZtqPNue/lYnW71WvJMDYq1Y6yS1l3W7kjzfWzuf6ES4iIiIjon0mxJIfFuW6YF1PXMeLMuupyMXUd43x1fc9iGzeVGi5luS3NZzqc+18OLueeSyGTY/LjLe5tpku4tHzskVNjuUtsqMDQFRERESvDpCBcikHXMeLMuupyMXUd43x1fc9iGzeVHS4pt+XUgeXagyk759J4ribG06PyWgXOuVSqrWTae5zbTJdwaflIuISIiIhLx6QgXIpB1zHizLrqcjF1HeN8dX3PYhs3SylcunbOXfbjW27IE0cycirtGAamDI/IRtd2WBGWDiInpW6Xe7tCCZeWj4RLiIiIuHRMCsKlGHQdI86sqy4XU9cxzlfX9yy2cVMR4VLeNqlqcQwFC3svucpjJThjL7f0sDzm2K5QwqXlI+ESIiIiLh2TgnApBl3HiDPrqsvF1HWM89X1PYtt3FRWuKR2Sd1wbgOL3qudjrJYCc4YLgV0XJxp7i3CpeUj4RIiIiIuHZOCcCkGXceIM+uqy8XUdYzz1fU9i23cVF64dEWevjqZ28KiL+MsO+V12Xh8WM6lb8t4ZPPxydvS2zcqOw/cmHEy7OlPaBuX18J1bfLogYyc6ovu/45khsflyPHOaft+6NUe2dl+SzKTd3Jls4yPTcq19oxU/aiw/DTP3cptMYVrDqLpdZ0LVbZ0ymtX9ftziwN6r3ZP296YPd5x6Ri7k5/nKYue4y05dXFAni57gu3yLSdcksngnF51b5917uHS53YNyJGOiWnXSYLP4Xmf65FHi533q8PSkSuep4ygw9XGe692Ocuq8zpGo6M9Zf9NtsnT9SNyLbjueYZHpGq+203T/BuaLGiTiv4b7egYlh/vuu7YLtBxDCWZ8+9F0PZz/z6rX13eT6tERETEeEwKwqUYdB0jzqyrLhdT1zHOV9f3LLZxU4nhkvNGssTN4mP1o9Ix/V7dyXh6RF4oEepMD5duyc4tPVKXjtzUO8h0DeaGb2WH9xUGNA4mJ6Wu1GTl8wmXfpqWc9HeHQHuCbI75LX2Mo43RJ/gNz1Im4+utjIeDVECxjsGSnzvHMKloI5OlXFdQyYnpO6IK/i4IUfSuTJ5guu6I1rOdhbbxHKMOZ0hUXDtOxxzndkB2Vy3s3xoR/nnkekbkqpoUBZjuPS5vUNyzfFvYzp3pKM9XcaQTERERMTiJsWihEuuG15ETMa4Wd7hUptUX50sMxSxGBuX14r0gpkeLt2WTFk3olk0vKluLzPpUrRHTrEnwM05XJqUjmnhRZZp22twNlxmeGGRae+Vz9n7mYfOttKSkWvTqrHUkwNnFy49dGBEemdxmbLclub66f/eHnXME9bRUuLf5RbHsQ6PyNORcnEeY6ijPfWmXXOcBcwQLpW1Xc6HDoxKb2512eh+7IAppnDpsWA/s/29GA/2RcCEiIiIczUpCJcQl5lxs1yGxWmvlWi5h+rHi9wo6jC4W3ItsLdIMKQ3jI9G9qdOD5fiIDrMrJDxjt5pxxE653CpOIXbdwTbFg+WtPdQdIihjetY5mKxtvKYa3L3Ij1jZhUubUlLc5Hz0iFm2m6uDRdpB67hea6hcelhZ/sKDdptlGlzisV9jOpsApoZwqWiRK/PT10hYY6wfRX/t1Hwb/TIcPacQyckkyszxW3pyK8PbJn+b0pDrunbZcm29eL/FuJq64iIiLj8TArCJcRlZtwslwm9r52L9lhxTOord4Kb9GiPGp0XZsxxU+kehlQsXBpPj8o2ez6YH3XJj6+WHkrW2zEoG60heDqn0b4+1/7NvE4RYwmXpoI29dzFqTmXHnWGBneko6Vw/p7ixx3U4a6pcnO1eFspNrm7a26i8sMl1zUeH54+XFKHcrmGFk6fXN41zC347iJzIL3WlSuSZ3pbjP8YA2cIifKhldoxVHLOJZui2z3b4aiX4Ni6ovONXZeNZ0YdvbTuyLkjdjnjHCb03jIg5xz777gamUdsyw2pvnjL8XsxIftKzvmFiIiI6DYpluScS3Hquvmera79Ivpq3FRWuHRdXnCGO46eGK5eCOmhIr1F2uTHHdN7JbiGLjlv6osOi2krGkZpCOSeH8gVit2WU3sdZecVLmlI1F1i6Fqv82Zb59Jxly9yrl2D855/qWRbcfY2mZAj04YSlhsuueq/eHDw0PGx6QGio1eSa2hcc31hmayOkGPakLiFOcZiIdF4ULbk5PJz3M51XMX/XQTlXde6K+0oO/twaXovuFJt3T18jidWIiIi4lxMCsIlR1g0W137RfTVuKmIcOlHHVJ1fFiai8z94xyScmY8P5TF2FHiSWgfL3KjGy03PUDReX4KyxS4Y8Qxn8y4bCvSa0V1hTTOuplHuFTqJj7UMTSreDiX09n7Y/49Okq3FXeoNX1YY7nh0qA0R9qNTvI+1dsmquOcXUHGq0PThsa5hnK6wrLpocUCHaMrJNJyJdpq6Jy2a5Nt03polf53odtMawuTY/LjaeVmGy45esANj8hGZ1mj4ztKDXVERERELGJSEC45wqLZ6tovoq/GzVIKl+ZCbJPpunpFBPuOlpt1uOQKNUre6AY6btbjDZdmOuYrzp5czWdmfvT6Rsd8WNOHLM5OV1spqI8iQ5qa6+3vLX9Y3Ox09SJy7feG7IsOAXO0g+nzic30ZLlyLPMYy2xP05zTdmlpzpXN4+yFVOj0f3+u+plluOQIgMvphTS9XRYZvoqIiIhYwqQgXHKERbPVtV9EX42bSg6XwmE3M/WqKFfCJctOx1xGE3KknB5IjnosK6Ao4YzhUqBz8nbt1ZJvH4sdLl2RRy9Gh15F56RyzM3keErc7PUwXHL9e5sTrrY8y3DJcfxzI472hIiIiMvNpFjUcMkV1Bjtm+GorvKIWJ5xU5Hh0tiE1NV3zmoun8/tGpB97ePhE7RKPeGsgGUbLjluzp3DjxxumT78q9hj38u1nHBJJ4ee1jMoYKo+5hgu6cTsF0eluW9SMpPFnxZWSJH9OobGFfSQ2TL9GMuaxyeuY0wyXIot0Jl/uFTlGFY5NwiXEBERcfYmBeES4jIzbiozXJohnLHUp2WdSpd7wx1h2YZLczjmvI5tEwmXAn/qeOR/vnfQLMOlLZ3yWnvpp/0Vp9h+HUPj7Hl6ps1zNcOQuLiPcZmGS9P/Tc8VwiVEREScvUlBuIS4zIybpT+ht+upZfokt+JPcjI+dGDE8fjyWUC4NMVSCJcCXXM+aYDz2GzCpS09Uldk8vjyKB4yTB8aF5TNDd2bNs9VqSFxC3GMixwujfeNyL6LQ7N0UKqnDdecf7jU2+H6rpkcmGEScERERMTpJgXhEpal6zrg0jRuln64FNyQO25EC+fTceic5Dm4gR0elyPHu+WJVyOTTB9gzqUpZzlnje2rjt5DCYZLzmMP6Lg4XGa41OaczFwmJ6W5ZUCqtt2IDMd0fV/xcMk1NK65XtdN30/xIXELdIxzCYnUuWw31+8qy9m1X1e41HFxfpPQIyIiIpZrUhAuYVm6rgMuTeOmEsKlYoFB79UuR9ms03uIzPBkuQOES1O6J/TeV87k6cfHpg3Tmm9oMLu2ckUechyD6OP6c2+ncAQsjvBHJoNyP42UyzvLcMkxNG68Y8DR/koMiVuoY0wyXHJdo9ge5T+7cOnRFsdvhV4TR1lERETEuE0KwiUsS9d1wKVp3FRGuFSk95LeIBd5gtn0/c8wfw3hUoGunjHZHjaldQ1Lu3Zufr1AZttWtGfPa13lDBkrL2ApPan2bMMlR/A5OSY7o/VWakjcQh1jme1pmnPZztXDTQPMcp5IOKOzC5ecQVdwTV5wlUVERESM2aQgXMKydF0HXJrGTaWESx9/tsvRm6bYTWyb48lhpW/4CZciTptcOiCoj9I9S1zzY80/MJh9Wwl8Nah3x7DIQqa3iYccPd5Kf9fsw6XpPY/uTHuCYamwaMGOMclwydk7LttjaOanQHZI1d5Sc67NMlx6Ni3NuWI25czr9vEt3cGxMIQOERER525SEC5hWbqug0+6jnm2uvbrk65jnotxUznhUnBTXT/uGNo0IUccw4Gm7/+OnDte7CawIyjv6OmynMMlZ1B0JziOYjfcbc65a6RrsHhYsOWGPLGjU57+6XX3+pxzCpcCH3OEMIWUF7CUCjweC8qXNdyuQMdT4wqYoZfdQh1jme1pmnPczjV0tXQbUzvktQ5tZ0G5i51Fznn2gd8Lrjmswn8nJYKjLd1yJHwSZVDuSOk2jIiIiFjMpCBcwrJ0XQefdB3zbHXt1yddxzwX46aSwqVivZfGu9LTbjKdQcfkhBzZa98EtsmjB4bk2rQb0RzLOlwqFs7cDm7qe+RRe/6lH3XJtg5XN6Hi3/PYmfGCnmLj6aGiT9qaa7ikQcSRkiGOI3Bw9WCTO9LR0i2fs8o99GqP7OtztLGQmcKlYsFKjlJD4tSFOsaEwyV3CKQE59I+KBt/ZJfN/lttLnhCXvacpwdMN5zXveNi11T9bGkr3E57uuXKFeJo789el41nRqSj4Nhvy7n6Mno6ISIiIkZMCsIlLEvXdfBJ1zHPVtd+fdJ1zHMxbiorXApumF3zo2hPj12RsrtGpDe3dho6ubNzgucIyzxcKtqjK0dYh4HF0GNx9yxx9YrSm393W517uBRYqh04QyB3gJkl127mMNxumq5JuXOUnj9JXaBjTDxcCv49O4OyKUwbK/ZvtVgbc4bLNo5/g+4eXlOYY3EzU48rRERERLdJQbiEuMyMm0oLl4r2Rpk2H1CRYVqzwdGDZHmFS4FbeqSuoLdIeWQ60sWfzOeqk4BigcS8wqWS7cAdAs0UeMzMDMPaQosNjStn2wU6xkUIl9TPHRktEQAWJ9M1WLyNlQwVA5z/Btvk6YulAyY3d6T3arEgFREREbG0SUG4hLjMjJvKC5eK9V5yBSZtUtUyMfPNYjhcrtc9T0vk8fvLLlwK7ZDX2suoxxAdRuQaqmTr6nlzR5rr3fPbzC9cCtwy4OwpVaqH0UN7h8U50q+A7LCsFxzhVTlPyHMOjZtpSJxl7Me4SOGS+tCOtJwK5y8qh3LaWJtUX50s3mZL/Bv83N4SQ2WjBL8dpxgOh4iIiPMwKQiXEJeZcVOJ4VLRXh/pIefTzB7aMSBHOiYkExnSMj52S06dm5pP5bWu3AqL6OP3l2e4lFXn8NnZPi4dY9FhSnckMxzU5cUBeToSxhXzoYIb+DvScbW3YL4g23mHS4HuyeBnGL62pVN+3DI2/Xwnb8u19oxUv5oLZ1xP1utKT99fVMfQuJmHxEWM8xgXMVzKqvMqDUqd49+qDmUN25j173Vm2+Tp48PSPHy7oG7Gg7rp7cjMEOJdl43Hh+RU36T7WNJjcuS4NYcTIiIi4hxNCsIlxGVm3PgaLiEiIiIiIi53k4JwCXGZGTeES4iIiIiIiH6aFIRLWJau6+CTrmOera79+qTrmOdi3BAuISIiIiIi+mlSEC5hWbqug0+6jnm2uvbrk65jnotxQ7iEiIiIiIjop0lBuLSEdNWFOlNZ1/rZau/PR13HPFtd+/VJ1zHPxbghXEJERERERPTTpCBc8tS33npr2jJXXaimvHrs2LFpZe19zKTZT3S5vT/baLlSZYtZzj7sda7ji8Pod/qm65jnYtwQLiEiIiIiIvppUhAueWqpgOfNN98sqAsTCGmw5AqXimnv2+zH7EOtq6sr+KxGy5hlRrOvUt9jrzPro/uIro+WMeVw9sYN4RIiIiIiIqKfJgXhkmfq+Wl4pOrnaJhi1s+mLkzZYppyGhQdP35cTpw4IalUSk6dOhV6+vTpAnVZfX19WEbL6jYmZHJ9n9m/ban19jq7jKsu7PVYnnFDuISIiIiIiOinSUG45JkaHB0+fDhUzzXaQ0iXmXDJ3s4sP3LkSD6YstcZdV1Usy/tqaRhkQZHDQ0Ncv78ebl48aI0NTXJpUuXQvW9LtN1jY2NYdCkIZMGTDOFS3Y4VKyMvi92fNHto+uxPOOGcAkREREREdFPk4JwyTOj52oHKKqWsUMWextT1t5G12swZQdHZ86cCYMhEx5paNTc3CyXL1+Wq1evyrVr16S9vT0MDTo6OuTmzZvS2dmZV5fpuuvXr0tbW5u0trbKlStXpKWlJdyP7k/3e+7cufB7tLeTfu/Jkyen9XIyxx89bqN9flHN9jg744ZwCRERERER0U+TgnDJMzV00SBI1XM9cOCAHDx4UA4dOhT2StL1GtCY+ZB0Gy1nBzP6anowmfIa7mjQo8GPhkEaCHR3d8vAwIAMDg7K0NCQDA8Py8jISOjo6KiMjY2Fjo+PF2iWaxlVy+u2qu5H99fX1xeGUhpSaWilQZaGWqaXkzkHPX49VlV7a+mrnoMet1HL6LmYHl2mV5euM3WA5Rs3hEuIiIiIiIh+mhSES56pgYkdLmmwVG64ZLa3eyppryHtQaTD2bR3kfY20lApnU6HodDExITcvn1b7ty5I++888681f3o/jSEymQyYcikPZ000NJeTRcuXJCzZ8+Gw+50SJ0eox6znoMJmfS9LjPqeZnAjHBp/sYN4RIiIiIiIqKfJgXhkueac9ZwxZy7HbyoZrkGLRrWaHCjIY6GSW+//bZ0dXVJT0+P9Pf3h72KNFTSnke3bt2SycnJUA2EompQZIdO5rPRlHNtr8t0/9qzSXszaZilQZMeh/Zo0uF0OoxOezRpyKSBmTlP17kWqwucvXFDuISIiIiIiOinSUG45Jl6fiZg0c+ml5IdsJhwRZdpoKSvWkaHnGmwpKGNhkoaJmm4YwKfUuGQqr2YjCYwim4T3c61jdnO7tFkq6GThk0aMun8TtqrSo9bz9V1jrZ2Pdma5TizcUO4hIiIiIiI6KdJQbjkmXp+Jlwy5+oKV/S9Bks6SbbpqaSTcesQNO0dZIa9aZATDYeKaYIhEw4Z7WDIXq6Ws01UDaE09DLD5nSScO3JpMPmdAifDuXToMkMebOvvakT1zIsz7ghXEJERERERPTTpCBc8kz7PO2QyQ6YTLCkvZV0kmwNZXQuJQ1qdK4jDZRm6n3kCn2SUr9fj0uPUY9XgyYNw3T4noZM2pPJBEx67mYuJlXrI1pParQesbhxQ7iEiIiIiIjop0lBuOSpep4apJhART9rqKSBkvZW0lDJ9FbS4WVmCJwrzIk6n4DJhatcOZrj0KBJQyadm0kDMh3Sp0+Y04m/daifBmmmPmxNe1BddYhu44ZwCRERERER0U+TgnDJY/VcTZCiIZMu02CpsbExDF90OJk9/E17KrlCnKgm1HHpKm/rwl4/m33Zmp5MOtG4Dpfr7e3N92LSIE1DNVMP+rQ4fV2ObSIO44ZwCRERERER0U+TgnDJc+1z1oDFTNitvZWGh4fDQGa2QY4dALl0lYnuo5hz3c5oQibthaUBkw73u3TpUjhMTs9f68GES3bvJbvOsLRxQ7iEiIiIiIjop0lBuOSxZm4l8xQ47cXT3t4ehi7au0d7K2kYo0ZDnaiuIKeU9rbR/bvKl2t0e/2sPa6iasCkPbIGBwfDuZhaW1sLejFp/ZieTMupTcRh3BAuISIiIiIi+mlSEC55rAZLOqm1zj1k5lbSeYmiIY8JmIppytvblMKEPmoc+zK6ttV9akimcy6Zych1mY0u1+F/ev7aa8v0YjJD5DRkctUfuo0bwiVEREREREQ/TQrCJU/VYOnUqVPhpN3Xrl2T7u7usBePBi0moLFDH6Md4ES1gx6DvczWtX05uvZlGy2vxxzttWTOw2yjy8wT5TTI0KfjaU8uDd5cdYeljRvCJURERERERD9NCsIlT9WeOefOnQsnte7p6QmHiOlQMQ1eTEgTDWPsQMbWtdxgPpvtS+0nqpbT77YtZ3t7O1PeVpfreel7u7wGa/pUPH2anM7DpOGb1pMOH3TVIbqNG8IlREREREREP00KwqUYjB6bCTv0s5l02pR1rTPqcjPHkj4RTofCaY8lHQqnYYvBBC7RcMkOcIoZxSzX7W1dZRVT3t7GBEWu47CJbme0y6vRfRl0mYZsGjDpRN/ag0nrSetL61Xr0Ez0berb1q5rU9+lls/H6D7j0PU9czFuCJcQERERERH9NCkIl2JQj0kDDRNqmAmnNeiwww4NQExPG11m5guyz0uDEp24WsMTDZZ04m59PL8GKwYTwswU0riM4ipjdOEqV0ob13rbYudj0GU6J5MGTAMDA2H9aM8u7eGlQ+S0Dvfv3y+HDh3K17dRP5trZNe3hnn6XpfHOTm4+Y44dX3PXIwbwiVEREREREQ/TYpFCZdcN7xLWb3xN8GFfrbDJXvCaTtcMutMoGHW6eTdGizp/ELDw8PhUDAzRMxgBzKVoitUMhr0vYZsOjxQ60XnYdIn5125ciWc5FvrUMOlgwcPhvWtwZEuU/WzuUaqXefmWqnmWs1XEwjFqet75mLcEC4hIiIiIiL6aVIQLsWg3vib0EI/mzDDDixMOGDWmW1McHDy5MlwkurLly+Hj97XYEl7LNnzLBns4KVStMOlaMBkMOXsgElDOJ2DSXt7acBk6lPVerbVZeY66Xs7XLKXR7erNOOGcAkREREREdFPk4JwKQZNmBHVBBZRdZ1uZwdNJljSx+2bp8KZYMmELQY7eKkU7WDJnK/RYJfVetEeXTpETnsvtbe3F0zyrXVqeoVFr5O5DrrM9CQz6+zylWrcEC4hIiIiIiL6aVIQLsVoNLywP0d7MWmgocO2dK4g7bWkk1ObYEl7LM13om7FVc5X7WApes4Ge5mW0frROZh0wnMNmHQ4oenBpPUb7TVmNNdH35uhc+ZaRctWonFDuISIiIiIiOinSUG4FKMaTJggyYQXqlkWDZe010x9fX34xDMNRjRYivZWimoHMHYZF/Z2vlvsvFSDvcyodaV1pj2Y+vr6wh5M58+fD+vW1Le5FlrnJkgyy0y4ZK5fXOGS2Vecur5nLsYN4RIiIiIiIqKfJgXhUgzaAYAJkvS9CTPMMn01IYEu115LGiy1tLSETz7THkuuAMV2pgBGsZdH1/lE9DjnqtaFBkzag0nrUYcX6lP3zLXRutf3di8lO3DSV1PWXJ/5avYVp67vmYtxQ7iEiIiIiIjop0lBuBSD5uZfAwujLneFS7pcQw5VAxAdDtfZ2ZnvteQKT2xdwZJqY8q51vmEOT6X5jyjusqq2oNJwzmd4Ft7gZ07dy4cbqj1b8K+UuGSuYaqfp6v9v7i0vU9czFuCJcQERERERH9NCkIl2JQb/xNqGQHAdFwSZdrwKFDtrTXks4N1NbWFva40Qm8NSBxBSdzcaYwxjcN9jI7VLK1y9hlNZzTgMn0XtJeYVrPhw8fzte9HSZFr6HRXj5X7f3Fpet75mLcEC4hIiIiIiL6aVIQLsWg3vjb4ZJZbgcZus4s0x41Z86cCSef1l5LOin1THMtzdZSQYyPGqLLzXnYRsuYcmb+Je0FppOjX7lyJQzw7Lo318a+Tvre1iyfj9F9xqHre+Zi3BAuISIiIiIi+mlSEC7FoN74lwqXTBmzTCfxvnDhgly7dk36+/vzoYmGI3EFTGafrnU+anCtM+fiOqfoOtUMj9PQQ4fHmWtga18nfW9rl5ur0X3Goet75mLcEC4hIiIiIiL6aVIQLsVguUGABktqQ0ODtLa2Sk9PT/iUM0VDkbmGS3aw4lq/FIwSXV/s/Mxyu97M8Dh9epzOaXXixIlwSJxeA9f1sa9bdF0lGjeES4iIiIiIiH6aFIRLMavhhOnBZIcVJljSkEMfla/zAo2OjoZBiGIHJXZ4MpNmm7ls65NRXGWKqedth0vms85lpXNa6RBEDZj0OkR7ly1H44ZwCRERERER0U+TgnApZk24FB0mZyby1pBDe9PosK1oGKSfzbJSuLaxt60Ey0XL6nnb4ZJBey91dHSEQxB1KKKGe3bgt5Ca74lT1/fMxbghXEJERERERPTTpCBcilkTBNgBky7XYEkDjrNnz0p7e3vYq8YOU6KWIlqWcKnw3A06UboOjdPeSzr3kj45Lnq9Fko7FIpL1/fMxbghXEJERERERPTTpCBcWiA1VDpy5Eg+XNJgQx+Nr08w6+rqCnvVmDDEdrboNsXCJV+xj7GY5VJq28nJSRkeHg7ntmppaZFUKpWfe2mhdYVD89X1PXMxbgiXEBERERER/TQpCJdiMBoAmABDwyVV3+twuKamJuns7JRMJhP2qnEFQuVoY5bNdV++aI4/jvPQ7TVYMhN7a33rk/lOnz4d9iCzh8fZ1y1Oo/uPQ9f3zMW4IVxCRERERET006QgXIpBvfE3Q+A0uNBeSvqqwdLhw4fDMidPngx7LZlgScOPmZ4MZ4ctRl1uE91mqeo6V9VVVi1VTutV63h8fDwMmPT17bffDnuOacjnCpdso9d3Lrr2O19d3zMX44ZwCRERERER0U+TgnApBvXG34RL+tkOl3SZ9pbRXjM615L2pNEwRAMQO1xyBSX2MnudC7PNUtV1rqqrrFqqrAmXVFPPOhRRe46dOnUqvB7Frl+cIY6vxg3hEiIiIiIiop8mBeFSDEbDCQ2WdLl+1vcaaFy8eDF8cpn2otEgRHsuqSYUcYUkxXThKrccNHUWDepMqGTe68TeOjTu/PnzYe8lc+1MLybCpblDuISIiIiIiOinSUG4FIPRcMJWe8noE+KuXr0aTixt5lrSwMOES4odiGhAAuVhh0n6akInW10+ODgoN2/elObm5nBib71uGiyZ+bH02mlPM71m9rWdq9F2EIeu75mLcUO4hIiIiIiI6KdJQbgUg64gQNXAQofIXbhwQa5fvy79/f3hHEB2kKTvFROCmIAEyiNaby51nT41rre3Nwz5tCeZXrdouGTCQfvaztVoW4hD1/fMxbghXEJERERERPTTpCBcikFXEGDCCh2Cpb1ldM4f7T1jeivZgYgSDUSgPKL1Vkyd60rrX+e90vmv9LoRLsUD4RIiIiIiIqKfJgXhUsxqCGCCClWfEqe9ZQYGBmRkZCQ/7M3W1esGZoepRzu0s9UeY6Ojo+G8Vw0NDeG10nBJNdctzhDH3l9cur5nLsYN4RIiIiIiIqKfJgXhUsxqCGCHS/X19eGQOA02zHxLduihn13zBcHsMHWpPcOKBXi6XOe9OnfuXD5YMuFS3EaDoTh0fc9cjBvCJURERERERD9NCsKlmNUQwARL+l6HYGlvGe05Yz8dLhp6mOUwN0xdusIlu8513iudA0snWjdD4pabcUO4hIiIiIiI6KdJQbgUk6YXjAZK5qljGl40NjaG8y2ZAMloBx+ES/PHVZdmmf1ZhydeunQpHK6oAZPrWla6cUO4hIiIiIiI6KdJQbgUk9FwSZfpk+LOnz8fDsUqFnbo+2ggokJ52HWmuurX/pxOp+Xy5cthjzKdbD16HeNS20Hcur5nLsYN4RIiIiIiIqKfJgXhUkyauXs0BDh8+HD4Wedbampqkr6+vqJhh/kcXQ7lYerLpateM5mMtLa2ytmzZyWVSk27jnEZDYbi0PU9czFuCJcQERERERH9NCkIl2JW51rScEmHXJ05c0ZaWlrCeX5KBR7RdfoeyiNah0a7nk2dqkNDQ9Le3i4XL16UU6dOOa9hHLrCofnq+p65GDeES4iIiIiIiH6aFIRLMWvCJR0Sp71jrl69Gs7zEw077MBDsQMRswxmxtShXZ/ms2ueKw2XNAxpbm4Oh8a5rmEcusKh+er6nrkYN4RLiIiIiIiIfpoUhEsxqgGACZd0Ph+db+natWthuKRBhyvsUBUTiJjlUB7RejOf7fq2lw0PD8vNmzflypUr0tDQ4LyOcRgNhuLQ9T1zMW4IlxAREREREf00KQiXYlQDAA2XdEJvfRqZDr1qa2sLwyXziHw7BDEqJgAx66E8ovVmPpcKl/TpfTrvkj7Jz752cYY49v7i0vU9czFuCJcQERERERH9NCkIl2JUAwATLulk0Rou6fw+drhkAhBbRV/tkATKw9ShqTfzvlS41N3dHfYo02GL9rWLO8Tx1bghXEJERERERPTTpCBcilETTmjApOGSPinOFS65MMGIEcojWm9qqXBpZGREenp6wuty7ty5gqf8LUS4pPufr679zse4IVxCRERERET006QgXIpZO1wyPZfS6XRB0GGwwxDz3gjlEa03VevTGF1mwiUdrqg9l0x4s1Dhko/GDeESIiIiIiKinyYF4VLM2uHShQsXwhBDwyU76DCY0MMOnqJloDR2nRlNkBStU/2cVLhk7y8uXd8zF+OGcAkREREREdFPk4JwKWY1BHCFS3bIYauBhwmXomEIzt6Z6lHDJXvOJcKl+UO4hIiIiIiI6KdJQbgUsxoCaLikT4vTOX00xLDDJRN+2LqWm/JYvlpvrl5gdr1quGSeFqfh0rFjxwquW1whjgmE4tT1PXMxbgiXEBERERER/TQpCJdiVkMADSlOnDgRhhdXr16dFi5FeyopZrkrHMGZNfUZrT+z3CzTcKmzszO8Lnp96urqCq5bnCGOr8YN4RIiIiIiIqKfJgXh0gKoAYWGSw0NDXL58uXwaXEm6HAFSIodhJjlODtN/UXr0P48PDwsHR0d4XVpbGwMwyUdGqfXzOi6ppVk3BAuISIiIiIi+mlSEC4tkBounT59Wi5duiR9fX35kMOESybsUBX7M87daLAUVcMlDUP0upw5cyYfLuk1I1yaG4RLiIiIiIiIfpoUhEsxq0GFevz48fyk3r29vWGwUSxcwuQcGhqS9vb28LqcOnUqnHPJhEvLxbghXEJERERERPTTpCBcilkNKjSw0B4xqs7ro08n02BDw6XJyclp4dJMvW0wPgcHB8PJvHVInIZ/yy1YUuOGcAkREREREdFPk4JwKQbt4VQmXDI9YnTolT6dTIMNDZVMuGQCJdObiYBp4bTRydV1viUdsqhDF6PXkGFxs4dwCRERERER0U+TgnApBqPBhOkNo5916NXNmzfDAMmWcGlh1fo0dWqjk6vrfEvaa0l7ltnXzmhf20o0bgiXEBERERER/TQpCJdiUAMJfYy9/Sh7fT1y5EgYYujN98TEREGvJWM0bMJ4NPUbXa6Tq+t8S/ZT4uxrZ65fJRs3hEuIiIiIiIh+mhSESzHoCihUDZdOnjwpbW1t4VPKxsfHCZcS0tSv+ax1rAGfzn917ty5cNhi9NqZ6xe9vpVm3BAuISIiIiIi+mlSEC7FoCugMO91Xp8rV65If3+/jIyMhCGHHX4QLiWjBktjY2PhEMWGhob8dSNcmj+ES4iIiIiIiH6aFIRLMegKKUxQoeGSzvHT2dkZPqlMh8Zp2GHCJaMJQeLE7NNX48C136havxosZTIZaW9vDyfzNtcseu30vesaV5JxQ7iEiIiIiIjop0lBuBSzJqgwIYWGS+fPnw+Hxul8PyZcMqGHHYKocRLdt2/GgWu/UbVnmA5L7O3tlatXr0p9fX0+VDLXzNa+npVo3BAuISIiIiIi+mlSEC7FrIYTJlzSCaM1XGpsbJSWlhbp6uqSW7duOUMljEdX3Wqgl06npaOjI+xFpvNgmRDJfrKf0b6elWjcEC4hIiIiIiL6aVIQLsWkhhT208f0VT8fP3487Cmjk0hfv3497EGjYQcB08IYrVfttaSBXk9Pj7S2tobXQa+JCZEIl+YP4RIiIiIiIqKfJgXhUkyacEnf2+GSPpXMBEw6sbf2oDFPjbNDEIxHDZfsgEmDPDORd1NTUzjfUl1dXT5Esp8aR7g0NwiXEBERERER/TQpCJdi0oRLGk4cOXIkDJjs5Row6ZAsnfdndHS0YGJvnhYXj1qHWq8muNPP+pQ4fUqf9ho7e/ZsOExRr4d9ffSVcGnuEC4hIiIiIiL6aVIQLsWsHS6ZsMIEGRcuXAjnXRoaGgpDj2ggQsA0P7UOtV7tcEmHxGl965C4U6dO5QNAu3eZuW5G+3pWonFDuISIiIiIiOinSUG4FLMaTrjCJX3Vib31Ufj9/f3h0DgNPzQIMdrhUrmY8pVsKexy0aBO32uvJX1KX3NzcziRt7lGxuhns6ySjRvCJURERERERD9NCsKlGDXhRDRcMoGF9pzReX/0qWU6sbcGIFHLCVRs7HClUi2FXS5alxrgaZCngd758+fDoYnFrln0WlWycUO4hIiIiIiI6KdJQbgUg3YwoaFSNFzSMjr8SnvOnDlzRq5evSoDAwPhkC3tZaPY4YgdmCwH7UDItb4c7W31vem1pBN561xXWu86kbe5FstxOJwxbgiXEBERERER/TQpCJdi0A4oouGSXU7DDQ2YLl68GIYemUwm7F2jaCDiGh43V3UfcexnITXHaOsqN5PRbTVY0ifEaYDX1tYm586dC5/WZ+Zbsq/JcjRuCJcQERERERH9NCkIl2IwGiwdPnw4fK/roj1k9L32otEJpru7u8PhcYqGShqKmDmD7PDEaIcw0UAlWi7OoCpu7eOP6ipfSt0meq7aI0yDO508vaWlJRyOqEPizDUy18H0YDLqsuVg3BAuISIiIiIi+mlSEC7FoAmONLgwAZMJMMx6s07fp1KpsPeS9qrR3jV2QGIHJa6wxSwvtl6JlouW8UH7+FzHaWMvj+raXofDaXB37do1OXv2bNhjTMMjc52Mem2OHTtGuDRPCJcQERERERH9NCkIl2IwGloYzXoTOJnhchp2nD59OpzcW0MQ01vJhCR2wGQHKeWouJb7pjnXYudo41pfysHBwXAS7wsXLoRBngn1XNeHcGn+EC4hIiIiIiL6aVIQLsWgK7Sw15lwyYQcGmicOHFCGhoa5Pr162FPGx3KZYIWfS3VeylqsXK+4jrmKGb5bNQ6m5iYkJ6eHmlubg4DPK1re5iifb30/XILltS4IVxCRERERET006QgXIpBE1aoGlSY3jD62QRLZqicrtOeS/qqk3vrk8x0cm/tbaPBiAlKTPgS1Q5T7LKuMMpX7GMvdqxmuTkn+7xc6nqdxNv0WmpsbMzPs3To0KF83av2NYtey+Vg3BAuISIiIiIi+mlSEC7FoB1UaKhk5vjRYEl7zZhwSZdpjyUNPcy2Orm39rLRyac1HHGFJmaYnAmQomWi62cKYnzRxrXenEs556TBnE7irUGdBnZaz6b+NVzSutbrYq6Nfd2immtTqcYN4RIiIiIiIqKfJgXhUgxGgwnTa0kDJRMuadChyzVY0oDDlNfPOnxLnx7X19cXBkw6B5MJTTRU0dDIfpJcNGwxn22XQtBkYy+3z2Omc9Dz1CGFQ0ND0tnZKZcvXw6HG2oPJRPqqXpdTM8lvQ6lAiZzXSvVuCFcQkRERERE9NOkIFyKQVc4Yfea0XBDl2ugYYbE6WctY8rr5NN6k67DujQsMeGJBisaoGjPHNWETMUCF1N+pnI+aGOW6fGaczCWOgetk+HhYent7Q2fDqfD4XS4odarCfVMHZtQyYRMrmtnylaycUO4hIiIiIiI6KdJQbgUg9FwQgMN1fSacQUWppyu1xBKey/p8LiOjo58wGTCIRO2mMBoptAlWtZVxgdtzDL7fM17exujOUedDF0n8G5rawsDOh0OZwdH0frWVxMw6at+jmq2qVTjhnAJERERERHRT5OCcClmXaGSCTP0sxkmZ9bpe+3dpD2aNGBqaWkJh3fpMC8dImcClqgarhijwYu9Xt9H1/uijVlmn6Nd1lbXaY+l8fFxGRgYCIOl8+fPS319/bQAyYRIutz0Iouu0+ug2xjNtaxU44ZwCRERERER0U+TgnApZjXE0ABJX/WzCTLMPEsHDx4M15sAxIQeWlbL6LAunX9Je+PoBNUaokQDJA1XdJnpmWQHMYpZvxTDpZnUc9I6GR0dDQM4nQhdJ/DWYEnrWetS61Tfm/mttJ41VDJ1r3VtwiVVPxMuzR3CJURERERERD9NCsKlmNVgw/RMsnvIqLpMww87XNJX3caEGjpfkPbC0YBJn3ymQ+S0B5OGKnbIoqFRsXDJrPc5WFJtXOtt9Vz0XLUuNHTTyc+1h9fVq1fDQM6Ed3a4pMv01Q7x7Lo3Zcx1MEavaaUZN4RLiIiIiIiIfpoUhEsxasIJExaZUMkEHLpMww07fDLqZ12u+9F5gzQwuXLlStgzR8MUDZIMdthiNEFSJaLnpeeo81BpXWivruvXr4f1c+7cubC+tO5UEx6Z4MjUvR0u6XutZ12nvZtM/Rvta1qJxg3hEiIiIiIiop8mBeFSDGogoYGFCZWi62zN8mh5e72GHtqD6ezZs2GAoj2Y0ul0OBRMh4SZcKmUWqZS1GBN51fSp8KZybubmprkzJkzYbAUDYfsujThnV3HRl1Oz6X5Q7iEiIiIiIjop0lBuBSDGhJFe81El6u6zPSm0XV2LxpbEzpFAyadvFoDpmiAZD5r7x7XUDnfNMdrdJVRzXoN1PSpcHr+b7/9djjHkk5+rqGQ1q8JhEyQpJ9NTyZdrvVtNOtNvZtrpcuM+rmSjRvCJURERERERD9NikUJl8q5ibdv9qO6yi+mekwmzND3JrDQzyZYMuGSDsPS9Xa4FD0nsy8NQswQOX2KnA4F07mGNGDSIWJ2iKSv+tlYKrTxQRMc2UbXa1Cm56kTd2uPJTtY0pBO68/MsaT1pvVl1725Hma53UvJ3kZfdZlRP1eycUO4hIiIiIiI6KdJQbgUg3pMGlbYQZG9TEMOs07DDDvgMMtto8s1kDp16pRcuHAhHBKmQYtO9B0NmKKhjR3W+Gqx49XPZvJunbj78uXLYS+uVCpVUEd2PdnXxF5nL1fN9q51y8G4IVxCRERERET006QgXIpB1zHORTsoMZ9N7yb9nmJPktNhYyZkUuyQRvUN+9jscEnV8zBzLOkwOBMs2cPgDhw4EL4Wq//ZXBdTdjkZN4RLiIiIiIiIfpoUhEsxWOoYXeuKqSFSsR41GqzosK76+vpwmJwOD9NeTPo0OQ2ZzGTfih3eqL5RLFTSnlh6HiZU0hDNTNytvbfsOtI60aFuZhicqTe77sxnl6bMcjRuCJcQERERERH9NCkIl2JQj6lUMGSvt8tFtdfpdhqcaKhi5grSZaaMLtOhchoydXR0hIGM9mJSlkK4ZHooabCkn82k3f39/WFopj20dAicnrP2UtIeXKa3kp671ovOR6XvTb2YetTPqvkc1ay3nWl9JRk3hEuIiIiIiIh+mhSESzGoxxQNhoqtL1bOVUaXa8BkgiVTTl81WNEePc3NzflwyTxJztdQyaDHZnorRcMlnbDcFS6pdp0YzfxVRlNPxmi9RsuYui21j0ozbgiXEBERERER/TQpCJdi0ByXK7wwy01AYockqoYbdsCh67SXjumpY/ZtypveTDoHkQYwV69eDYeQpdPpMFyyAxtfMeGSHYTZPZfa29vl4sWL+afC2eGa0dSVqXNTR6Y+o3Vqa9enXc7eTyUbN4RLiIiIiIiIfpoUhEsx6DpGWw00TKjkCjeiQYiWtcMlXa8hi07orYGLPjVNh8PpnETaa0l7++jj+nVY3FIJl6LqEDkNxzQks+db0vmldPif9mIyw+C0PrRetH5MvZo6NfVpNHVq170pazTLXOsq0bghXEJERERERPTTpCBcikHXMRaz2LZ2AGJCEA1HtKeSBisNDQ1y4cKFsKeS3sx3d3eHQ+FMqKSTYdtPjdPAxleiwZKqx20m9NZz0nPTc9RzvXbtWjj8T3tq6VBADZm0brSe7IDJ1JurnqOaci5d5SvJuCFcQkRERERE9NOkIFyKQdcxGk0ZuzeNarYzoYgJSXSZrtehb9pTSZ8Opz2VNFzR4WK9vb1hAKNBjD2sTNXPSyFcMriO3daETaY3k87FZJ4ep3WjwZupQ1N/JmgydW/q256jqdg1M9eq0o0bwiVEREREREQ/TQrCpRh0HaOq6+xgww437EDEhCG6zkzUrb2UdOjblStX5Pr16/meSjovkemhZIczJqCxAyffcR27rZ6jnqsGTJlMJhz+p8MAdcic1k20J5OrXu1roEPqSgVMumw5GDeES4iIiIiIiH6aFIRLMVjsGO1QQ3siRecLOnToUDi3koYgutxM1K3BifbS0Zv2np4eGRwcDIe+RYe9zaTvRI/XhErRZSZk0jrQutA60ZBJ60jrSocMat1pHZpwyUyKrnVtroO5BsUCJvuaVrJxQ7iEiIiIiIjop0lBuBSD0eMzPZF0nQk2TKBh1pveNbpMe95oqHTu3DlpaWmRt99+OwxQtKfS8PCwjI+PF/RUMiGMCZqMuk4x5Yy+ET2+cjTnq3WhdaJD5XSIoIZM2rvL7sWkdW3q2FyL6HWIXjf7ela6cUO4hIiIiIiI6KdJQbgUg9Hj00DDGF1uQiV9ryGHzqmkodLly5fDOZW6urrC4ESHv2mQok9RiwZL+lmXa2+eaG8mxZSzl/mEfXzmGI1mmSs4U82563xM2pNJh8tpEKeBnAmZ9OlyGiLZdR69FlFd17VSjRvCJURERERERD9NCsKlGDXHZ4dILrWMhh/6FDgNljQU0R44OqeQPinNhEp2qGI0wYuGSsWeEGfK2ct8wj4+W3u5npMdMOk6W7Ncz197MvX398vNmzfDp+npfFUa2ukQOL0urmug2oFT9FpWsnFDuISIiIiIiOinSUG4FLN6fK5wSZfpehMqNTY2hk8+03mDdLJu01tJAyMTLNmasMUELtHPJnRRzHqz3DfMsap6jEbXcvt99JzNMvNUOTMfk/YA06fr6VP27JApel0Il+KBcAkREREREdFPk4JwKWb1+EyIYSaVNkFGtLeSDuXS3kpmsm4NSwwmVNHwRMMmo362QxgXdhBTrIwPmHMwQdFM5+OqB4O+1+ValzpXlXmqnPZi0mFyOpm3XpvodVkKbSpu44ZwCRERERER0U+TgnApRs3xaZBk1M9m0m6dcFp7K127dq1gbiUNlkxgYkIWO3Qx4Up0va2NfjbbRdf5hDn2Yudka9eBq550mdah1qWrF5P2FDt58mTBXEzm+qiu61mpxg3hEiIiIiIiop8mBeFSDEaPzw4t7KfBmWFwGnroPEEmVLLDEfPZDlbK0abUOp+IHudc1Loy9WZCJ301IZP2DNMeYhowNTQ05AOm6HWLXtNKNm4IlxAREREREf00KbwLl+wb/mK6tputxfYZXW6vc5Wxl5neMKqGSjoUS+f80bl/Wlpa5Pr16+Hj802wZIck8w2XlqvRcMlep5+1Z5hO9q0BiD6RzzxNTq+NXiPXtSx2jV3romWKLffJuCFcQkRERERE9NOkWNbhks65Y+bd0aDBhA0mIDLrtLyui25rtrOXmW01vNDeSjrnjw6D00m7dS4g7U2jwZIJQkxPG1XfG+2QBItr6svUX3Sdhk46D5M9TO7ixYvhtdFrZK6Zuc72NTbX0iyz24huF93WDLmz15ltfTJuCJcQERERERH9NCkWJVxy3fAa9eZ8Jl3bzVbdjwYAOrGzvrdDIg0FTEBg1pn19rb2OrONWaa9YzTE0EmlNdQwT4KzAxATirh63WD5aj1Gg6WoGuhpyKTD5HRool4bvUbmeqrm+ur1M9eYcGlmCJcQERERERH9NCmWbbhkdO3f6CrvUsuaMEEfe2/mV9JeMtpjKZPJhMGShkgm7DDBknGmcASLW064pHWsAdPQ0FAY9ukQRb1GZoicuY6zue6q2cbWVc4n44ZwCRERERER0U+TYtmGS9oDRYMgVfdpHk9veptoLxQNHUxvFFvdVpebXiy6jYZL+l7nWNLQQieR1qfBmWFwrrCDcCkeywmXjBrw6TXRa6OhyKVLl8IwUK+nXkejaQPmGtvabces1+uv7Ue3s9eZ9uaTcUO4hIiIiIiI6KdJsax7Lml4YMIjDQZMQGTWmYDADh10vQkXTLCg5c0cSxosaa8YHX5lgqVo8GHCEFt7Pc7O2dShltNr4nqSnD7Vz1xvvab2NbbbgLn+doCkywmXEBERERER0SeTYlmHS3rzb8ID02vJ7F+Xm+BJQycz7E0/6zo7eND3Gk7oE+E0rNCnk+kcS9pLxg499L3ppVRuGIIzW6o+Xev0s14bvUamB9OVK1fCp/ppSKjXWduAXlfTBnSZ6Z2kn00wqWo7MOGSvU6X2+3NF+OGcAkREREREdFPk2LZz7mk6j5NeGSWmWDArHOFSyZE0Hl7tPdLR0dH2BvGNXm3CTXsIXA2djmMT61rW3u56cGkYeDNmzfl8uXLcubMmfx1tQNEEy6ppg2YAMmUsdeppi35ZtwQLiEiIiIiIvppUizbcEn3o4GBMfodUV3hgg6j0mBJh8JpOKGTRZuhcHaIZIcbRl1uY0IPnJ+mbl3LzfxWtmYOJr12XV1dYUiowxtPnjwZhkfaVqJtJNqWoppy5ZRdDOOGcAkREREREdFPk2JZh0saFJnhcPZyEyaYQKFYeQ2WLly4EM6xpE+EKxZqRHWVw/mrdauBkauOdbmGfqoGSqacYrYdHh4OgxINC7UHk/Zc0utsQkV9b3okaXswmuVmXbTt+GbcEC4hIiIiIiL6aVLQcykXAhhdwYAJDUzIoD1aUqlUGEK0t7eHQ+HGxsamBRozqYGG0bUeZ6fWox0cRdfpcqNZr5gy4+PjMjAwEIYl2oNJw0MNmEyb0DZghsKZtmHajd1OfDduCJcQERERERH9NCmYcynQ7FcDBA2PTLikYYGGCWZ4lFmnw+F0Au9r167lnwqnoYYJKcpRww078IiGITh7tR51rqvosMSopu71vWKW6zYaMOkk39obTSf41uFxpm1oezBzbZkgyawz7cXWbmM+GTeES4iIiIiIiH6aFIRLOXW/GhKYoECXRQMC/axPE9PQQZ8upnP06FAqDZaKBRkudLkJOFRXEBIH9v58NA7s/Wk9mmFvpm7t9S7tfWh53VZ7ofX09MjVq1fl3Llz+fmX7PZg3kfbpC43mmW+GTeES4iIiIiIiH6aFIRLOV371s8aNuk8S/pZQ4bGxsYwdNDwQedZMk+FKxZkuHCVM/sw+4mD6Hf4ZhzY+9O6K9VjyaXZh13/GjBpaNjb2xv2TtOASYdBamBk5twybSUaJJnP9jLfjBvCJURERERERD9NCsKlQHu/JhjQzxoi6FC4Q4cOhT1XdJJnnYtHnwyn4YMOodIwIxpYlKuNfjbhRrQcxqOrbl11r68aGo6MjIS90y5fvhyGijokTtuCPam7GTZph0mES4iIiIiIiOiDSbGsJ/RWo71QTFCgy8wcS2p9fX0YLL399tvhpM8aPpQaDqeawEIDKNOjxi5vY5c363H+mjpVi12DaFktp9dWr7HOv9TR0REGTKdPn863B20b2ka0vbjmYTLabc4X44ZwCRERERER0U+TYlmHSxoQmJBAl9nhkgYI2kNF1+kynWdJJ3nWYEnn5FHsQMIEFQY7pLA1AUe0vAk4cP4a9L25DlGLXYPoejPBtwZM58+fD9uCtgnTe8kOl8y6aLvyzbghXEJERERERPTTpFjW4ZLphWLvM/o9Os+SBktmniUdDqc9WjR4KKWGE0Y7sHDp2h7np12/pepeLbadftZrrddcnwoYnX/JbicqPZcQERERERHRJ5Ni2Q+Ls/en702vE/2sT4bTuXb0yXCdnZ35Cby1B5IdSNhGwwmXZr0derjK4dw0dWuHesXK6bV0rddlZr32XhoaGgrnX2ptbQ3DxhMnToRtxO6lZMIl340bwiVEREREREQ/TYqKCZdc5cpVtzc9UXS4k4YFOsTp1KlT4TxLGiwNDg6Gw+HM0LZoGGE0oYT57MKUc4VLcWL26asLhalbV7Bk0Pf2NbDL6Gejrp+YmAivvbaB7u7u/PxL2ka0regk32aIXKmAKdruXLq2i9u4IVxCRERERET006QgXArUQEDnzdH9mLl0dDicDoFqb28Peyxp75XoJN4mfHAFFEYXrnLGOHHt3ycXCt23CYeKfaf5HC1jrqlZru/1muu11zagQ+R0UvcLFy6Ew+O0/Zi5ubQNRYfGzbaN2uUXyrghXEJERERERPTTpPAuXJqrrhv1mTRzLplwSV/N5zNnzoQ9VHQolAYLJnSYbbiES8ti19j0WNNXnXtLh0o2NDTkey9pG9RhlPrZbo+zbaN2+YUybgiXEBERERER/TQpCJcCdXsNlDQYULVHSlNTU9hDpb+/Px8u2drBg70Ml7bRaxpVwyV9YqAGKpcuXZL6+vp8u4kGS+ps26hdfqGMG8IlREREREREP02KZR0uqRoumfcaDpinw7W1tYXBkk7krHPuaODgCiJso+tx6Rm9pvZ11fcaLunQOA2Yrl+/LufPnw/DSO35Zrcr42zbqF1+oYwbwiVEREREREQ/TYplFS4VK68Bkw5t0ieA6dPhzHC4kZGRcJ4de5iUCRlM7xazDCtL1zXW99oWtE1o29DhcVevXg3n5tJQ0jw1zm5nLu22F9VVPm7jhnAJERERERHRT5Ni2YZLthou6aTMOsRJnw6nN8v6ZDANF4x2yKCfi/VmwsrQdY1N4GTUXm03b97MPz3OTAavbcpM7O3S1TaNrvJxGzeES4iIiIiIiH6aFBUTLhnncsOuZTQU0AmadThcX1+fjI6OFoQKpcIlqCyi19hcexMumc/ag0mHTurcXDqU0gyx1DZVKlwy2m3U6CoXt3FDuISIiIiIiOinSUG4FGgm87548aJ0d3eHc+posKABgksNGOyhclBZ6DU1QZIJk2xNO9A2osPjent7wx5v2oa0LZUTLKlzaatxGDeES4iIiIiIiH6aFBUXLpWrfTOvkzHrpMz6eHkdDhedY8m2WNCAlWf0Wkevt342E3xrjzcdVnn8+PGyw6XFMm4IlxAREREREf00KZZ9uKRBwKlTp+TChQvhTbL2RLF7q0TDBNdyrFzta25fd/NZ24oOj+vs7JSmpqZw7iUNK11tzhfjhnAJERERERHRT5Ni2YdLOpRJnxDX2toaPv1LgwITHpiQKRoomM+4PIxed31vB5A6PE7nXtLeS+fPnw+fOuhqc74YN4RLiIiIiIiIfpoUyzZcUrXXkj5C/tKlS9LV1SWZTCYc5hQNEIqFDLg8jF53fW+3DX2vQ+N07iV9cpz2hLPnXzK62uBiGDeES4iIiIiIiH6aFMs2XNKbf50f58yZM3Lt2rXwsfK3bt2aFiLYnxFV0y7stqG9l8bGxsInx507dy7svaTD4wiXEBERERERcbFMimUVLtk3+nrjrxMw61xLHR0d04KlmYyGC3EbB679+mQcuPYbhzNd3+g6U16fNqhPjtO5l8zk3kZXm1wM44ZwCRERERER0U+TYtmGSzocTnuY6FxLOpyp1BPiomq56JC5uI0D1359Mg5c+43Dma6xLnetGxgYkPb29jC01PDSbnOuNrkYxg3hEiIiIiIiop8mxbINl3ReHJ0fx8y1NFNQZND30eABKotS11jfm/VGs0zRuZd0YvirV6+GQy7tNmd0tc0kjRvCJURERERERD9NimUbLumNv/YwGRwcDOfKMQGBCQ40WNDeTPrqWmcHD1h5Rq+zfa11mc6xFO3tpujTBnX+Lg1czp49W9DmjK62maRxQ7iEiIiIiIjop0mxbMOlxsZG6ezsDMMA84Q4owYGukznYbLX2YGDCR3s7bByNNdar79qX2/9rO1GAya7DShaTpfrUMvz588XtDmjq20madwQLiEiIiIiIvppUixKuHT06NFQ142v0ZRxOVP5Ust1Iu9UKiWXLl2S/v7+MBwwAYHBBAgaEmhYYMIDEzgY7WABK8votbavt77X4NGESzZmW+0Rp8Muta3pxN7ltFF72UIaN4RLiIiIiIiIfpoUFRsumR4ib775phw5ciRU35snxOkj43X4kh0oGExAYAcKuDzV62+0l9ltw8aUGRkZCZ9C2NTUFM7vpe3Sbod2G7XbbRLGDeESIiIiIiKinybFkg2XZvp87Nix8FVv5A8fPpy/sdfhcOYJcTrXEsBCoMPmtGdcW1tb+FRCbZfaDk1bNG1UAya73Rpdy+IybgiXEBERERER/TQplly45FofXWY+m2UaMJl1Og/O9evXJZ1OhwEAwEKgw+a0jWnwcvHixTBE0nZo2qK2zVI9l1zL4jJuCJcQERERERH9NCmWdLhk36gX284s1xt5VYcp6UTeOiRO58wBWAh0zq7h4WHp7u6W5ubmcN4lEyZFLdWG7eVxGTeES4iIiIiIiH6aFBUbLpl1ekOvw4/05v7kyZNy9erVcLiS9lrSeXMAFgJtW9rGtPfStWvXwnmXtA2aoXDaVk0bdbVhV9uOy7ghXEJERERERPTTpKjIcEmX67w2+l5v5PWmXifyPnPmTDgkTnuUuCZjBogLbVsaMI2OjoYTe589ezZsgyZg0rZpJvcu1oajy+MybgiXEBERERER/TQpKj5c0hv5EydOhMGSPiVOh8QxkTcsNOapcTr3kg6N0+GYDQ0NYe85wiVERERERERMwqRYcuGSGl0f3UZvzM3NufZc0nBJn9h15cqV8ClxTOQNC40Jl3ReLx2GqU8o1MnkNVzSNhltp6qr7ZtlcRo3hEuIiIiIiIh+mhRLMlxSi5WN3qybcEmf2KU3wToHDhN5Q1LoxN6Dg4Ph0LhLly5JKpXKz7nkarOm3bratr18PsYN4RIiIiIiIqKfJkXFhEumF4i5UdflehNvwqWWlpaw15LOt6Q3/ABJoPMujYyMhG1Pe87pvEumXUbbrt22owGUWR6HcUO4hIiIiIiI6KdJsaTDJXMDbm7OdQ4beyJvs17DJX1KXCaTCedb4ilxkBQ6cbwOw9TeS/rUOA2XTNvVuZfs9msCJrttR9t8HMYN4RIiIiIiIqKfJsWSCpeK3YDrMhMsmXBJb9zr6urCV72hb29vD4MlHRJnnhSnAiwEpn1pW9M2p0+Ne/vtt8OJ5e22adpvtG2bdabtm+VxGDeES4iIiIiIiH6aFEsyXFK1jCtcMuv05l0f+64TKOtTunTOGx0Op72WCJdgoTHBkqptTgMmfVKhTiyvbVLbprZRbcN2uzbt1w6XdJm+6uc4jBvCJURERERERD9NiooJl6Lr9OZch8OdOnUqfEqXPg7eBEq2AAuBti0TLhl13qWmpqawTWrARLiEiIiIiIiIC2lSVMSE3vaNuVmnN+36ZK6zZ8/K5cuXpa+vb1qwpAIsBNq27GBJPw8MDEhra2vYe8lM7O1q66b9Rtfp5ziMG8IlREREREREP02KJRkulSpnr9MbeH38+/Xr18MJlRU7WFIBFgJtW3awpA4NDYVBTHNzs5w+fbqgrUY14dJCGDeES4iIiIiIiH6aFEsuXCpWJrpcezHp8CN9/HtXV5cMDw/nb/JtARYC077scGlkZER6enrCp8bpxN6lhrsVWx6HcUO4hIiIiIiI6KdJsSTDJdOrI3pzrstVXXb48OEwXGprawuHI+nTusxNvi3AQuBqa/q0wnQ6HT41TieZ1zaqbdhuu/pe269p2/byuIwbwiVEREREREQ/TQrvwiWzrphaxtxsF+v5ocv0yXHaO0SfEqfDkcbHx503/IhJeevWrbAHnfak07nAouGS3X7ttk24hIiIiIiIiHMxKZZkuGQ0N+DF1Bt4vZHXHiP6KHjXDT9iUk5OToZtUZ8ad+HChYK2arfrYsvjMm4IlxAREREREf00KRYlXHLd8BrtG2uX5ZTVddrbQ2/g9UZee4zojb3rhh8xKW/fvh2GnDpMUyeaNz2Som13oY0bwiVEREREREQ/TYqKC5d0ud6019XVSVNTk/T19YU39Hpj77rhR0xKndxbQ059cmFLS0vYRo8dO1bQppMwbgiXEBERERER/TQpKipc0mUmWDpx4kT4yHftJaI39IRLuNhquKTtMJPJhE8xPHnypBw/fjz2OZVmMm4IlxAREREREf00KSoyXNJgSZ8Upzfw2ktEb+jtR8IjLpbaDnVS72vXrsnp06fDgEl7L2m7TSpkihvCJURERERERD9NiooLl/RGPZVKSWNjo7S1tYVPiiNYQl/UtjgyMiLXr18PJ5zXEFR72hEuISIiIiIiYtwmxZIOl6Ll9bPeqOsN+/nz58MbeO0lYm7sFfsmn9AJF0rTvlxtbHR0VDo6OsIJ58+cOZMfGmeHSwsZNMUN4RIiIiIiIqKfJkVFhEtvvvlmfp2GS3rDrk/j0ht47SVibuoVfS11448Yh6Xa2Pj4uHR2doZzgmkPO9e8S4RLiIiIiIiIOF+TomLCJVU/a7jU0NAgly9flq6uLhkbG8t9a5aZbvwR49DVxgy3bt2Snp6ecE6wc+fOES4hIiIiIiLigpgUFRUu6Xudc0l7g7S2tkpvb2/YS8Sm2I0/Ypy62phBw6W+vr5wTjAdGqfhkt329T3hEiIiIiIiIs7XpKiIcOnIkSOh+l7DJZ0oub29Xfr7+53hkn3zbz4jxmmpcGliYkIGBgbCOcEuXrwYhkvadu0eeBouLVTAFDeES4iIiIiIiH6aFBUVLumNuYZLOpm33vCm0+mwl4h9c2/e+24cuPbrk3Hg2q8PusIlo4ZLg4ODcvPmzXBuMFe4pO3YbuOutj9X44ZwCRERERER0U+TYsmFS2q0vAZLhw8fDm/MtbeHDjXSCZMzmUwYLpkbfCV6o++rceDar0/GgWu/PlgqXJqcnJShoSHp7u6WlpaWMFwywVI0XCrW7udj3BAuISIiIiIi+mlSLOlwSYMk/WzCJX3VZTrUSG/c9QbeDpcQfVDDJX2Koc67pBPPEy4hIiIiIiLiQpgUSzJcUrWsHS6ZYXG6rKmpKbxxHx0dDYcgFetBgrgYarikTzHUYZtXr16VEydOhO24WLiky0ybj8O4IVxCRERERET006RY8uGSvtrhkt6U6zw2OmGyTuatN/KES7hY2phlt2/fDnvU6bDNa9euycmTJ8M2bYdLdXV14atZZtp8HMYN4RIiIiIiIqKfJsWSCpfMjba5ATfhkn62w6Xm5uZwwmS9gSdcwsXUxizTcEl71A0PD0tbW1tBuKSv2q4JlxAREREREXG+JkXFhEvmBlxvynWSZO0VojfweiNPuISLpY1Zpm1RQ08dttne3i6pVKqg7UfDJQ1Odbl+jsO4IVxCRERERET006SoyHBJJ0nWybyXcrgUB679+mQcuPbrkzZmmR0uXb9+nXAJERERERERF8SkWJRwCQAqB8IlREREREREP00KwiUAmBeES4iIiIiIiH6aFIRLADAvCJcQERERERH9NCkIlwBgXhAuISIiIiIi+mlSEC4BwLwgXEJERERERPTTpCBcAoB5QbiEiIiIiIjop0lBuAQA84JwCRERERER0U+TgnAJAOYF4RIiIiIiIqKfJgXhEgDMC8IlREREREREP00KwiUAmBeES4iIiIiIiH6aFIRLADAvCJcQERERERH9NCkIlwBgXhAuISIiIiIi+mlSEC4BwLwgXEJERERERPTTpCBcAoB5QbiEiIiIiIjop0lBuAQA84JwCRERERER0U+TgnAJAOYF4RIiIiIiIqKfJgXhEgDMC8IlREREREREP00KwiUAmBeES4iIiIiIiH6aFIRLADAvCJcQERERERH9NCkIlwBgXhAuISIiIiIi+mlSLEq4pDej6XQaEbEs9TcDAAAAAAAA/GTRwiUAgHLhNwMAAAAAAMBfCJcAwHv4zQAAAAAAAPAXwiUA8B5+MwAAAAAAAPyFcAkAvIffDAAAAAAAAH8hXAIA7+E3AwAAAAAAwF8IlwDAe/jNAAAAAAAA8BfCJQDwHn4zAAAAAAAA/IVwCQC8h98MAAAAAAAAfyFcAgDv4TcDAAAAAADAXwiXAMB7+M0AAAAAAADwF8IlAPAefjMAAAAAAAD8hXAJALyH3wwAAAAAAAB/IVwCAO/hNwMAAAAAAMBfCJcAwHv4zQAAAAAAAPAXwiUA8B5+MwAAwHcONA3LH3+/XT7+7BVcILV+tZ4BAMA/CJcAwHv4zQAAAN8hWEpGrWcAAPAPwiUA8B5+MwAAwHdcQQgujAAA4B+ESwDgPfxmAACA77hCEFwYAQDAPwiXAMB7+M0AAADfcYUguDACAIB/EC4BgPfwmwEAAL7jCkFwYQQAAP+ozHCpbbPInj8TqasWOV0TfOGAyO3cOsNIq8j5V7NlDt8v8mZQbj40VsmKFStCN9SO5xYWMl67IV+mqjG3LFUld69YKWtrerIL5kqmSWqq1smqu7P7v3vVI7LhjUaZ514BvIBwCQAAfMcVguDCCAAA/lGZ4dLp+0V2/ouIfyCSOiPSe0hk36861j+T23iOWOHSig21Mj1eGpfaDbn1drjUWC2r5hsu9dTIujBUulvWPF4l1dVV8viau8PvWbm2hoAJljyESwAA4DuuEAQXRgAA8I9lFC4F7ntV5PIz7nUxhUsrV64MXjfItM5L47WyIb9+KlyaPxpa6T7vlapUJrdMMctXyoaUuycVwKwYb5V9P9osLx/pzC1IDsIlAADwHVcIggsjAAD4B+FS3njCpbVVVbI2eH38oB30iGQOPh6sXytVVWsLwyWz3fap/kU9qa2yblW259GKu1fJuq2p4r2PMgflcS23+g1pzS3Kk8oFXtXZL2us0t5Na8X6qtyyqeMxZV6ueVke0d5QZkVPSrauWyV363etuFtWrdsqqchB3aityh/3ynvWyIbtTVJYC+PSun2DrLknG7Bly7Q6enmBn4xI0/atsnlz8gET4RIAAPiOKwTBhREAAPyDcClvTOHS9kbZvnaFrHj8oBWsZOTg48GytdulcXvpcCk7TG6FrFxTLTWpWnnjqdWyMvi8qrrRHcLkts+HQCUoP1zKeveq1bL65WDFeKNUrwqWrVwj1TUpqX3jKVm9Mvi8qloacwd1IzgvPc67H9kg1dXVsuGRbMhkH3dPTbbMqqfekNpUjWwNy8Qw3xQkyIA0/jwbMP2kNrmAiXAJAAB8xxWC4MIIAAD+QbiUN65wqUcyNeuC949LvvNSrnfRupqM9MwQLjVWa6+eNfJGvopuyPZ1q2X16pfFGR8tSLi0Mjge6xo1Voeh0Jqpg5Ib29cFx7RaNHuS8ZRs0LDp3q3SlF0dEBy3hmwr1klw2gE9UhN+3iCpcH1AsF11sI/VTx1kXqglRfIBE+ESAAD4jisEwYURAAD8g3Apbzzh0uo3WkUyNbIueG+GxmWHxGVDlqat94blioVLWjbbA2ir1DTdkMxMY8YWJFwqLBOGYxoe3f2IbK1pkhvRg8qFT/dunYqWFBOkmafnNW1dFXxeKaufekNSrT0Mh1vCjLTukx9t3iybt+6T9tyyhYRwCQAAfMcVguDCCAAA/kG4lDeecCkb8mSkZl3wfl1N8C73PjdMLhrmmO2m5lzKzUsUPv1NXSn3rJ0+v1GeJMKlgPHW7bIh9wQ6deU9a2WrOahp55AjN+fT1PIeSW1dK/doUBXu525Zs2G7tJIyLSlG2g/Ky2Gw9AtpGsktXGAIlwAAwHdcIQgujAAA4B+ES3njDJes3kqthb2YZg6XphjvaZXal9eFczCtWPOGOGut1ITejVvDoWtrXs72KJpPuJRnvEdaa1+WdToHkxm+N0PPpejk5hqgZW40yvaqNeF2Kzek6MW0RJi8cSQXLG1PLFhSCJcAAMB3XCEILowAAOAflRkudR8SqasWOXy/SM2/mwqQpoVLHxPZ82fZsqfP5DaeI9EeRLnQZ82aNcHyDZIbGTYtzDHbZcOlG1LzuM6vtNWaX6knN3dRlXvOpXCycJ2n6V6pStkRzbjUbtDlK2VDbnn2u1eLjtzLEpR5qvB4XOHSjZrHw5Bqq3UABXNHmTmXVpWYc0knBdf5lR6vseZXapSqYB860XmxLAs8YqRR3liEYEkhXAIAAN9xhSC4MAIAgH9UZrgUZWJMpPVVkboakevB64ngdSBYFifRcCkMdzRcCdxQm++ZUzpckqknqq17WWpSKanJ9VxaWfD0uQg3amRdOIzublnzeJVUV1fJ47khbCvXToU5mYNPZXsKrX5cqvSJbmvvCT/bx+PsudRTI2vD8GidvFyTklRNrufSyqlJy2d+Wty4NFZn51xaU7VdalO1+Z5LqyI9nsBfBlrOS3vCwZJCuBSlX640XAn+t9IZlUvbnpMnn3hCnnjiSVm/8TnZtO1S8d/CAuZbR+flpSeek0PduY+wBOiWuq0bs+3lpfO5ZUuM7jrZuvHJoL0/IUv1FAzdh56TJ547FFwVD+m/Ig1X4v8FdYUgSfvYmfHcb+RtOXXAXaYSBAAA/1ge4VISTAuXRMZrN4Rhiuk5pMwULik3aqtk3arc/EZ3r5J1VTUzz0uUaZLtG9bk5zO6e9UjsmF7U+QmLCONL5s5j7LzHdUGn+3jcYZLyo1aqVq3Su7WYwq2XbWuSmoiB2Uf98p71ri//43HZc092qMqW+bxl1P0WoIZWX7h0qi0HdoqzzypoUrgk8/Iph1WqNJ/VKqfWC/b2nKfK5VLrwTnXy01HRMiE6NyZccz5d+stm2T9cG2R+d8/0i4tNTI1G2SJ9a/JA2ZCZmYCNrMkiMjdZuekPUvNUgmOP4leQoWPodL/Uerg7ayTeL+CXWFIOWbkWu5/eSZvC3XrqblMWd5l2lpDjbLtA/Ioz+6Lp/b4ipTGQIAgH8QLgGA9yy334zuQ3rjs1XqO0YluMWU0f4rsqM6uOl85VLwafnQr/Vg3Zwme7NKuLTUCNvHku7u0y2Hnlv6PZYMXvdcWiBcIUj5ZsOla+dyn3/UIVVnxsL/U6H3alekbDF1H5XdY8kIAAD+QbgEAN6zvH4z+uVQ9RPyTE3kluzS67L+iZekQd93H5LnigYf2VCkpuFofnjNk89tk0ujudVK5pLs2JQbPvTkxrBXlL06T0Z7SBV+z0T9VnnimR3Skfs8emmHbDLfs3GrHNVeRi7CY35Jag5tCr/X3EAX2/78S7leWzmfCw7CdbPaXf+SPJfr4RWep+neNa2O+qXh9WpZH5Z9UtZXR+rEHoIX1MnWQ9tkS8H2E9JRZ3/XS1LvrP8cOrzpmex5ac+zrUc78sHg9BBEr1mJUKG/QV6vXp87tvVSvc1cr4wcDdqK1k2eiXrZ+sQzsiO8QIU94J58ZqvUWUWzx1FXeN52gdz2G/Pn/Lo0FPQE65b6l6aGLT5XdMhitk1uO7ptqv427ZC2gvovXb/aHp7bdkhe17biCCyi7SXfvtoOFV4Hc35ltO1MQdvcJDusBpOtuxo5tEnXvxScYZTcOR96Pay//DUaLfy3N9Uusm1g6hyy+yz2PUXbfcDopW1SvT533OurZZu9coZ2Xk7bLPXdNuG+7GtVtB1Px5x3fphjcKwv1duNr3Tbnn6eO4J/F1PnUXhs2WtV6jezaDuK4ApByjcSLuV8rStYmB6WR3OfHzszJr2T4deJTE5I3ZHr2bIHRgv//Y2NSnWwfGdf0Ja7RuWabpNb9vGfDsq54TvZcnJHOq72yudy+//4sx2yret2fjqH8bFx2bajLbdOt03LqbTZNth335BU5XtIdchr7RNTxzEWHN+BqW2dxzJHAQDAPwiXAMB7lttvxqXX1wc3PtvkSpGbtuDOaIZwKbgBqt4RbD8hE6NtUvPcE7L+dfMf422y45kn5JnXz0uwWiYyDfLS+uBzcPMwnewwnanwYkIatmrZ3O13d01wHLlha8G67rqtsn59cANsUhSb8JiD49h6VNr6MzKqZWbYPnpzGv082vBSWF6HQQUnIleCm8n8+kgdtW0L6rS6RrLZVUYaXgo+b23I3dgHS8IhVVulvluHI/XLlR3VwY3k1PajGjys35ILvyako0bXB+Wdd8dtsi2o0+qabHAw0VETDmN8/VJ2bfbGufQN/BSF+5Lc9drakD3y8LitOplomApIMnVb8sPE8sdshSfhcQTHtbW+OxxG1l8f1OcTm6Qu1+6yPejM9kH9ap3ktx8N6zA7hEur/4psC9pZQdCVJ3t+67fWS0dw4bWs9sSz63+m+s2GR9Wy7XyHZMLGM51p9Zqpky3B+b3UkLGugwneZmjbbTvkmaDs6+d12+BmWduabpv7Z5Kvu6Nt0p/RHoZRzL/DbXK+I9feg6uk/xbz7UIDyPXB8eX/wUzvueT6npLtvuCczXFXy9GCaxrUa7/uKXdNZxEulfzuCOG+8utKt+Mo2fOulh1X+sO22R20j7D+c5dnprad/fe8SQ61BXWW//dcKlwq8ZtZsh0V4gpBytcdLv24447I8Ig8Hbx/KAyQbsup4zfkoS03pLpFj+iW7HzV3kdhzyUNdHT+peZzvfL0Nt2uR06NBaelQ+e2tMmjB4bDert27kZY/umWSZHJW7Jv13X5+I+6ZF9f9vs3hvvLbjveNyQbfxQcz460nNPPHb3Tt332urzQfjv4PCYvFDuW3PK5CAAA/kG4BADes+x+M4Kbm0NbNgY3Q0/Kxk0vyY76tvAGPs+M4dLG/E2wEt5IVR/KTm59/qXgput1yeUcWXK9ouxbSkN4k1Z9NLihUXTfUzdVesO/sSCUapMdG5+QVwp2niM85uCm1jqPmbYvvAGMfs7eiG+1dxj22qmWQ3qikTqaGDU3+Dm0Hp54JVcP2X1VmzvwkODmN7+9a72j11Ce7DWYmhMruDm+1CCXurMHEJ6HucsNKbyBL2RCRiPhRRi0mEoKbnw3WeGBrjMBiZ5zQRAT1kmufsKPwXFsrbf2nT2O7K6z16KgfoNlda/UZHuqOK5n2PPHtLMCsu2moDNe2ObM9jPX7/S2Mp1p9ToR3IgX1F3ue3IVMFPbXm/SwBxh6Jvb//S6i5JtAwWHrG1u446gFqdo2xH8O8//g8ken30K078nW6Z0u99ihZ4ZaWtokLbwJF31rMdZbrg0w3dHCPeV//c6QzuOkD2OsJ9mjmx7MG2gdNvOHmfhv037PKLHNv1ahetNW56hHdm4QpDyjYZLbfJ0vT0sri0MZ8Y7BnLr1QE5N2lv4w6X7G0eOncrDHx+nPushgFWXyZ8X62B0PDw1DxPuwZk38WBbLh0fEzGg5o4kg+zgv0dH5FrHZkw/PrcTzvl6Z/melKpJgzbm/08/fjnLgAA+AfhEgB4z3L9zZjoviJHd2zNDkF58jnZZsZpRIKTQgpvFhX7Rip8H70pDgOKIvsL1+V6s2ggkO8dkL3BCoeJRCy4NzWEx2wHWDNvX3gDGP2cvVmcvn3uPKJ1NGEPizOa49F9rZd8564Qux6n33wqV6ywoZAJubJDh+Q8Kc9t3SaHGgrDwfA8CrbLnotzVwET9nAiY75wtgfOpuwFktfX2z0qMnLFnhg+dKpOSh+Hvo8EQjZhOGfvN6d1vaaw69Jgh3cz168GEe4gb4rp5xPUwBVrOFPO/H5maNuFwZoWn+ol5vquQqafc7iNdRx58/vJfq+922LXaPp+zHd1S50G009ulE0v7ZCjV7qtf+vZbQsPu/A4Z24Tpb67kHBfVnso3Y4LcdVvd80z1rJSbbvYeU4tKzy2wjpQosdesh1ZuEKQ8s2GS4Xckd52M6F3tteQi5nCpUx7T/5zGB65yIVLH9eeTDpsbXJSrnWMyLYDVg8jDaZKDWfb0lk4LC5k6niixzIfAQDAPwiXAMB7+M3QYR/Bzc761yX8T+q4w6X+Q9Pmn5kiG17ojbbe7OeHDQV70xvhbKhRBkXCpVLbR2/wpt8QRgMhi4I6mpDzOgyuukbaTG+HMByZX7h06ZXgJjNyA2wzkWmTS0d3yNbngpvS9Vvyc8KE51Gwne4/ejOcYyJYFw4nasv3vAp7fFiFw9BDr+kVOyDJfY8OHQqHQIULCtpN6ePQ9zOES6Y9zojuK9K+wh4v5dfvnMKl8Hx1OFN/rr1n29zUfkq37Wi4ZE8wP73uokw/53CbTXWRG2+bcsOlEu0+hwbT9Ydeyc4Z9cw2uRKeim7rCl1m0yZm/m5DuC/z77WMdmzjqt+wl1duWbi+aNsudp5TywqOLVIHSsH6GdvRFK4QpHwjPZd2jUiv3JHmejNnUTZc6r3amfvsssxwKTfMziybpg65OzMsp/omw7mXMl3p7JxPM4RL4b7DYXG5QMr0XCJcAgBYFhAuAYD3LKvfjPCmO7iBi44W6a6RZwqGvhTeDE0xw41SLhQo2H2JYXFKNrx4XV7faAcA2Tlq7HlzShIes/0dM29feAMY/dyRnTtqR76bTiEFdTT9pl0a7HApuz62YXGZNmnQ3kq5j9Gy4XkUDPlx3QznmFZveuiRm/KwB85Wef31jQVDx6YFMmEbmmob2eOw92wfh2tYXL9cabgk4ei+juycRDuKVH8h09ukzmm0cZbD4px1bTHtfLStW+1Hv6cmaDP2ftxtO/t9Mw6LK6i7KNPPOZwPKzjnItMMBUxvp9O/p3S7n+i+JA2X7N5K2pvN7NNVz4XHWbptzvBvLkK4r4KAZoZ2bDH9vCekPvi9MO27dNvOPhRh+nlO1W3BsTmuVcH6MtqRwRWClG8kXHq2LTtcLR/m3JB96aBAeig/ubf60BZrsu0ywqVHL2rrmJB91tC2jwf7yPZO0lBpKOytZNY9dEbjpVuyUz+7hsXtTcu+Mz3hMU0LjwiXAACWFYRLAOA9y+s3Y0IuvRLcxD7zijR0ZOf5mOi/Ioe2aM8b+0YtcrOeZ4YbJQ0Nghuj6h1XchMxn5fXwxvGSLcRmzDwCm4EI/PFiPaUeUInhM7+P/oT3UG5jZvkqGP+lewxRwKsGbYvPO7pn8Ng4Amd9FdvIickc2WHVG98PdtLo6COMlK3RSeUrpOO0VEZ7aiXlzYG52MdT7gva0Lv868/E6yfqsfshNPZ9fpdHYc2ZecMck3oHYY91nllgu8LbvC3mF5aYa+p4DwLJg8vDBXyBPvSyYS31nXIaHDsHfUvyUa9Fo4b7ycivX/CScx1Yvj+4JyDNrSjWof1TJ1TWJ8F+4negAfHlZ80OTf5c75nVLbXT3YS5OCjTu4crN/4+pXwnAvJ7lcn9M5WX4fUBDf/64MvMmVnqt85hUtt24J9PCfbrvQHdZetZx2SVbCfYm07nNA727bCibHPv54N03KFptddlOn/DoMGHwY9Wg9hh5uJ7uC6bZRN+X8w5YRLubZarN2H/6bMOq1qnTR/fX7+r3w7LzKh90xts+R3Ryj491pWO54i3Nau/3Bi8qnjnKlt589Tf0PLmtC78FoVrC+nHeVwhSDlGw2XAl/NLuto6Qg/P1Q/LuP6dLeWbvncs7nJuCcnpW6XvY/S4dLHt6SleVJkPD0sVTop96s9ciR9Jz+v02tdGmiNyWtBY9ceTD/u0N5I4/JauH3pCb2z247Ltl0d8tgufSKd1grhEgDAcoFwCQC8Z/n9ZgQ3fUdfyj9OXB/b/dzWQ1OPbp9XuBSQuSTb8o8ED25udxR7hLyhsNeATcZ67LnOC/V64bPqp3CFSwGlto8e97TzCI6r46j1OPKNW8OnQ4VE62g0OGcdnmbKHX3F6jmjlH5E+7Tveu4lqcs+es5J4aPLs3U8lUPZ36WPZH89+K4i4VKAPlo+++j3J2Vj0A6OvrIxOwwut14JJ9OOBiRBTU09yj2o2/qa4HumAqiwPgu+tDBc0uPUx73ro/Szk8vvKHzs/ESHHN36THb/uWPLt9ECdL/PyCs1r+cfYb9xS7Rs6fqdU7gUoE8gNMf/3Ov1UrMl2o7La9tPbtwkO6yTd31XIa5wKcD+txceU4M1AXp54dK0urLbfUB/w+sF/6ZeqrcPYqZ2PlPbLP3dNtF/r+W0Y0O47ZZtcshuvwW/LaXbtvs85xgu6ecZ21EWVwhSvo5wKXDjVZ0AyTwRrk2ePjMuGV0UcluuXey2nrpWRrgU+NCOQWkeu5PbR7C+b0iqtuTWb+mWfX23w+FwIWO35MgBq3fUT9NyKm22vSO9HYPydH7bHqnLrwuOrWUsHNp37nh2PeESAEBlQ7gEAN7DbwbMmpIBHCRLkaAFPMDPa+MO1eZBwRxfC4crBMGFEQAA/INwCQC8h98MmB0TMnH+FdF5pOzZY2CxIFzyl8oMl/qPVsvG/DDMjDTohP4FvR4XBlcIggsjAAD4B+ESAHgPvxkwG8KnjD3xpGwizfAEwiV/qdSeS/3S8Hq1rM8NZVtfva1wSOcC4QpBcGEEAAD/IFwCAO/hNwMAAHzHFYLgwggAAP5BuAQA3sNvBgAA+I4rBMGFEQAA/INwCQC8h98MAADwHVcIggsjAAD4B+ESAHgPvxkAAOA7rhAEF0YAAPAPwiUA8B5+MwAAwHdcIQgujAAA4B+ESwDgPfxmAACA77hCEFwYAQDAPwiXAMB7+M0AAADfcYUguDACAIB/EC4BgPfwmwEAAL7jCkFwYQQAAP8gXAIA7+E3AwAAfMcVguDCCAAA/rFo4VJ6//8LEbEsCZcAAMB3XCEILowAAOAfi9dzaee/QEQsS8IlAADwHVcIggsjAAD4B+ESInov4RIAAPiOKwTBhREAAPyDcAkRvZdwCQAAfMcVguDCCAAA/kG4hIjeS7gEAAC+4wpBcGEEAAD/IFxCRO8lXAIAAN/54++3O4MQjFetZwAA8A/CJUT0XsIlAADwnQNNwwRMC6zWr9YzAAD4B+ESInov4RIAAAAAAIC/EC4hovcSLgEAAAAAAPgL4RIiei/hEgAAAAAAgL8QLiGi9xIuAQAAAAAA+AvhEiJ6L+ESAAAAAACAvxAuIaL3Ei4BAAAAAAD4C+ESInov4RIAAAAAAIC/EC4hovcSLgEAAAAAAPgL4RIiei/hEgAAAAAAgL8QLiGi9xIuAQAAAAAA+AvhEiJ6L+ESAAAAAACAvxAuIaL3Ei4BAAAAAAD4C+ESInov4RIAAAAAAIC/LI9w6exmkdZ7s+9bXw0+/+r0MojorYRLAAAAAAAA/rI8wqVB/dYBkd4z4ffL0A/d5ebtr4q01ohMjGW/R5loFWn7C0fZmKx7Nfc9h6zlwXHcaBK5nV0VMhF8Pmttt1D2BvWsXHesQ5yjhEsAAAAAAAD+UsHh0g+zXzaRCzsKCJZN6GuTY7t52H0z3LvImMhQsO8h8zmgd517m1lpzskKkuqCZRoi2ctacyGaMhIcx0hwvrdbRU7n1i+khEu4ABIuAQAAAAAA+EsFh0t/LDKe+8JijNc4tpujJ/4pt1MNcaxhd/byOqv8nHSESy5NwNP5B+71Cynh0jLxXpEBDWlnaIsxSbgEAAAAAADgL5UZLp19NdtbZ0bGgnJnRM7HMAeT6bU08ExkXbDvkeyqqcAlOmwtONYb1tA5E9D01kz1SjLLbML92YHTuuA1+3GKXO+sIX0f7ON87jvU1mCbfHntbRXU20Fr/ZtPBMus79UhfmbuqtDceRgmgroczJW3w6WmfwrWWUMFR4LvtQO4afXhOBb0yFywpCzYENNCCZcAAAAAAAD8pTLDpct1uW8qhzGR6zH08AnDm4ByeuyYoEjDGh0+ZwKeG7ngpiBI0gCsRuT85mB97rxuB9vceFWkQfdnh0vBebQFy4dyQc5A8P5GLuyKhkv5oXPBMj2G8dw2I/+UXZ8PqoLlg8H3d5sQ6WbuewOvm2WRfSimHs4HxxWSK2NCPz0H05PL7EfnhboRfP9Ibj8JBRc4G5MPllTCJQAAAAAAAH+p3GFx+fmPZqA3psm2yw2XDm7OFWwVOZFbZobOmSFGJlyadvNuB0kllpnt7WMpCJfMkMExkcumB9G9uWVBGZ342wR0I69O7cPsN6wza9hhm9lH8DqYC4bC7/6DYPvsx4IyZj/df5ZdFh5bsF2TrlefyAZVt8/kPqMfLk6wpBIuAQAAAAAA+Etlhkv2hNYzMiaJ9lwyx2aHNvleQq3ZoWCucCg0rnApt83tuqn1at39IqcDiw1HMz2MwsnJc/uQSABU8N1FypjeTKaXlAkCtedS2xPBcZggCr3STB4ftqNkrxHhEgAAAAAAgL9U7pxL9pPaijIWlKsLysdwo1xuuJQfSuYiF/4kFS4V7Mdha01QJtcTycYOl6L7cIVL0TIHg+tTsPzeYLvW7DKDBk1xXBeM17P/lAuYgn9fCQZMhEsAAAAAAAD+UrnD4sp5WtxM4cpsLDWhtw4Vux3YFnw2PZfG64KK0DmRbDdn5yFKKlyK9lyyNb2LbreKXP4LkdNBfXbmAqC4ei5Ne1rfR0XOBvU3mKvLUseHi+ciBEyESwAAAAAAAP5SweGSCV1yYUcBwbKwR06TY7s52lCT3bU9l5Jq5lPS5Roc1eV67eh8Qm9a5c4Hy82N+oKHSyZ4088mHLg3Nz9SsEznXDL7CIOk3D46c6FPuMzMpxTUY37eJg3SwhK577bKtFplzL7DOZes+ZXyw/GC/YfDBGO8Phiv+YApmWtEuAQAAAAAAOAvFRwuWYaBx4BIb67X0IJMRqyhSS58CYfbBTfd9tC8fEhjhSu3g/V2OdOTp2i4VJ1dbvYfToA9l3ApMPq0OPMUNzMPUrH1ijmXaJm5Pi3OHO94sD/twWV6Lk3r2YReeXZz0Abuda+LWcIlAAAAAAAAf1ke4ZJ9E9z6avDZ9KKJ22C/rYdyvW5yTLQGy/44Uu6jQSU05Xp+KBoWBcdlejIVDZcC7TmbdJjdXMMlteBYc8eQ7z0UnIseo0HPozf32QRQ08qcEenODZ2zv7spKG/P3TQSfO9p+xoE9dEZrY+awh5guKwlXAIAAAAAAPCX5REuIeKSlnAJAAAAAADAXwiXENF7CZcAAAAAAAD8hXAJEb2XcAkAAAAAAMBfCJcQ0XsJlwAAAAAAAPyFcAkRvZdwCQAAAAAAwF8IlxDRewmXAAAAAAAA/IVwCRG9l3AJAAAAAADAXwiXENF7CZcAAAAAAAD8hXAJEb2XcAkAAAAAAMBfCJcQ0XsJlwAAAAAAAPyFcAkRvZdwCQAAAAAAwF8IlxDRewmXAAAAAAAA/IVwCRG9l3AJAAAAAADAXwiXENF7CZcAAAAAAAD8hXAJEb2XcAkAAAAAAMBfCJcQ0XsJlyqIsbSk0+pYbgEAAAAAACx1CJcQ0XsJl/ykbecXZcW73iN33fe8pGbIitLN2+Srn/ot+aWgfN6P3itf2JySdFiiXXY+qus/Ip+sTkmlR09dP/9stg4+s026cssAAAAAAJYqhEuI6L1eh0tjaWmu3SY/+OZX5NP33S+ftPzC134oPztwTroqMik5J9/+8FRQ9NiB4ic5lnpe/tAKlLL1c28YTP3Sp16VNi109nm5y5R511dkf4WnS4RLAAAAAFBJEC4hovd6GS6lW2Rn9WezAcmM/pY8/LVX5Wy2i06FMCZnq+/Nnt+HPy87iyYk52TzJ7L18IfVppeSoUvONueWjJ2Tb+fK3fXnuyo+cCFcAgAAAIBKgnAJEb3Xt3ApXbtBPmn12rnrY5+Xr/5wm+yvTUlzl84n1C5na2tl5082yGOf+t2pHjkfvl++UetpwnT2h9keRV87MKuwY0znTyrVy+jsi/J74fk/KUdn7I00Fs7HVOGdlkIIlwAAAACgkiBcQkTv9Slcavv55/Nh0V33PSk/K6M70lhXrWz+TG6+oQ9/Xn7mY5qQen5hwo6F2u8Sh3AJAAAAACqJRQuXsk8LQkScWV/CpfSBr+SDpT/88q7sXEFlk5azm78o355p5uvFgnApUQiXAAAAAKCSWLyeSwAAZeLFb0b6gDyWGwp3159vm2WwNBeyQ8TifmS/DmNz7nFJh0umruYzpG5qH/FUeeljmnu4FMe5ZgmHNIbGcsIAAAAAsIwhXAIA71n834wxSVX/QTYM+P0NMz52f+50Sernz8sXPhF5ZP+7PiK//amvyA9qy4ghHGFOV+0PC+Z++nYqt9wEHDP6vOQ2KaBYQDK3/XbJzz6TXf7pn5cTtxSrK50D64/ksR8ekLYZRiyOdaXkZ5u/Ig9/7CPT9qFPtftC9S4x842Xx8zXzzSd2YVLaWk7UHgNjeWeq6ErtU2+/WjuSX0FBsd43xflqz85MMtzBgAAAAAgXAKAJcCi/2Zor6XcTfgXdi7MnXf67A/l0x+1bvajj+zPueIzP5SzpcKtgnCpXfZ/OfdEN8ulHi6lUy8W1lUYjEyvq1/68B/JZtecWOkWeeXRSFDz4d911nd2HzOnidOuX5FjMtev7HCpfZd89T47/Cp2rvfLV3e25zZy0S47H7VDL7MfNRpa/Za/wzcBAAAAwEsIlwDAexb7N2Os9sncTXc5TzybPWOp5+UPczf8n/zaq5Lqin7JWNj76Au5R/X/0ieeL957Kh8uvSo7q7PBkk48/kpti0zbrc0chq+VFZCUvd/ywqW2nV/Mhyp3fWqD7Dw7fXhYuvnA1ATq77pXvh0Jh9p+8kfZdR/9rHz75ylpcwwLS5/dNhXqfPgrsr9Epjh1/bSuvyg/qG2fdkxj7bXyg0fvz4Y4wfXb+ZOZ626s+VV5xAzFLLrflLzytdx+g/bzyM/dAdPZzbmQ8cN/JN+2elDZ6L5+Vv1ZWfH7L8rZ3DIAAAAAgHIgXAIA71ns34yz1bmQ4csHJPZ+S127cgFC8WAgz1iLvPLn2WO562u1zoAgH+Z8+CNh4PCH1anyjnkphEtnX8yHODOfV1pSGq599LOyORUteU5e2Xxg5vMcS8k3fj/7fb+3+VxuYYT89QuuSRlzcZmnDd4VXJ+S9RJ897dzYeJs9huGadHkcaxWvhqu+wP5Bj2SAAAAAGABIFwCAO9Z3N+MtOz/cu4mv7pIwDBnpuZyKhoWRclPLH6vbHZ1LzFhjvqpV8ufeNz7cGlqffkTqutk1bm3cyTfy+k+V12OydFv5kKiUr3JCtBrbg1VLFIvZzfn5viay34/Eel51LVNPh1+3wbn8EYAAAAAgPlCuAQA3rO4vxnlzwU0a/I9Sv5IXpmh05KNCR7uqnZEBVa4NKv5oXwPl9pflU/qfmZZV/Pm7PO5HkGOeafyc3F9RL5aO4seQeld8oVwu0BXvQTt4hu53mxz2+9H8vNqheTDpfvlB825ZQAAAAAAMUK4BADe40u49MmfxJxqmODC2SumBGdflN8rtl0+XPqs/Gw2h+t5uNS18/PZ/cy2ruZLPphxhEv5up7tXFxjcvRr2XN11ks+0Jr7fguH8bXLK5/Kfd8nviI/c01yDgAAAAAwDwiXAMB7Fvs3I1WduzH/ZryDivLhzO9/Xr6x+UXZXK7f/Hw2XCoZeDjWlcLzcGlhrsGYpJtTsv/nP3TXs1qiru3zn23g1faT+4vWSz5Im8t+zTFFh1m2b8vPDaXe9bH75Qtfe1Fe2VkrqeYuccxpDgAAAABQNoRLAOA9i/2bkb/Zj/kpWvlwYs4uw3DJNRRwDqRTL8qnP5rbZ1mWDpfKrTNDqW0Xar+SbpGd1Z+X37ZCJtsVn/qKbN55rrwJ4AEAAAAALAiXAMB7Fv03o/1VeTi8Af8D9yTac2QqCHhVmtM6+fRsdXQ3qfRwKYaeS2PBMWWfOvdb8unqbZJqL1KXSolhcfb5x9lzKX3gK/Pfb8kJ4sck3dUiqQPb5Aebn5Qv3HevrAjPMecnNshREiYAAAAAmAWESwDgPYv/m5GWnY/mbrxnDElmgZlbJ84eURUaLsU359I52fz75nvKmJSq1JxLc54baeoJhM56MXNqzWO/hXMulcOYtNU+Lw/nejXd9eUD9GACAAAAgLIhXAIA7/HhN2PsrOnt8hF5pJxQohzyTwX7A/l2ec+bn5kKDZdi6z2WD4u+IvvLSU9KhUv5p/3N8sl8ZT8tbq77jTwtbhaM1W6YY2AGAAAAAMsZwiUA8B4/fjPGJFV9bzYQeNe98tiB2QdM6bO1cjZyw3528x9k9/mpmJ6CNt9waRY9gxINl6zeY3f9ebnDxXS4W+6tIR8WlRee5M/RWZ/aJnLX7xPB+rLCmGCbb+a2UYvUy9nNubY2l/1+Yh494fL181n5WekLBgAAAACQh3AJALzHn9+MdvnZn38kFwx8RB6urp0hMDGkpfknX8zOaxMNC8ZS8o3cMK0Vj5YRmoy1yCuPflF+Vizbmmu4lB/i9UUpt7NMsuFSQLsJPt4jf/jN2hmGbaWzYeBHPyubU1bJfG+jj8hXa2dIbQqesFakPtMH5DEzlGzG0GssaAefD+v5rg/n2lGxerHaRTlhWtvPs/vV4HN6L7hzsv/n5U3Und75xexxffj5WCevBwAAAIDKhnAJALzHr9+Mdtn5ZdODKfCjfySP/XCXnG1PS/SWfqyrRY7+/Hl55GMmkHKHImPNr06FGBqGHGiZ/mj4sXZJBfsyTzi769Fd7lBiruGSNRRrWpiRDs7j7PRoIvFwKSBduyE3PDE4zvuelFdS7ZF6H5P02V3y7c/8VvZ7NWwp6C42JmdND7QPf15eaXZFLmPSlZt/6K5P3Jub/6h4fU5NEB5orl9unSHdfEA2m2P6xPOy8ycz153dLu6674vyg9rouUb2q0M2f9IyrUz+OoVt9YA0d0VLKGlp3rlBPpn7vod/EtPQTwAAAABYFhAuAYD3+Pib0VU7y0fZa+hQWyJead8lX71vKoQK/fDvyifvuz/y6PiPyCe/tqt4T5a5hksB+pSyqaeG/Zb8YfDdn7zvd7M9YhyTji9GuKSkz/5wWt3f9bHgWD9hQpacQZ3/IDoOMaRddj46VVa3/fSXN8jmzRvksc9M1feKR1+V5uYScy5ZaBD0BdcxmfrLueIzPwyHRpZVd4qjXaz4xPT9/tKH75ev7nQHQungHKa1raAd/XZ4fQOt8DNsXzP2CgMAAAAAKIRwCQC8x9/fjLQ0126Tbz8aDYByajj06JPyiqMnixvtMfOqfPXRyKPhc/t6+Ms/lP3tM+xpHuGSkk79UB77VGFIc9fHPi/f3lmiR0zC4VKWLkn9/MXgWCMhS+CKT3xRvv3z1Azfl5a2A3qu0e0/Ir/9qa/IDw60Z69ZqQm9p5GWszufly9Egx+zTytcLDtcCskd62emtws916/+pFacnZEKCNrW2V3yyte+GAmTcpbbvgAAAAAAHBAuAYD3LJnfjDGdQDrnjDf7ZWD2F8e+Zs3YIn737BnL1fvcDjd3rnPe3oXZZ/wVOL9zNUyd81K5xgAAAADgL8snXBq8KdLWFLzyX9EASw0CaQAAAAAAAH9ZJuFSncjOf5HzmdyyBaT1DVm9YoWsWP2GtOYWTTEujdWrZMXKR2Q798sAZUG4BAAAAAAA4C8VHC6NibSeERkfEEn9hRUufSz4rMtvipwPXheApq33ygoNl1bcK1ubcgvzjEvj1tWyMu5wqWe7rNXvrGrMLQCoHAiXAAAAAAAA/KVyw6WGP7YCpWK+Pyh3M7dBXDTJ1ntXyIq775a7V6yQe6enSwsD4RIsNOOtsu9Hm+XlI525BclBuAQAAAAAAOAvFRounRGpiQRJNX8sUrcueH1/ZHl1bpuYaNoq965YIavfqJE3Vq+QFfdulWi81FilvZpWiMmBsp/Xyvae7GclWkZv7LdvWCP3rNTlK+WeNRtke+t4uMqUndLe17i0bt8ga+5ZGa6729ouS+H6lfeskQ3bW4OlAFFGpGn7Vtm8OfmAiXAJAAAAAADAXyq359L1zVMB0p7g/URu+e3W4LMJl+4Pyg3kVsRDY5WGNKvljeBrssPjVk4FRDlmHy71SM1a3e8qeeqNWknVbJVH7g7Wr1wrNcE2mdZUsKwqO8/TupcllWqUG2E6lJvfKVi+al2VVFdXybpVue/KXYKemrWyUtc/9YbUpmpk6yN3B+tXylrdMcA0BqTx59mA6Se1yQVMhEsAAAAAAAD+UsFzLlmTeNcG721qTbgU8+Te4ynZoD2LTG+lXC+mlRtSBT2BZh0u9dRkh7wF+zGMp6pl9erV8tTB3EauYXGZGlmny9ZYE4u3viFrgmUrszuWmrX6PRskv+fgHKqD/a5+6mCwFsBF8gET4RIAAAAAAIC/LI+eSzr0zfRcmmhasJ5L46kNYS+gqXmWGqVKw6aVGyRlpUuzDpd0HiftcbRytTz1RkpaexyD1hzhUubg4+E+HimYOTw4Ji33yHbRpU1btWfTSln91BuSau1hOByUxUjrPvnR5s2yees+ac8tW0gIlwAAAAAAAPyFOZdim3NpXGo3aCBUOAwuO0xuhWyonYptZh8uBfSkZOvae8LwSpevuDsyN5IjXOrZvjZb1mmVZEv2SGrr2txcTurdsmbDdimYlgnAYqT9oLwcBku/kKaR3MIFhnAJAAAAAADAXyq351LST4vLHJTHpwU4lo8flEyu6JzCJcN4Rm40bpeqNRparZQNpktUiZ5Lq6tqJJVKRWzNH0+WccncaJTtVWvCACs6lA9AmbxxJBcsbU8sWFIIlwAAAAAAAPylgudcGhM5f0hkfEDk9F9YgdLHgs9N2eWt0ee4zZ1MzbowyFm55imprq62fErWhL2C1klNLs1xh0vZScCzjEvtU1Nlxhuz8ys9bk+y3VgVrl9rEinXnEs3cvMrPV5TMH/SeFNKmjQ5Gm/Mzq9UsD43bG7tduZcgkJGGuWNRQiWFMIlAAAAAAAAf6ngcMnGmtw77km8Q3pkezgx9r2Sn27JIvvUuBWyLpcuRcOlzMGnsr2FVj8uVdXVssEa/haW0RAonHNpjVRtr5VUrem5tGrq+0zPqaDMU9VvSGP4VePBd2WfFnf3IxuyYdeGR+Tu4PPqYMNxXR8+TW6lrKnaLrWp2nzPpVWuE4Flz0DLeWlPOFhSCJcAAAAAAAD8ZZmESwGDN0XamoLXsdyCGMn1ENKnsjnPrPUNWa3rc72Bpg95y0jjy2beo+ycR7XB54IymUZ54/E1uTIr5Z41j8vLqcK+RTdqHs+uX7lOpjo5ZaRp+wZZc0927qeV9+hcTU3WkLjgu994vGD94y+n6LUEXkG4BAAAAAAA4C/LJ1zyiGy4tFKqrRFsAFAcwiUAAAAAAAB/IVxKkhsHrTmYHpeDhTNqA0ARCJcAAAAAAAD8hXApSRqrs3Mp3b1GNhzkZhmgXAiXAAAAAAAA/IVwCQC8h98MAAAAAAAAfyFcAgDv4TcDAAAAAADAXwiXAMB7+M0AAAAAAADwF8IlAPAefjMAAAAAAAD8hXAJALyH3wwAAAAAAAB/IVwCAO/hNwMAAAAAAMBfCJcAwHv4zQAAAAAAAPAXwiUA8B5+MwAAAAAAAPyFcAkAvIffDAAAAAAAAH8hXAIA7+E3AwAAAAAAwF8IlwDAe/jNAAAAAAAA8BfCJQDwHn4zAAAAAAAA/IVwCQC8h98MAAAAAAAAfyFcAgDv4TcDAAAAAADAXwiXAMB7+M0AAAAAAADwF8IlAPAefjMAAAAAAAD8hXAJALyH3wwAAAAAAAB/IVwCAO/hNwMAAAAAAMBfFi1cSqfTiIhlSbgEAAAAAADgL/RcAgDv4TcDAAAAAADAXwiXAMB7+M0AAAAAAADwF8IlAPAefjMAAAAAAAD8hXAJALyH3wwAAAAAAAB/IVwCAO/hNwMAAAAAAMBfCJcAwHv4zQAAAAAAAPAXwiUA8B5+MwAAAAAAAPyFcAkAvIffDAAAAAAAAH8hXAIA7+E3AwAAAAAAwF8IlwDAe/jNAAAAAAAA8BfCJQDwHn4zAAAAAAAA/IVwCQC8h98MAAAAAAAAfyFcAgDv4TcDAAAAAADAXwiXAMB7FvM348qVK4iIiHMSAABguUC4BADeQ7iEiIhLUQAAgOUC4RIAeA/hEiIiLkUBAACWC4RLAOA9voRL8+H7b74tn3ntunz2lbdDP/PK9SXtn/6kTf7Lj9rlie+1yNFv1MjFr/1TxXj2G9uk+uib8q3GY7Lh4nH5m7Mnl7bn6uWvz5+RHzVul8m3/k+ZqLtPJivE0cAjxx+Ub598UL57fJVUB6/fWeoe/5S8vO9JOfpSSo7/oEGOb22sKJcDcf3dAAAAWEoQLgGA91RCuPT4jj75cNUV+Y2qa/LrVVflI89eWeJeDc6lRT759BnZ8ekfS+rBFyvGQ2s2y7odv5A/PrFH/uTkbvn0iZol7Z+c2Cd/enKfPPPWs3Jn5/9D7ux6j7xTIY4GvrLn/bJu3/vlK3veI3+5/4Oybv8HlrzP/ORB+aeNe2Xv0ydk79cry+VAXH83AAAAlhKESwDgPRURLv1zp3zkucvyG1WX5derWuXXn13a/sYzbfKb32qR+55KyT//6Y/k5IObK8YjazbLl/95h3y6rkY+c2K3fK5u75L2z+r2yGdP7JeNb22S2zv/VTZcqqkMRwP/cc8HwnDpr/a8V76074Py5b0fWNJ+ae+H5JmfPCT/9Ne7ZPf6Y7L7G8cryuVAXH83AAAAlhKESwDgPZUQLv337R3y4eda5Te/1Sy/8S0NmbQX09L1N5+5Kr/2bIs8+JT2XNJwaVPFePgzL8h//cUO+eyx3bLmrV3yuWM1S9rPaEh2fLf89Vv/IO/sere8s/P9IhXi2K73yz/u/YCs2/M++as9H5Iv7Xm/PLbE/UrgM6/8kfzz3+yQmq+fdPb+WcouB+L6uwEAALCUIFyKmUxTjVStWyV3r1ghK1bcLase2SBvNPbk1i53bsj2R1bKilXV0jieW2Rx4+BTsiqot1UbaoUaA5uKCJf++ab8WlVr4HXR4WQrnm1e0n6kqk3+3d9dkfuerpcdf/qyHH/oexXjkU+/KH+xe6f8cV2NrDlWI396YveS9o+P75U/Ob5H/uatb8s7u94l7+z8lyIV4ujO/0le2ftB+avd75P/euBD8qX9vyKP7f+fl7Rf3v9e+dZr98vOv9kre9fXy771qYpyORDX3w0AAIClRIWGS2MiJ+4P/sPzX+R8Zmr5m78qkmrKfY6Xnpp12VDp7jXyeFW1VFc9Lmvu1pBppaytIS4Jakhq1rrDpfEbB6VqzSpZU90ojtwJljmVEC4duJiRTUe75btv9sh3jvbL87XpJe0/vNkl/xCcz8v7r8ml10/LjVdOVoytb6RkR0uzvP52s2xvvyQ/v96yxG2Wn16/Igfa6mW85e/lVktVxTgSePrK38rulr+RHVf/WnZd/lvZFXxeytZcfkaONvyjXDzcLM0H35aWCnM5ENffDQAAgKVEZYZLTU+I7PyoyJvVInWBqbrcipsi+zRsen/8AdN4rWxYuUJW3FslqUxumWKWr9wgKVITgDlRCeHS7TsTcvud23IneH0neJV37ixp77wzGfhOcF53ZDL4fLuCnLzzTnCdgnMLzu+d4HXpG7S74LxuBe1wUs8peF9JajsMmmH4Gp5veI5L2eB63Q7a4p3sv7FgQWW5DIjr7wYAAMBSojLDpdPaaynXW+n2mMjgQM6mXLgUf8CUOfi4rFixQla/0ZpbMkWqKtt7qdp6Am9PaqusW3V3uM3Ke9bK1tRUz6ae7WvD5VXbD8pTq1fKirXbw2FijeF+1srLNS/LI9ojqiq3wxu1U0PxVt4jazZsl1YryCq6XZSelGy1h/St2yrWYYWUOu6Qkvvoke1rdXmV2Edwo7bK2uca2bC9SabyuUap0n2tfUNSNRtkzT1BfQR1ec/al6WJsG7ZUAnhEgAALA/4uwEAAMuRyg+XwvcmUIoaX8CUDXBWSLHcxqanZq2s1CBlzVNSXV0tT63RwOReqcp1bTLhUjZsWS2rnzpohUtZ714VLH85+LKeGlmrPaNWrZOXa1JSU70mu+/HD+YDGud2UcYbpXpVUGblGqkO9lP7xlOyOtzv1BC2mY575n1MD5duBOeq+7z7kQ3hPjc8kg2ZVuWHx+XCJf3e1Y9LlVVmZTmVDRUB4RIAACwV+LsBAADLkWUeLqm/KtKWLTofyg+XmmTrvRrAbJDaXCaTHzqX66FkwqVVwc5MESX7HStl7fap+mt9Y3X2e/NzZOqk2VpurZhpnlzbTaOxOgx51rwxVebG9nWyevVqyWZRMx/3zPuIhEvjqdxQwq3B3g3B8Ydl1klNmI7lwqWCMqnsstVvyPR+YlCJEC4BAMBSgb8bAACwHKHn0ul44omyw6WmrXKvBiNTaVDAVOiiS/PD4iL7yn7HWtmeH2bmJlqurO0yB+VxDXrufkS21jTJjYwdawWUcdwz7iMaLuXCqHu3FvYeM+e/IUyxzLC4XIAVYnozFQ6vg8qFcAkAAJYK/N0AAIDlyPKecymmYEkpO1xqrArLuc0GQLMLl8altaZK1q2+JwxqovtSyg2lxlu3y4Y12SFnasGcSmUct1JyH9PCpew+10YPLGUvJ1wCwiUAAFg68HcDAACWI5UZLoVPi3u/yOEST4uLMVhSSk3o3bh1taxevUZe1g46pgfQupcllUpFbJQb47MLl/JD6DbUSGtPRjKZjNRuKCxXbriUZ7xHWmtflnU6f9KKNRKOcivjuAtw7WOWPZceP6jj4giXgHAJAACWDvzdAACA5UhlhksyJnLCHg6X68Wky9/81diDpRAzJOzeKjHzW4eYeYlWbsguN/MMrbLnEAq4kZJUrlrKD5d6pCYMax6RqemUxqX2qcJy5YRLN2oeD+dG2mp9Z8FxlHHcM+4jGi4591lkziXCpWUN4VJpzCPM7ff2MgAASI6l8HcDAAAgbio0XFocbtSsyz6C/+418nhVtVRXPS5r9NH/Opm2mV07wDwhzTz9TMvpU9X0CW9aqvxwSaT15VVh2fzT1taa4XGzC5eiT51L1eR6Ha18XMIORAEzHffM+4iESwFlPy2OcGlZQ7hUHDtIunPnjkxOTsrExISMjY3J6OgoIuKM6u/FrVu3wt+O27dvh78lhNNzx/e/GwAAAAsB4VLMZJp0ziET8Nwtqx7ZINubcumMRU9qq6xblZub6O5Vsm5rKh+ezCZc0sAmtXWt3KOhzsp7ZM2GGqmpvjfcPjshdpnhknKjVqrWrcoGZHrs66qkprVwvFup4w4puY/p4ZJyo7Yqv8+V96yRDdubZKrGCJeAcKkUegNowqShoSEZHBwsUIfKIiJGjf5WmN8L/R0ZGRkJwyYNmgiZZo/vfzcAAAAWAsIlAPAewqXpaM8CvfnTXgcZDZX0ZjHvoKQD9bVg+RAiYk77tyHU/GbkDMoMDQ+HwbUJmYxQGl//bgAAACwkhEsA4D2ES1nMjZ3e6GnPgrC3AaERIi6gpjeThtl2wKSCG5/+bgAAACQF4RIAeA/hUha9mdMbPL3Ryw9tIVxCxIUy14vJ/N5oqG33YgI3Pv3dAAAASArCJQDwHsKlbLA0Pj6eC5RyPZaMrptCRMT5aoVL2d+bQRkeGQkfHEDAVBxf/m4AAAAkCeESAHjPcg+XdH6lsfHx7DxKwQ2feUVETNqBwbQMjQzL5G0CpmL48HcDAAAgaQiXAMB7lnO4lO+xNDzkvNFDRExKDbbVMGAKfpOY6NvNYv/dAAAAWAwIlwDAe5ZruKQ3azr8ROdYSuvk3Y6bPUTEpCzoNRm816dVas9KwqVCFvPvBgAAwGJBuAQA3rNcwiVzg2bUm7app8IRLmFp+wKHBnO9S4ZoL7jABu1M52IaGxvL/2ZBliT/bgAAAPgC4RIAeM9y7LmkN2o6HC6dThMuYVkOpYdkaHA4eD8sacd6xFjVCb6D36bh4eH88DjIslh/NwAAABYTwiUA8J7lGC7lh8MRLmGZXu7rkaaeLrk5kJY0TxHEJAx+m/R3SoNwwqUpFuvvBgAAwGJCuAQA3rMcwyUdahIGSraumztcsnYP90nXqRZpOxx46KJcD3z7zUuSTpd5rYM2MRyYyYzJ623N8pcnD8ra1AF5+vRbcqrrpkz0pWVgRCeC195Mju0R52vud0kn92bupSkW6+8GAADAYkK4BADes9zCJb1J06Em027ksLIcGJTU4y9Lw/3fk9MP/IM03v9deWv18zJ0Pe0uP83sjf3Rt9vks0f/WR6p3SN/Wlcjn63bLV85sSe44R8Lb/r7CSZxoQ3a2K1bt8LfLwImwiUAAFieEC4BgPcst3BpYmIinCjXeROHlePgsBx77MdyetVWqXvwRTn5wBY5+qebJH1jwF0+os6rNDQ8Kt8/e1I+Xb9HPvtWjXz2WI18JvBPTtbI20OjMjKYkQHCJVxogzamgbhCuES4BAAAyxPCJQDwnuUULulNmT7em3BpGTiQlpOP/aPUP7BFjj34gpy8f7PUrd4kAx197vIRB4YGJTM0LP948Yx87vhe+fTx3fL/fWu3/FngZ+p2ytuDI5LRp8fx5DhcaHOTe5uJvQmXCJcAAGD5QbgEAN6znMIlHRI3MjJCuLQMzAz0y+kvvSqpBzfLm5/aJMeD15MPvyA9neX1XAqHxWUG5UJXt/zlsd3y2eN75U+P75E1x2rk78/UBuvHZSAo158pd3+IczQXLmmvy+UeLClJ/90AAADwAcIlAPCe5RQu6f/zr8NLCJcq33mHSzrcbTAtQ+kROdHXKRvOviVPnNwvLzedk47gRj+dzkj/8FD2xt+1PWJcBm1Rf7P0qXFAuAQAAMsTwiUA8J7lFC5NTk6Gj/bWXgDOmzhcXDXQsc2v0/eDks5kw5x0sM41HC0drMvoOn0d6JsKlx7eJHUPvCAnHt4sfV0D4bahQVkd/jaQ0Um+s9+pN/G6fTpoI7qvvmDd2MBwGCT1BA4E7ac/WBZ+f3g82e30vW4Xhk26fXA8YYiZWx9+32CuvG5rjjl33OG5hfsOlofD7bJOnV92u+yy7Dlk68Kss8rllweG77PnqprP2ePKrQ/KFX4X+qReL21L2usSCJcAAGB5QrgEAN5DuIS+2K8BS3BtBtJDcqMvI2/3GoOb6+F+GdJwZnBUBgbTkhnql86+IatMRtoHbslQWnsmDclQf09BuHTs/u9K3erN0tudlvTAoPS03JAb9S3y9olm6b70dvh0OQ1ahoZGgu8Ylv50Jvie4MZ+MPie9KB0BPs13hgekpH+4eCmX48nI5ngeEaC7fuD933BeQz3dUmmKyXD7Ydk6Pp+ydw4KoM954MyY0H5nmywY8472MfQ4Hh4Tl0DndKWvi7dfW9Lz1BQzgqNhoJ9D6S7pWuwUzoHL8vNdLt0D1wP9qeh1FQdhr2tNITScCxY13czLdebO6T94g25frFDOq/1yEBQt5mgrAZQGf33kHtfsB/0R702wfU0k3ovd5L+uwEAAOADhEsA4D2ES+iLQ+neMHg5cqlPHn2jXf7zT66FPvJqq9TfTEsmrWHPmGSC63djcFj+2+sX8mXUp7c3y3DYg2hIMv29hT2XHtwkJ1Z/V3rPdcqlzfvk7FdelfNrX5XTX3xNzv3V69L8/QPSd7UzHO42PKKTvg+HwU9nJi1/d75O/ubcsbyvtZyR8fRYcMzDue/rloHguNIDb8vw5e/L6MnPyOThP5Rbh/+fMnH4P8jEkd+XW2/97zJ26r/JkAZNmf6p8w7Od2C4R3Y1V8um45+W79Q/JC8c+5RsO/+30tF3barcUFoOX/qebDr5n+W7xx+WF04+JN87/jlp7k1ZZQIHMzKSHgyfind+72Wp23pWav/hrNR9+4Icqz4ntZsbJBXUW9uZTskMjIbfn+1hZe0D/ZJwqYCk/24AAAD4AOESAHgP4RL6YiYzIAPBjfQ/pnrkd6uvyW9WtYbe9VybHGofktF0v/QN3pLhwbS0D4zJf3y2IV9G/b1vn5N0WsOSoYI5l44+/KLUPfh9qX9gsxz7/I/l2P0vBJ+D9xo4Bcvq/88XJPXwFkn99Rsy2HpTekaHZXgg2MeghktD8un6PfK5Y7vz/nXDQbkVfH96ZFhG0kPSNzQoI/1puX3yz2Ry94fkzq73yWTN++SdX3xQ3tn5nuDze+V2zYfknX9+t0zu/bAMX3ktDHWy55wO7JGtDf8/WbfnLvnigV+RdXvfJ/9w/EFp67mYr5t0ekBeOf4F+dLhfyd/ufvD8uV9vypf2fOvpaFzf0Ew1J/pk87WAdn77ROy7+mU7P76cdn9jRNS84062bM+eF1/XPYEn/evPyUn/ums9PVooKfDAqf2gZ5JuFRA0n83AAAAfIBwCQC8h3AJvTHsBdQv/3iiS37n21flN6qu5D3VGlyzYJ3pmdTVPyQfe76toMzdf98q6aEuGRwYkYH0gNVzabMce+BFST30vdzE3i/KiQe/E7g5/KyvoQ98T1pePiGZgW7pGewPe0h1pzOytm6ffK5uT971DYdlbCA4juA7+oL2lBnslVun18o7O94r7+x8t9ypeXfw+j6584tfljs7gs87g+W73ieS852afyNDl38ahjrpgVvBPvpl67m18ld7PiBf2v9+eWzfB+U7KQ2XLuTrRoO3l+v/Qh7b+0H58u5fCV4/JH+191fkXOch6R8ZkOF+nWC8T3quDcgvnjkk+zVY0lDpm4Ffr5PdoSfD93s1ZPrGW3J4wym58IsWSfcHx5HWkEt7hhE0eSfhUgFJ/90AAADwgUULlxARZ+NikfRNAuGS5y5QuHT04RfkxAPae+mF4PMmSX1mq5x/9FU59emtU8FS4KlVW+TNz2ySd/rHpH8oXVa4pPMsDV/dIZO7/o1M7P6/y+TOd8tkzXvkzs73yMTBfyu3D90tt/f8ahg25cOlX7xLxo7cI72DF2UkOI95h0tBvWQGMjLQNyj1LzfJnie119Ip2b3+eNhzad/GE/LWdxrlYFVK9nz9hOz5xknZFazb//XTsu/vT8rbzZ3ZfxOqPR8U+iHhUgFJ/90AAADwgUUJlwAAlgpJ3yQQLnnuAoVLbz78gpx8YLOkHnpB3vovP5S2vY3y9qkWaf/5Can/9Pfz4dLxB16U0/dvkoGmXkkPlBcu9QTHPXT8Ubmz771yZ+cvy6QOgdv1SzJ29EHJXP25DHbsk/GL35J39v5vU+HSrg/I5J73yfjNJunN9M07XBrQYwjq5EZLt7z5fIPUhEPhTsqe9SnZ97cnpGnfNWm9eF2aT7TKW5vPButSsucbx2R/sF6HyV061prttZROZ4OM3HeiJxIuFZD03w0AAAAfIFwCAChB0jcJhEueu1Dh0kOb5PgDL0jqvu9Ix7Hm8GY9fJT/wIBcfOWInH7wf0jq4U1y4iHtvfSCtL+akt5gfXk9lwZlovb/kHd2vV8mw+Fw75axXR+QdMf+oJ1lvyeT7pFbqT+SiZ3vk4nd75GJX3xA7uz6v8ntq4elf7h/3uGSzjGlT4e7dKRV9m44KbufPil7nk7JnqeOS+NrLTLYOyR9Qd3pk+SaT16VA399Rvas1zmYAr9+XOr/sVkGBvqCfQwF/z74t+GdhEsFJP13AwAAwAcIlwAASpD0TQLhkucuVLj0qRfk2OotcvqPtshQV+G1H+sYkmP3b5aGB74rJ+/fJKeC9+e/s0f6RjJlhUsDg2mZfOs/yTu/+IDc2v1ueWf3B2Ts0IpgXUvB90xe+r68s/NdubmY/nVQ/v1yp2VX2BbnHS7pfEvB+utXO+T84Va5cKA99OL+NulpHpC+dJ9kRgaDY+2Tge5BefM753Lh0vHQNzeflf7+nmD9UPA9zLnknYRLBST9dwMAAMAHCJcAAEqQ9E0C4ZLnLlC4dPThTVL30GY5+akXpOdmf8F3DnRm5MRD35PT931HUhourXpBTv3ttrmFSzXZybtHj/yOpPuuF3xPpvOi3Dr/TRm78LyMXnpFRlp+EuzjbekdGouh51ImqJPBrIPB+WX6QjND6aC9j8hgcA4DPYPBuQ4ExzEsR55vLAiXDnznlPT198pAUK+ESx5KuFRA0n83AAAAfIBwCQCgBEnfJBAuee4ChksnHnhBTj60Sfq6CsOTdOegnHrwe1KvPZce2Bz4gjT89TbpD27oZxsuTdS8W2Tnu2X8zY/JYG9b4fcMDctoJttLqW9oUAYy+nS2MUkPDM87XOob6gtDpOH0SNC2hyUTvO++PiBXTrwt5/dekbP/fFnO/PSSnHm9SU6/dkkO/u3pgnDp4D+cDnsupTPBtsH32MeNHki4VEDSfzcAAAB8gHAJAKAESd8kEC557gKFS29+apMcD15PPvyC9HQWhicDXWk5df+LQbkXJKVPlHv4RTm34Z9kYHCu4dJ75NabvyMDfYXhUjG1t9F8w6W0zu0U7EePJd0/LBePXpW3vtcgh56pl91frws1QZJLEy4NZkboueSjhEsFJP13AwAAwAcIlwAASpD0TQLhkucSLs0pXBrsTUtPujuckPvMG5flwPrTsv/rp2TPN7Lh0UwBE+GS5xIuFZD03w0AAAAfIFwCAChB0jcJhEueWyJcqs+FS0PBtcuHS9X+hUvv7MqGS+lIuJQeSgftTsOkYL+6LKPnMz1cWlc0XErLP9avlS87wqXhgWD9yKC0neqWg986Lb9Yf0x2abD09EnZvf64HPhWvRyuPiVHvnNa3nz+tOzbcJJwaSlJuFRA0n83AAAAfIBwCQCgBEnfJBAueW7RcOmqpK4Ohr13Bgf6grIaLmWCMq1WmXjCpWMPbZ5zuHSr5l0yufvdMnHkd2Sk+1rB9/SODIQhUH9wjkM6t1Gw/8GhEekPvsMOl/5y//vksf3Tw6WhwWH5x/r/Kl/e9ytBuQ8WhEuZ/rGg3vrkwq72gtBo9/o6eWvLObma6pCO6z3S1dkn/Tf65djzFwvKES55LuFSAUn/3QAAAPABwiUAgBIkfZNAuOS5RcKlX//WVXmrORvkpNPpMPjpGtCeS9cWJFw6+81t0j+XcGn3v5LJwIk3f1tGeq4UfM9Qb4OMXvhbGbpQLZmLfyejTc8GZZplYGRA+oYGpsKlfe+TL7nCpcywvHLqv8pjQZkv73l/Qbg0EBxLf3dvOCRujzX8be+zx6S9oVPSowOSHlSHZLhvSI595zzh0lKScKmApP9uAAAA+ADhEgBACZK+SSBc8twi4dKvfatV9px+W/rCcEmHxWXkRs+A/PbfFw6dm3e4FLwe/9QWufjXO+bWcykMl35Jxg79exnubi74nsmWH8vtve+S2zv/V5nc8165s+/dMtH6TzI43FMQLq3Tnkv7PijVx1fJte7zU/sIjuPHJ9fKlzRY2v3egnCpd2BAeq51y/EfXAh7K5nQ6M3vn5LO9v7gPEZkaGRE+oP9ZPoycuy7Gi5Nf1oc4ZKnEi4VkPTfDQAAAB8gXAIAKEHSNwmES37blxmXTDojPzneIb/z7anQ6CNV7fLf/7k9DJ4GMqPhY/x3t2Tko89eLitcOvrwd6Xuwe/KiVWbZeCt1uz1z/RlQ6oXU3L0oRfk5H3flfqHvhuU/77cePWk9I0OlhUuaTA0efRhmaj5l/LOzvcFvlsmd/1ruXPzuAwMdgf7GAvK9cjtEw/I7V98SN7ZFZTZ9S55Z8e/lLHru4P2mA7OOy3fO/Wo/EXNu+WJvR+UvzzwQXly/3+Qs9drpW9wQAaGBqVzqE22pj4r/3X/e+TRXRou/XJBuNTd2iV13z9fEC4d/k5Kulr6pG+sV9IjGsoNSnvjTdn/zEnZu/4E4dJSkXCpgKT/bgAAAPgA4RIAQAmSvkkgXPLbobTOqTQge5oG5e7vTM2n9OFn2+U//v1F+fnZITl/rVfevNQrf/qDy/KbVrBUKlyqfWiTnHxQeydtkeOP/kA66tuls7lDOg80SeqzP5AzwfKT922S4w/8g5x4+Hsyer5T+ofSZYVL/ZlBGa3/U3nnF/+zvLPrA3J75wflzs5/JWO198lY23HJdDXI2OUfyO29vxGs+0AuXHqfTNS8S9652RIc56D0ZvrlpcbPy1/uf498Ze975UsHfkUe2/3L8vrZr8mV7pNypaNeftH8jHzt4F3ypX0fkr+qKZzQOxwW19UrZ17XYXHZwEjd9c2jcnHnVelu65fezrR0XOiVuh+elX0bmdB7SUm4VEDSfzcAAAB8gHAJAKAESd8kEC75bTjJ9UBaWrpH5A82Tc2n9JtVwftnW+W3n78s9/+gQ/7gu63ykWD5r1WV2XPpoRfk+KrNklr1gtQ98IKcWPN9OfeXP5FTn/5+uP5k4ImHNsvxoNyJP/kfYcClcxSVEy71Bu1p+OrP5J0d75Vbu98rt3e+OwyRJn/xPpk8uEJuHblbJvf+a3ln13vlnZrAXLg0/tbHZLL3beke75C+obS8dmadfOnge2Td3vfJl/Z+QNbte5+s2/Mh2XD0d+Wva/+j/LcD/1uwXCfy/uWgTOGcS+GE3oN9cv4XbQWhkfZi2rvxhNRtviCpHzXJoefqpeYbdbLn66mCEIpwyXMJlwpI+u8GAACADxAuAQCUIOmbBMIlv02Hcy4Nhk9U+281nfJrf3NVfu3ZJvnot5rDXko6sbc+Oe4jz7bKim9dkd/4Vot8pOpy3t+rviYjA11hbyIdTpb6qx9J7arn5c0H/kGOrdokdfe/IMfve1Hq78sGSscf3CT19wfvH1BflNQDL0jrD96U3oEOyQwMyFh/v/QEx/VfTuyVz9Ttyfv1hkMy1jsoQ0E76hnul8F0Wm6n/kImdv5Pge+R2zrs7RfvlXfCXkz6+l6Z3B28/8X7gnXvlbH9vyljrd+Xgb60DIz0STr4jsa3d8rje/+N/OWe98uX9v5KYPC6773h62P7fjl4/8Fg3Qfky8H7x/Z+IAyZvrTvA3L65j4ZTgdtejgtbae65OC3TovOp6TB0m4NkdbXB686BO5E8KrB0knZ83SgFS4dfv6U9PcOSHpYn8in14J/H15JuFRA0n83AAAAfIBwCQCgBEnfJBAuLR2vpwfk099/W/7Ns9fk16pa5NefaZHf+Far/GZVs/za3zTLAy9fk//wnPZqmvJ3/u6yjAzp0+T6pa9/WE5+6WU5df/3pO7B/yHHH/gfYe+kc//5B/LWQ9+V4w9tkhMPbpIjwbL6+1+Uk/e/IPVf3ybdV7tlaLBPhjJDMjIwLH2DI/Lnx3bLZ9/ak/fp0weDNjQU9mxKB+vTg6PSP9QnE6nPyTu7f0ne2f5+ub3rl8NQyXhn1/9V3vnnfyvje/8XGW/5ngz3B20wHZxr8D2ZgUywj0H5xYXn5L/t/VX5q/3vksf2fSjwf5F1e94vf7Xvg/Lfd/+v8vShfytf3P+bsm7/h+TL+/61fDn4jsb2NyXTmwm+vz88pvM/vyw164/JvvWnwiBp7/pUOL/S3m+ckJqn6uTodxvkwIb6bO+l9To87qQc+O4J6e/PyEA6HRyT/tvg34dXEi4VkPTfDQAAAB8gXAIAKEHSNwmES0vHgcFeudo1Jn9bc00e3HpZ/vdNV+U/vdAu/5/NLfLktmtyvjMjX/zhaXnw+615//LlczKUGZD+4PrqU9HOfHenpNb9WBq/9LI0rntZjv33H8vwpT65/NwBOfXoK3L6P78iZx/5sTSsfUnObtotPde6pCczGOxDvz94TY9Iz0BaNpw+LP/9zJQ/udQYzpWUSaeleygdBkT9g2MyPNAloy0/kvG6VTK5/9/L7f2/Lrf3/abc2fcfZOzw78nYic/JWNthGRjSicmD7xjuDXtpDQ6OBvtIS3qoRw5c/5F859gfyzff/A+y/uhHg9d/L9VvPSi1bS/L7rPPyd8duU/+rvYPpar2P8nfv/n/lgs9xyWdGQ7rrD/TJ0ODGblyqk1qg7o59HcpOfTcaTn83Ck5Un1KTv6sSfoup6X21dNy5IXT8mbO1I5z0j3QG2yrw+IywXHw78MrCZcKSPrvBgAAgA8QLgEAlCDpmwTCpaXj8GBGBgZ6ZWBoRC53Dcux5h45dqlXzr09KD2ZkeAaDkv/YHAt9XrmvDk4LoPpPunXsGU4LekB7cWkQ+2CfQb7G+rTHj7D4bxCfZfflo5TlwOvSXdzh2SC/ek8S9o2BoKyOlQtE2w/GtgXBkBTdgcODQRtSHv6BPvuH9LtsgGPfs6keyTdnZJMxwHJ3DgkQzdqZaj3fDinVL8eV3CsmWAffcF5pIPPA8MaNg2H4Y6GQ33pbrnS2SDnr9fKpRtvSU+6LSyv5zAwPCD9o+kwQOvLdEk6PRwsC9YF2+uT9tLpwaCNB699abnZ1ivtzZ3SdqlDuq/3h72sBjN6rPo9w0EdD4Vmgn3opOKZgeAcMoOES75JuFRA0n83AAAAfIBwCQCgBEnfJBAuIeKSk3CpgKT/bgAAAPgA4RIAQAmSvkkgXELEJSfhUgFJ/90AAADwAcIlAIASJH2TQLiEiEtOwqUCkv67AQAA4AOESwAAJUj6JoFwCRGXnIRLBST9dwMAAMAHCJcAAEqQ9E0C4RIiLjkJlwpI+u8GAACADxAuAQCUIOmbBMIlRFxyEi4VkPTfDQAAAB8gXAIAKEHSNwmES4i45CRcKiDpvxsAAAA+QLgEAFCCpG8SCJcQcclJuFRA0n83AJYj+puzf//+8LUSWcjzq/S6g8WDcAkAoARJ3yQQLiHikpNwqYCk/24A+EZnZ2cYXujrQjEwMOBVQHL58mV58803ZXR0NLekEBPoFKsT3U631/0oC3l+5lh8qTuoHAiXAABKkPRNwmKFS+nMYF7XekSftdtutB2Xem8+2++j5Zai0fNZcAmXCkj67waAT+h/x7z11lty4cKF8FU/z4euri5pbm6WO3fu5Jb4iQlsioVHJnA7f/6881zM+iQCH3OsSXwXLC8IlwAASpD0TcJihEuuG+uZLLec7Vy2QVwsBwbToa51C2Uc/67sz/o+EQmXCkj67waAT+hvgYZK+t8y2hNnPgGGhjAaxhQLZHzChGquYzXnoYFbsd5N2mMpjjCuHPSaEC7BQkC4BABQgqRvEhYjXFLNzehcbkjtbYq9j1ruNuWUY5vZbRMta+vartxt7HJJb+P6bFtqXTF1G5f2umLvo851G7O+2PuoZp2tq1zsEi4VkPTfDQCf0JBENYGKGeY1F5ZSuKQUC4jMkDftnWRebUwwNZ+6mg2ES7BQEC4BAJQg6ZuExQqXtIdGV0+39KcHwtebXZ3SN9Avvf190tF5M3zVdbq8u7cn3KazuyvUbHvjZke4TU9fr3MbvdGNbqPlSn2Paxv9Hi2jZc136mfd3myj26vRYzPbmO/RbfR4dRt9r99jvlPL6fa63nynfp7NNvpet9P30W10nR7jbLaJfo85H3NsxbbROni740ZYRutBy+mrKRetN32vy7Scvjfb6PeYbcz3zLRN9Hu07Wh5/VxsG/t7ZtpGj0OXm3rT91ov+lnf23Vgttf1+t7Um77X/Zj3+l26Tl/tejfLzXfqfsy+9Jh0nZYz2+gy1zZ6nuY7zffo8ZnjLLWN+R7XNnr8+l7L6HLz73vBJVwqIOm/GwC+YEISE1qYMKXYPESKzi105syZMOxQtbwuM8PEopp966v9uViwo7jCG93u0qVL+f3qMZh9Gcx36PG0t7eH70sFXdFjMui56PePj487QySznR06ufZl12dPT0/4Xsvoset/O0bR49RhhaacvnZ0BP/9UGI+J9f10HO3z7lYXbuWR+s+ekxqdP+wdCFcAgAoQdI3CfpHeDHCJb1Z1ZtSfTU37npDq+p7s05vYPXGWbfRZXqza7YxN8Hmhlhf9YbYvgm2b9DN9vY20Rtn/R6zjblx1uPR/Zpj01fdRrePfo9uo/vUYMW1jb7X79bv0TJme91W1+l7Xa/vdV+q2V630feubcx36nsta75ft79+4+38NlpeNfVp3hfbRtfZ32PK6XuzP12WGR4K35trpa+mnO5T3+v5m21MHWgd6v7N8Wg53ZfZRsvrumLbmPPW92YbPX7zPbrebK/b6XvzPTNto+XNNtHv0XL2NqXOx97GroPo9+j+dFtVy+j2ZrnWsW6jr2Zfuj66je7TbGPOzd5G15ttzLUy36PHZtpeuduY5bqdfr+uS0TCpQKS/rsB4AsmRDHhggkW7NDEoGGCBjUaLly7di373z2B+l6DEw1iNOhobGwM1fe6fmJiItxe3+u2+mp/dn1XtKzpSaThku7XfI8us4Mws50u1zIzYfZrh0fmPE0o5Qpg7NDIED1mxZS7evVq/thNUBPd3lW/5jx1WXTfpa6H7tscv6LLo9ubax1dburELNPz18963LpsqcypBeVBuAQAUIKkbxIWI1zSm1D7RtT+7Frneq83tWaZWe56X2qd632xbTXwcL3X1+h789m1TbRMsfel1rnem8+q1o2+6neaz6aMea/r7HKltjHqcvNa7vtS60yd2O/1e+3l+hp9bz6X2kZfo++jFisX3Sa6znw27+3Pehym7uz3dpno52i5hbTYOej7cta5ytmfE5NwqYCk/24A+IAJJ+xgRdHPdjBh0KBEg4hSoY3Zp2t7/c2xg4xSZaPHoIGH2c5gQhA7nDLfET2nYriOIRqwlXvc0XKKqbPo8Ziy9rGbsvb2ivm+Yvt2XY/o/l2hoZbR+tNeT9HjMGGa2a7c+oSlB+ESAEAJkr5J8CFc0h4T5r3eZJt1+mrfdJty9vbmvdnO9bmc9+azGv0OU868t9eXKme/11eznZ6HWR+Hui/7+6Lr56uGH3rM5rj1O+xz0FfXOrOdaxujWWfe28v1Vdfp+2i5crfRYyi2bmhk2Pk+uu/o/qLl9Lxc78329nt7nev9Qqrfod/lOi7z3nwu9t58Nu9dn/V7FlzCpQKS/rsB4APRHioGE0zYy4sFKlFKlXPtV4MMPQa7B48rNHLhCj5c3zET0WPQbe3P0eMpdnz///bOBDiO67zzOSqpVKrsxHbltCuVxBtnE3sdOUpq7Ry1Obwbx44tEwABUtRNXZQdWZaj+7AOHytFknWQuAGKBA/x1EFSIiXxJgHMPTiJG8Q1OGamu6dnBtS6KvXf73uDBntaMwOQkpoD4vtVfTXT3e/4vvd60Hj/eu91vvhy+eP0faH2dZa9UPpc17ku+zH7xuf405nO6Rf7yjPThMsPEZcEQRAK4PYg4VKIS2JiYmIfyERcysLt54YgFAMsIFgzVOzkEm2sc05BxUkuUcPCKZAwuYQa/p7LL15ex0uyeIkZv8WNy2Kz+5mrjoVw+uBsF2dM+erIdZ7LtAtVFs42ztXmdpxlL5SeccZhb1crJi6PzTpvlWvvD77OMXD9vORORKbLCxGXBEEQCuD2IIEfxCIuiYmJLSkTcSkLt58bgnCpsUQEFgzymV2YyDdbx8mFikuMXQSx/HKKJlwv5+UlXCMjI2opGJszbb46CmHVyT6zgJWvfkskcoo2Frnqtuez44wzX9wWzrIXSs84/bT6kMvg736/X12zyrLOe73e9/nLfWnf1Js39BYuD0RcEgRBKIDbgwR+KIu4JCYmtqRMxKUs3H5uCMKlhn//LBRYmzQ7jc+ziGCJSYsRM5iLEZfs59mcYky+unOdz1fHQlhCDAtWlgBjxxJm4vG4ii1XO+Sq+0LFpVztxljimlV2oXZmcl23znGdXJ79Gp/Ldd4Jn+d0uWISliYiLgmCIBTA7UEC/0Mg4pKYmNiSMhGXsnD7uSEIlxJLZCgkIuQSO1hUWEi4KVQ258uV38rDbyBjc+a1hB1L6LKwymO/LPLVsRBWPl5ux3Fz/Has9uCZU7l8YXLVzekWIy4x+UQbK22usvncYjb0tuBj621+9mv83eoDZx4nueIUli4iLgmCIBTA7UECP/RFXBITE1tSJuJSFm4/NwThUpJPrHHiFDv4/x3rtfjOV99Ho1GVhuFyOU0kElHCB/+PxHDafKKElSfXdUtcYV+smVZcJwtBfO7DEJfsAk4uYYzhevh6LgGIyVU3x5UrvVWf3Xd7nFb7crwcJy8FdJZtiXJ83tkfXEauOPh6rhise8JZB/vEy+esduf+5HuA/eRrwtJHxCVBEIQCuD1I4IeriEtiYmJLykRcysLt54YgXEryCR5OLMHBLoCwWMH77VhCBFtvb29WWZyGBQ5LxFiMuGTVlU+04E2kLWGLjcvPtT9SoToWwhKP8oluVtn5xKdcdV+IuMRwnFbbsfFMKS4vV9kM+8HCD6ez58k1m4mx6nXGwN/5nLP9+byzv9k/2dT78kHEJUEQhAK4PUgQcUlMTGzJmYhLWbj93BAEQRCEYkDEJUEQhAK4PUgQcUlMTGzJmYhLWbj93BAEQRCEYkDEJUEQhAK4PUgQcUlMTGzJmYhLWbj93BAEQRCEYkDEJUEQhAK4PUgQcUlMTGzJmYhLWbj93BAEQRCEYkDEJUEQhAK4PUgQcUlMTGzJmYhLWbj93BAEQRCEYkDEJUEQhAK4PUgQcUlMTGzJmYhLWbj93BAEQRCEYkDEJUEQhAK4PUgQcUlMTGzJmYhLWbj93BAEQRCEYkDEJUEQhAK4PUhY7uKSkUxAM+PQzQQMM0WmIRaLIzowhanDPRjcfBpnfvYmep7eh4HqdzH4RiuiXUOITU1BN3RKb0KncpI6laUnMX6oHX21Ry7IeupPYGoshnNJDXrnSM40lvXWHEZf3REMbmvF9KlBaKMz0AyN+s9E2kjDMBIY3uVRvvbW5C5jIetpOAI9kUJ8YBz9W0/Onx9+zZfVdqNH2jFccxT96jr5NZeukJ15pRXJhIGZhI7+na3z54e3nsbE2Qj1QxyzGt2LFEfCTJIfSWh0rGx4ElNHezCwtRldL76Frv+7D/3rD6N/dwumwtQnE1HEDQOmaVB7sFEZbNS3ls8mn08lMBXqx0DdUQzUslHM205A17TMdWpL7tfzeUxodD7SOYj+ako757PTBuuPYHRnM0ZPdmGqfwLxSDRzX1B+k8ozKSZd1+fLZUtRfDrFqfH9F9cQpxjHj3RiqJ7a/ekD6H6G7j3qx+EDIRg9dM9Na+RLknxKqzbS6f41bOUtGxNxKQu3nxuCIAiCUAyIuCQIglAAtwcJy15cYuGBxQi2eAxT/iEMbjiM8K1N8K2sga+0Gv4ytlp4V9bDv7IWofJadP7wNYwf6kB8YkYN8JN6RgDp+c9DlK7mgsx3dTXi7ePkj4bpw90507B5VlbDQ76o7xV0rrwS4e9twcjeAGITMfJDh2no6L5zN7wlVZT2/WUsxgIrq5Ay3sNEcACBWzfNn+94+NWsthtffwoeah9f+fvLyGc9t76Cc/FZau9zaLt71/z5wLqNSiDiNkhpcwIPxZI0NMx0jmOw7jhCd2yBt4L6gdtAtUMdWSN8ZXXwU5+EH9iFsTdCiI1NZQSleXHJ3uc60kYK7Y/sRXBFDVqpbj/5f2pNFWJ9EcTNJJIJ+j2w2EP9ynl0+n1oqVlMHGpH8Nvr5312mkf5U698819Tj+7H3sD4gTbMjE5Do3JiLARRuSw0zftjairGCMU+VHkMwVs2qb71l9ZSeXRvUFx8H3or6uG7th69T7+JyOlumNE44pawlBXfMjERl7Jw+7khCIIgCMWAiEuCIAgFcHuQsOyXxc2JS7GojuFX/QjfuQP+sioESquVmKMEprJqBFgwoPNeOuddWYvWslqEb2pUM1aisTjMOXGp95lDlIfzLd48LC51TSGeiGPqcHfONGyZui1hhfyZ881/QyOGNjdDn47CSKTRdecueEurlHCi/J/Lv1jzVtQhpSUxFepF8LbN8+c7H8kWl0bXn4CH6gmW1WR8sZWRz9pu34p0lPInZtF+967586F1jZgIDSCW1vCezjN9DGiGifFDYXT8YCelqcoILlSXEluofwKqTuqT8hp42NiX6+rQ8fxBxKaiGRGH7mslIM75HE8bmPIPInRTE/lMbU/5AtzfKyvRXfkW3QvvIWkmKe95cYk/9TT5cjCE0Ar2N0+sLOYpQY/bvjIjSq6pQdczBxFpH1Cz49js4lKS2nngQADtP9imRDof3VtcBvcrl8PmK6+Ch0U1jpsstG4zhre1QouZqjz7zKxlYyIuZeH2c0MQBEEQigERlwRBEArg9iBh2YpLHC8biwiJOEZfDSF0wyYa2K+Hv4RnoNTCv3Yjep95F0PbvBjb4UX/hncQ/k6Tmq3jKatFoKwSvlU16K88DjOZgq5r6OWZS3MiQ6C8Ab1PvonRLc0YbmrGYFNrTuvffhKJoWk1Q2b8SNd8fraOtTtxdksLxja3YGBLK4bYGk6h/dHdCJVXwl9ejxaeXXV9A2ZaBmAmziHyapjKPY3BrS1Z9XQ+vl/N0uHZT76yevQ88iZGyK/Ipmx/enYcRTKexETwDAI3vzzvS6dj5tJQ5Slqgzlhp7wRXeuPkp8nMbw5f6wTO1sxO01tTuW3f3/XfNmh2zYjEuyDblI7ppJqyeHowU503rwZnop6NZuKBZeWa+tx5um3VZ+M7/RhqOYo2u/aBiU4kQVLK9FSUU2x7oMZY2FJp36m+zs9C800qI1T6K56F8FVDfCuYGGKyi6txclVVeiiNkxMaEimKD6TZy/NxUqfWkrHyKE2tNG9ES6pRZDuj65HXsOArV9HGk+j96m34L+9CX6KyadmH9Up8bD70VcR6xmn+HREZ02kEwb1FfX3Tj+8NzWildL56J7yl9B9c9NG9D97ECNbPRje4UPPS+8idPsmdT0zM6oWbas2oq/uBEyNl+0lKU7yl2KzL+e7rE3EpSzcfm4IwqVkYGBAWS4KXfsomJqawuHDh+etublZ/V/1YWLVYZXN8X0U9XyYFPKR/3afPHkSs7Ozc2cEO272b77fC5/r6urCf/3Xf82dyWBPz58f1E++t3PVfyGIuCQIglAAtwcJ/FBYduISz/SYE5cM3cBUeBi+2zYiQAP3YGkj/Kvr0fXka9DPjFNaA9F0DEYqjigNZA3tHMZpwB+soAF+aS1aSzeg5YEmvBcz1Z45Wcvirm5Qy6LSNPjXUjwbRstpaYN84jTUD5Gj2cvifPftUbOIeIZLIqXDTMQpfRznYkn01hyFn2fSrKpXs2R8D2+HMcNxcX9adr6e8d1+hK6uR8vKarSU16G/qQVJPYlUPNu3dMpELH0OY8EetUzL8sW5LG6w6pSatdRaXo3mkkrEvWfxHu+XRNfs5dktYc4iRn4l9XRGXJorO3RbEyaDfTDMNNWdwmTXCMJ3bSVfN8C74gW0lFai/dFXoXWN0/1qUl/EoKU1TNF3I/lzjB6idru6FqEVVQhR/7Xc2QhtMIKEriPOQgT1s8Gi1dkYeu7fg2aul3w+dWMtPNdzv1ejraQaZ145Qf5Tu5nJzJIzNtU3Os7OiUttJRmfhza1ImmLLZ4kY2FqMoEzW06g9foa6p8aeKie02Uvob/uMBIx8sMwlNA14RtA8PaN8NG95OMyy9ej6+n90Ic0TCqhiJe+xSheA++Z72G45oRaJsez5liM8lxTg5F328F7NplqvzCbz5e7ibiUhdvPDUG4lPBvP9eglo/5PF//qOFBNw++nX5Y/1t8WLAA4/V6LxshhuPo6+t7n2ixXOF7JZeI4xa5fkvWve0UAK3zH+b9LeKSIAjCR4zbg4TlKS6RUbxqeVJMx8DT76i9lXifoubyenT9+DUkRqJIpNI0WOdBewo6pdcTmQ28jWQaI2/4Eb5nOwZ3eZCYzggYhpFEzzPnxSXf6jqM7/PDTLKwwdd5w+33m0759ISpNq8eP3ZmPj9b5717kDJ0pOIGTEqbmMsTNXVokwmcWvUSAqWVakmYp6ISZoSFDo6R+pNnZc2lZxvdGUBgVa0SlzzltRhtakbSMHAuyoLH+XTTKQMzyVmMB3sQWKS41LK6ltIPQ9fjMCgOe3l2m9VMnDNSOKfNzVyaKztLXIolcLbuJDxlvBSOr1eh49HXMN0zTm1PZadmoVF7ZTb9TiBGbZuMm5h4pwPhe19B98aj0CepfVIp8jOFaEqn+qj/qN7x/e0IssBWUa+W0J19M4DB595WM7ACZfVou38nEtSGmSVxc78Jm7gULqmD/9tV6n4ZaPJQTHR/zMXG91ScBTTKMxtNYHiPF4FrGhBc2aD26gretglx31kk6X6KRWLof/4dhKheb3kdQhV16HjhAPRIHPEU/R51FhLpnqH20BNpmOT/jGZgqPEklcmzl2qo3HqEH9sDfWBS3aMsMM3PtrrcjeOk9hZxKYPbzw1BuJTkE5H4OJfo9FHAg2I3RAEe3Pv9fldicoOf//znIizZ4Hv2UopLucRL61w4HM76jeVK+0ERcUkQBOEjxu1BwvIVl0zoKR0znaPwrapDKy+DW0kD9mvrMX1mTIkLRsJA0tTBG0sb1D5qsD/3GZueQayXBvU868g01OwkQzPR88zBecHEu7oOI2+EKI+OVCKdEabmjH3IvG0uI3KZqhwT4yeyxaXwvXvVtdlYUu0FxPXzzBreBFpPzuLY9evRXrJBLQXjjcbTk1QmCzDzRnHM2chuPwKrLXGpDsNNLUhQ2e/NZKeLpwzEzTQmg70FN/S2i0vh0nrE/eMUEwtVHCOVNSdwcXy86Tm/EY33UuINs/ktanZxKXhbEyKBXio3jemBCbSv3YTW0moquxbdZQ0Y8wxSXi5PQ4rK4rfBqb6gNmHhjzfLjsWiiPZGoEc1mGmezZOZgRSnfCmewTQVR/+Lh6m+WnhZtLqjEdpkDAPbTsJzTYNawtZ282ZMnupV7aAEOo7VKS6VVCsbafKqNFa7qfuKhchkCnHKZ0zpCD+6G4ESXh5HdVI7TW0PIMZvqwsMI7CWNyPPLJ9rXVuPmfazmfoMKi9lUp280XzmfmNxiePUBibR+dAuhMj/1ooGeK+rxdgbAfX7VfcSpbX30WVr3NYUs4hLGdx+bgjCpYYHpM5BqfOctZyMbaFlWHyN01jpCw3484lbubD7wGb3z5oJwm8R5U++bvczX17+5Gt2+JyVjsuKRCLz6dlfFqjs8fN3S7Sy/IjH4youS6BbTJs4fbTaJJePH6QtcmHVYS/X6WOhGD5I3HYutp3sfcZmtYe97fi7dd6Cr1l1XEx8dqw0Vn0Mf7fqtdfNPtvL52tWPquchfqP89h9td+nFlymlYbNfp2/2485HhGXBEEQCuD2IIH/MC/LPZdYqElpGN3qnRc42DqffUvt+WMm9cwANldeh2kp3veGPnlDb9uyOM+aWozsbIU2Og4jEoc+PjNvsYlpxMenoE/OUNsb82WNH89eFtd5z24ljPAb1FiciafIkgloSQ1mLIUTV29Qs25ayioRWlUDcyIzcyaXjewJwK+ENN4sug5nm+ifYxaX4jzD53y6GSo7lppFhMWlW16e96WQuMTL0YyWsxQLXUvQ/cTCyJw4kjRS6pX751Jp6GYcs3ScNLKXxQXWbcFEqA9JPYUpb7/apHv+2ncaYJjnqE9MXMyyr3iS4tPiiPaMwXvLRrUpeGBFJQYbj5EfdL1zDO13bFOzpJqpHQdrjiIRmxOLuIwscakewRJexlZN7deaEbwc9bGxn2wzp/vhK+VNufmNdtXoeHCv2r+pf1uL2kNKtV1JDbpefFuJiEqkspVjWTKRgmYkKE0SA1tPI7i6nvLycr5KDGw4CmMmSnm5vd+f97I0EZeycPu5IQiXGv792wfL1uCWzzP2ATjjTO8kGo3OD4StspyDXouFyrJgH3L5aJVrHdsH4XzN7jefd85c4jTWoJ5x5mH/7INyzrsYcam3tzcrzUJt4oyP0/L/k4zTxw+jLZzwdY7TqieXj4VisI4vNG4nH6SduK84Peez4LxWTM7rVvl8nrmY+JxwXXZ/rfqddfP5XOkYq65C/ec8dt6njLOtrHKtNE6f+FjEJUEQhAK4PUjgP+DLTVwyzLlZL7qGtof2zosYbBP+AbXMSs1IySMcOC2fuMRvNwtevRHeaxsQWlMP73U80yRjbWvq0LqmAR2PvIZY/8R8WU5xqe3+3eQLL4njWSnkk/rktEmMHWiHr5TSlDaqPYNOrKtGgvdcsvlmt49SXOLNzYMP7ULHT19D+09eR/uP983ZG+j86V46/zrODUznF5du36z2eHrPeA89W07Mn2fr23IcMdNEPMEbcp+vf7EWT2hI6CbO7vZn9qaiNjtd/hISI3ElUuh6EsHHeIZRZkZX+79vRfTM2Hmh5mLEJfI1TnnOUTyt19XBzxtxU7ufWLMBad1A6KEdCJfWwUPn/aXroTUPUnqeQfb+stg09kUtzzQRC40ieEO98pV97qZ+iU/OkC9c7/vzXpbG7UG/BxGXMrj93BCESw3/72IXTPjTEkuc1xhrkMp/NxaDcxBrh6/ZB8C5yOUDY/fT8skaoDP267mOGfugPl89nMYakOdKs5AfubC3CefjNsjXnovxcSEf7NdzYY/RgvMUWrplj+Fi4l4MF9JOucou1HYLtcnFxmfdz/b6nN+dcdj9zFWX3Vd7WXbsfZgvjb0c/m7vX84r4pIgCEIB3B4k8B/r5SYumTxTiJdv0QD19Pe3ZwkZxtikEiKU6KBm37w/v9PyzlxSy8+q1Z466tNWj3/lBjSXN6Dtnp2Y7h+bL8spLnWs24nxIx2YPtiJyDudGH+7HePvtKO/7jjC129EoIwFimqEKmow/lYb+cCzht7vI9tHKS5lZv3Uq+VxgZX8Jj3ew6iGrpNvlDdU0oD32rS84hK/DS0S7oVp/D8EGt6dP8822dKDBLUxzzJSSwptPizGzhkaND2F1tsbqbxa5Wv4QWp3tfyPjPru7P4QXaM4VtTgBPXN6NGOjLjIIuPFiEssCFKedDwN382N8JXWwUd1t66qhjEdQ+hOalcqp7WsAe2llTC6xqD2WsoTH4uKGsXPS/1S/VGEb+V+5DauRff3d2JqJIKUTr7ybzlH/svORFzKwu3nhiAUA/bBLX9ag1T+22AtqXGafXDshMuwp3UO+i24jIXEpXxp7ANoa0Bu98k5eOZPa2BtYY8713XG3h72Oi3s+XL5YZGvTRZqA7uPH1ZbOLHXYZEr1nwxXEzc+bjYduLrzrKdcdmP+dPqV4t8dReKzw77xj5yOrs/9vz2+8XC7leuuuz9lys/Y4+H817IfcLnQ6GQiEuCIAiFcHuQwH+cl92yOB74J2iQbqQQfHhPlpAx0zOqNtbOelvYApZXXOIlT7dvRud/7EHHXa+g4+6d83bm+1sQ/sEedD9zEDPD+Wcu8dIp3pfHW16rlnPxK+559k1gRWaWTaikUr0lre/5t6GN88bOs1m+2e2jFZeq0HoNz8iqR/CaOvjpu7Jr6+G/jvxc04j32mYKiEuZDb3j5jmc2XZq/jzb8D4/+C1s6YsQlpSZCUye7KM2rISHyvNUVEFrPksxstilgTdiPxdJwX9jI7UxxUJp2p/aByNm0j2iqeWIFyousQjE12b1FMLUDrzfkre8Hs0VNTB0HaH7tqm3vvnK6hAo3QCtbVztqcS+5irPMHX6jZLRb1XvnEL7zQ3Uj5XU/nXovmcvJscmkeIZeTnyXpYm4lIWbj83BKEY4L8BPNDk/2PsA1v+LDSgd8LpOD2XwYNXxirbOrZjHzTnI58PfHwhggp/FhrU56vHPmi312lhLzeXH3y+UJvkq9diMT7a/VpMWzix12FhL3OhGHLVuVAeJwul5++F2ilX2c64rDRcBn/yMXMx8eXDqtN+3zDWMX/a62Hsfuaqy95/fD5XO9jry5eGj+33r5WHj/nNgyIuCYIgFMDtQQL/0V52y+J4A2YzpZYujbzcnCVksLChsbBEg/wPLC6trsFw4wlMhYcQDZzFTGh43uKBAUyE6XvXKPT4+X2SnOJSUL32nkUIspUb6HMDAqXVynwV9Qhc34i+zScR5dfuJ3UkDRYg3u8j20cqLpVUY6jhtJo9Nf5mG8ZsNko2caADqUkzr7jku70Jo+F+GHoKkVPZm5p7n9hJ+dJKFFzsUkW7pfVZ+O7bonwNUuyt11Xh7FudGG3pQaS5G1NU3+TpXnR/d+e8uOS5ugqJnhjVa5CvFy4usUik8z3UM62EJRa1Aivr0XznFqQSOs5seBc+JRDWUNtVYmiHLyMu5dlzaSZlwNRZPEpj7GAXQtfWUz9WIVxag8GfvAVtcobu2/x9f9mZiEtZuP3cEIRiwBp0apo2L5Qw9kHtYuB09vxMrsG0hTWQtg/CneTzwV7XQgNy69jpm31Q70xvwWks/6x2sqexD+Tz+VGoTfLVa7EYH+11LKYtnNhjtLDHZS/fwh7DxcTtZKH0C8XAdTvLtrcdw2VzHbnu8wuNLx+cr729XZk9vdWePT09WT4xdj9z1WWPPV872PswXxo+dsbNohJvBs71i7gkCIJQALcHCfzHetnNXKJYU1oS8bQOIzSeJWSEbtuMFL+anwbqi93fJ6+4dHUdxt4Iw1SzTvhtcVxuxlh4YOGCBQXDPL+UySku+a+vxpkn9qPzyX1o+/Fr6HxwL1pW8bK6KvhW1qH5pkboQ1NUFs+ySam9mey+2e2jFJe6V9Qh4RtBPKVTvFwex5QxnsWTeZMZx5xbXAre2oRIaBDnkrMY7TsLX0Xd/LXuq2uRGNHAG1bn2/C6kM20T6CdfOQ3z7Fw1LqmFoG1L6P9liaEbt5G3/lzM7yralV9PFuM9zLqffYQoqkkkty3FNeFiEtaivvZROeGd+AvqYKnjOpcQWXWHKc+j2HsWB8CFbxMrgrtV1G9P9gOYyZOeXOXN62WBVI7Rk10P3tQLYfj5ZCBlZUY3HwahqGpt+Jl9uNaBibiUhZuPzcEoVjggSkvBbIGqBZ8bJ8FwYPfiYmJrEG8hXNQy5+8MbFz0G+Hy+XynWnU/1JkTC4fOP1iB+TWsVNA4HKdZdj94PLsbWKlsY4t3y3fFuuHs02c8XEa/n+SsfvIONNadV5IWzjhMjlOK48Vl1WmMz9/2mO42LjtLCZ9oXbiuu3XGGfbMXyuu7s76/xCdeeKLx9WXjarPMZqU+d5xu7nYtqS09vbhdM6f7v8vdB9wjh9EnFJEAShAG4PEviP9LITl2ymxzR0P/GaEgBaK+oQXtGAM9ubYega9EScBuu6Gsiy0KSz4ESD+GQygckzo+hvpH9iQqPQjGmkaFBvxBLofea8uOS7uhbj+30wqX21FP/DmcppSnBKseBkInK8Zz4/W/u9e2DqCaS1FGYpXTQWRd8T+xEoq59bJleJ4PMHyN8Y+RiHwWU6YrTsoxSXvGW1mA6OYpY3HOf7yZbObnmXxd3WhEigl9LMYob6ZKjmKFr4tf/l9epV/R0vvkO+sjhF7c+CDt2vRjJF/WHScQqmZmBycAwDLzcj2jqECeon3rA9qek485MD6CqpRXNZFVoqatHCe2CtaYS/ogG+VectuKpW1cezjE6t5n2iXoQ5wf2Sts1cqoN3RRU8pdUY3XIqs4H2XD+yiJZ5W15C7eU0GR5G4KZNCJdtUEskT6+uRfSdHiQTSYwPRdDxg+1KqDpFZbXRvTf0mk+JREnq7xjFpRtJioHKI0tR+TG6h8aPd8F/W4O6X71ljfB8ZzMmT3Zl2oBFveXyOxZxKQu3nxuCUCzw3wG7wGCHB6p8zTLngN0OX7PS8WDWeqW6NRDOhTXwtdfhzGMvl83ug5Xf7rtzQM6fhcQlxumHdd0+aLcG5HydP/n/PqvcXH4wi2kTexvbBQinj4y9PLZcMRRqCydcB89eccZup1AMHyRuO4tJn6+dLB/4vOV7rrZjH3MJPBcTXy6stFZeO+yPXfCxsPuZqy5n/1lpLH+t/FbcFvaY2JxtwXAey1cRlwRBEArg9iBhuYtLHPfM6T4EbqxHoJT3SdqA4PUNGH09CD0SU7NPMgNZA3qSBv008Nf6J9Hz7DsIsCB1XQ0Gq47DGONZSEk128USTHyr6zC2P0RlnIOpJ6GnclucymehxNAMjB/rms/PZheXeOZPXNcwcbofgTua4C2tRKi0CsFbNlK+TqpfRyp9afZc+jDFpXgqhSnfIMK3bkLLyiol+ASvq8PQjhZoEzFKw4Icz9TSqU3IV5NsMILB6mMIl/NyxEr0vPQ2Yj0TmBmeQefdu+AvZR+rEVq3GcP1xzC8w0PWgtFXzlv/jtM48/g+tacVv33PR+00ROliBouDc+ISb8xN8bIoNN54ivrtfD/y8jmeqRWL6oj6zqL90VcRKmuAp6SG7q0qdP/wNcTIH37zmxHXMfSqH4E1tWpGVZjfLPi9zYgcO0P/SMVgpufuN9VmlF7TEPH1o/uBPQiQf9xmAYq1u/pdJKY5LQtLPEssd7tfdsZx0u9BxKUMbj83BEEobuwD/8uV5RCjsDAiLgmCIBTA7UHCsheXeHnaTBT9m08jcA2/Fr5K7ZHjv6kRPc8ewuib7Zjw9GHK04vRY10Yevk0Ov6DRRFeYpXZZDu0diPiAxG1UXPvM2/PCyb+ijr0Vx5WgsHY8Q767M5pE8e7YQxHoSVMjB3rnM/PZheX1KykhA4jpmFkm4f8JR/KWASpRefDr8EYmFJvVcsZJ9lSEZdiLNZQjMO7vfCt4df4s6BTC++19eh46gBGD7RjrLkHU74+jJ3oxsh2Hzof2Ev9VoXW0vVqA/Qg9eWUtx+D+7zwX0P5KW7eDL39hUOIT8ehp1igIj9ZpFCfLMxomGodgo/TU7v6S+sRor5ORozzM5dKuZxK8qkBA08dwoS9H/n+2BegdjmB8He3KxEqIwTVIvidrWpfJxYpo6kEUvQZH4th8OmD5HcN3Ud18JRWInjzRvS88DZGqa7p5l5EPP2YeKcNA3VHEKIyeO8tLwtfVG7bw7sR6x1XopKKYU50y9Xul52JuJSF288NQRCKF/7bmGumyeWGiEsCI+KSIAhCAdweJIi4RHHzzJezUQyvf1fNBvGVVcJTXqVEitANmxG6Yxvav7sNYRZa1L48dfCVNpBVI3hbE8ZOdWPWSEKPG1niEos+wRs2oe22rQhTutDtW3Na8NbNmHm7V4lIoyeyxaXOe/Ygrc0irQQbFhEMJVBMj86g66HdCJY1wMtvHKtowMDWZsS1KNRm5DazYh3bHUBwVR2aSzbAV16P0Zc9SBlpzNrbgyzGy+t0AxOBIfjJt3lfHnm/uBSgNvKWVsFTUoVY66iavaPzEkBbOrsZaQPntDSSehLtd58Xl/zrNmI03AdtNqH2OOLlYXpEw/DGk/CXUpqyWmpvatOSGgSvexnBdVvR/r3tCK3bBO/VNfDQNZ4B5KXYvNfXYnS/H7GRKPqfexPeig3wr6xGaE2dEn8MutfVZu2q79n4O++bpVO7TqP78depfSqpznq03UD9e6yb2kTH6FshhMpZ2KlSglfo+o0I3r7lfF/e2qTejOerYEEpM7vIW7YentsaMfJ2G8yYofZo4j5RezVRnXrPNNp/uo/852VuLPxRHBVU/toGtN2xHW3feQWhtZvgWcnXeRkk77VUhfYH9iLWNQnT4DIz/nNM8ra45Ynbzw1BEIoHFlnsy4iWg7DEiLgkMCIuCYIgFMDtQYKISwm1nIw3bo7Fk4i83g7/dTUIf5tFj1r4WGQqZaGBN2Wuh2dFPbwr6tBSUYPuJ15FpPOs2o8pxUun4gn0P3MQAZ6xcgEWrKhC5FC32r9n5HhH1rWO+3bCTL6HWEpH1mbWpoFY5xiOrHwRras3kn/VaL2hGnr7cH5xaS/PXOKNrauUjW3xIJ7K7Cc0Xy5ZlI55j6ihtmH4122a96X7kb1Z6YZePJppl/JKhCmGmHcUGt1HMRbAbOmyzIjD1FM4pyXR/f2d82WH1jViKjSoloMljcym5/zWPt2YhXasH/5beSPtqjnRhj5LNyhhK1BKfVLKolKt2g+p675diPgGqS3jGGvuxekb6uAvrUPrqkac+e5WmOPxvAJMKsECoY7Bracpng3wXF0Pf3ktuirfghaLYeJgJ/naiAD5YPltN285i0OUh8U+Mva1+7FXlYDEwiEvazS5LlufzKRMGHTfje70wnc93Xfka5DiCPDyO8rv42WBZB6KM8jn1lSjr+EIkhG6Z41E5rdrK2/ZmIhLWbj93BAEQRCEYkDEJUEQhAK4PUhY7uJSZrZHErMJU7VDPJlCbGAGPfXHEbxrB/xrmxC+sQlt12xExw0vo/WORnT+9A1MHOtBImYineAlUzzbhvJqCfSvP4bg2i0XZKEb6zF9sB2zhonR071Z13oe24V0fK5/bCJCnOo0jARGt51C2y2bELplG8LXN+Hkg6/kFZdG97UjfNtW+G7eQnFtwsS2ZiR5w2i1V9D5NomTcVyRjiG03bNz3pczPz2YlS5S26retBa8dSvVXQ3NM0jtwOJS/nvpHJVrGmn1ZruuR/bNlx26bwciXWfVxuQpntFDNkttOquZmEoloI3G0d90CgHqE8+Nm9B24xaEr32Z+mYTPLc0oOuxVzFEbahFTdUf3F4z+0II31yPjps2wrtuEzpfPKBEiXziUpLan/OOBQfRfs8utFIbBaldu546iOnhcUwd7obvppfnfXZaG/nSfusmeL/fhO6X3saU7yxiWhJJM/PGOSVkcp/Y6kwbOhIUX5T7tyOC3sp30XrXy2qpZfj6TQjf1IQA9ZeH/O9+/hAmg2ep/dhXHSnKY1B7Xswb9Ja8ibiUhdvPDUEQBEEoBkRcEgRBKIDbgwQRlzJCRkZ0MNTsEiXIsEVimOoaxoT/DMa9ZzDZOQJjMg6TBvNxXvpFg3zdZEGKlzlRfp5pMzaDWN/YhVnPBKIzmlr6psf0rGva0DS0FIs9GR/nfU+kyd8kkjEN0d5xxClttH8Ssf7xLGFJxTKXJzYdRbx3FDNksR7KE8nM4kkb1P9WuWwUV1rXMa1rmBmMzPsSPzuZlS46MQGtbzxz7cwEYnEDKd73h+8nWzq7pcmftDkLPZVGdJj8nStb74sgSrEbCR0mi13clpRepz5hf9SeSNQGqSnyq5v7pAfjnh5Mto1Qm0fVNX6bX4pnPZFFUynER6cRJf+i1CbxLvJxKq7Er3ziEpcRS1F9On0OTaq2iimjNpiJQZuJ0znyc85np/F5fWQappZpc5P8UcsEyXfeC0n1RYq+O+rVEjzTi+PLzG5KzuiY6R7DVLAfk6E+TNM9mOT7TpXFfmb231IbffPMJxGXlj1uPzcEQRAEoRgQcUkQBKEAbg8Slv2yODExsaVnIi5l4fZzQxAEQRCKARGXBEEQCuD2IEHEJTExsSVnIi5l4fZzQxAEQRCKARGXBEEQCuD2IEHEJTExsSVnIi5l4fZzQxAEQRCKARGXBEEQCuD2IEHEJTExsSVnIi5l4fZzQxAEQRCKARGXBEEQCuD2IEHEJTExsSVnIi5l4fZzQxAEQRCKARGXBEEQCuD2IEHEJTExsSVnIi5l4fZzQxAEQRCKARGXBEEQCuD2IEHEJTExsSVnIi5l4fZzQxAEQRCKARGXBEEQCuD2IEHEJTExsSVnIi5l4fZzQxAEQRCKARGXBEEQCuD2IEHEJTExsSVnIi5l4fZzQxAEQRCKARGXBEEQCuD2IEHEJTExsSVnIi5l4fZzQxAEQRCKARGXBEEQCuD2IEHEJTExsSVnIi5l4fZzQxAEQRCKARGXBEEQCuD2IEHEJTExsSVnIi5l4fZzQxAEQRCKARGXBEEQCuD2IEHEJTExsSVnIi5l4fZzQxAEQRCKARGXBEEQCuD2IEHEJTExsSVnIi5l4fZzQxAEQRCKARGXBEEQCuD2IEHEJTExsSVnIi5l4fZzQxAEQRCKARGXBEEQCuD2IEHEJTExsSVnIi5l4fZzQxAEQRCKARGXBEEQCuD2IEHEJTExsSVnIi5l4fZzQxAEQRCKARGXBEEQCuD2IEHEJTExsSVnIi5l4fZzQxAEQRCKARGXBEEQCuD2IEHEJTExsSVnIi5l4fZzQxAEQRCKARGXBEEQCuD2IEHEJTExsSVnIi5l4fZzQxAEQRCKARGXBEEQCuD2IEHEJTG2mBbH62+8jvqGekxHZ3KmuZxsJhZFIBhUcee6LlbkJuJSFm4/NwRBEAShGBBxSRAEoQBuDxJEXBJjY7Gl8eWNePJHT2JyeipnmsvJHnrkYfzBH/zBsoj1sjQRl7Jw+7khCIIgCMWAiEuCIAgFcHuQIOLS0jPN0LFz9y5U19Sgqroaz7/4AoaGh7Fv/z488eSTeOTRR7Fj106MTYwjrmt0/Ai2bNuKyqpK/PgnP0ZLaytOnDypvtfV1yEaj6kZPAfePIBNmzcpoenwkSN4af1LdLwZTz/zn6reoeEhNDQ24OFHHsH6DRvQdab7fb4NnR0mn6pw7MRx1DXUq7oPvPWmqoOve7xePPX0U3jwoYdQSelY3Onq7sLjTzyhZhIZZgKDVM+TP/oRTp46qWLd/soreOyJxym2J/AGxchpOLaGxkbsfXUvfvzTn6jvR44dVf5X11RTbD9RZYfb2/Cz53+mfN5DaTm2dw6/i7+44gp8/OMfx7PPPYve/j709PbgBWrHR3/4Q9W2kalJVY8zPrEiMRGXsnD7uSEIgiAIxYCIS4IgCAVwe5Ag4tLSMxaCbr7lFvzmb/4m/u2b38QPH3sMr+zcgS9+8Yu46qqr8LWvfU3Nytm+4xW1xO2XfumX8Lk//VOUV5Tj93//9/Hf/+zP8I1vfAP//NWv4jOf+Qz27d+PqZlpPPDgA1ixYoUSbp56+mn8xm/8Br72r/+Kxx5/HHrCUNeu+NIVKFtZhi984Qv4h3/8R3T3nMnyzRfw4+///u/x55//c9y09iZ8+ctfxhf+xxfw5sG3lMDE+b70pS/hm9/6Jj796U/j/gfuhz8YwF9e+Zd4af16Vc9blPazn/0s3ti3T4lbnO5bFNeVf3Ul/vCP/hAjoyNK2Pr617+OP/rjP8Lqq1ejvqEBz/7sOfz2b/82vvFv/4a77roLrR4Prvr2VcrP1atX488obhbMdu/do9rj13/913HvfffhVPNprCih2K64AiUlJbjyyitRV18PTdezYhMrIhNxKQu3nxuCIAiCUAyIuCQIglAAtwcJIi4tPbPEJRZHrBlBLCLtP3BAXeOZOSzIPP/CC0o0+sVf/EWUlJYo4WbdHXcosenk6VPo6OxQ4s+DDz2YU1xigefQ24dU+T6/Xwk3PNOJj0fHx/DLv/zL+Pc775z3S6WbE5e+d9ddyrdTVM8v/MIvqFlTPBOIhaS2jnYlDv3J5z6HK770JeXz3T+4G//nX/5F+bH25rX41lXfwsRkRMW1a/cuVRbH86lPfQqnW5rnxaWVK1eqNBzbc8//TAluHBvXtWXrFnyO6mAf2DeeqVVSWoqzoyNYWV6uhDWe3cTLAT/xyU+ip69X5WOx7q//+q9VO9hjEysiE3EpC7efG4IgCIJQDIi4JAiCUAC3BwkiLi09s89c4mMWRAKhIG6//XZ89X9/VQkzv/Vbv4XnX3heiTUsJlVUVKh099x7L37lV35FiUMspvzd3/1dXnHpyr/6K4Tb2lQdLCp9/vOfh9fvU8cs5rBodM2118z7xWaJS+s3rFdL2uziEotAXMe/fv3rWLV6tfLxi3/xReUXzzziWVW8jI3P33f//er86ebTKC0rU0LSP/3zP+FjH/+YEo8scel+Ko/bwxKXeGZUKBxSxxsqN+BXf/VX8clPfUoJY2w8A6qzuytLXOIleb/2a7+m6rXS8bXBoaGs2MSKyERcysLt54YgCIIgFAMiLgmCIBTA7UGCiEtLzyxx6ZOf/KQ65n2VeHkZL4XrG+jH2+++g9/7vd9Ty8zyiUvjkYkFxaW/+du/VfsRcR28dOx3fud3UFNbo+pvaW1Rwg3n4bJOnDqpZhpZ4hKnc4pLr+97Qwlim5ua0NHVif/2J3+Cr/zNV5Rf/YMD+F//8A+oWLUKf/zZz6pyuN7/+eUv42Mf+5jah+nZ555TM4xYSLPEpR/96Ecqfktc+spXvqLK5jI3N23G7/7u76plfXv27lF7L+07sF8JSiwuffozn1a+8z5Sn/jEJ1S6nbt2oqauVuXl/ZmsNhcrMhNxKQu3nxuCIAiCcOkB/j/18fMZklPwVwAAAABJRU5ErkJggg==;" vertex="1" parent="1">
          <mxGeometry x="-1600" y="100.00000000000003" width="335" height="165.65" as="geometry" />
        </mxCell>
      </root>
    </mxGraphModel>
  </diagram>
</mxfile>
